<svg xmlns="http://www.w3.org/2000/svg" xmlns:xlink="http://www.w3.org/1999/xlink" width="510" zoomAndPan="magnify" viewBox="0 0 382.5 271.499997" height="362" preserveAspectRatio="xMidYMid meet" version="1.0"><defs><filter x="0%" y="0%" width="100%" height="100%" id="2536f260f9"><feColorMatrix values="0 0 0 0 1 0 0 0 0 1 0 0 0 0 1 0 0 0 1 0" color-interpolation-filters="sRGB"/></filter><g/><mask id="ece0a07f01"><g filter="url(#2536f260f9)"><rect x="-38.25" width="459" fill="#000000" y="-27.15" height="325.799996" fill-opacity="0.7"/></g></mask><clipPath id="b7b3940d22"><path d="M 0.621094 1.121094 L 269.382812 1.121094 L 269.382812 269.882812 L 0.621094 269.882812 Z M 0.621094 1.121094 " clip-rule="nonzero"/></clipPath><clipPath id="6b7341f4d2"><path d="M 135 1.121094 C 60.785156 1.121094 0.621094 61.285156 0.621094 135.5 C 0.621094 209.71875 60.785156 269.882812 135 269.882812 C 209.21875 269.882812 269.382812 209.71875 269.382812 135.5 C 269.382812 61.285156 209.21875 1.121094 135 1.121094 Z M 135 1.121094 " clip-rule="nonzero"/></clipPath><clipPath id="564eb5dc1e"><rect x="0" width="270" y="0" height="270"/></clipPath><mask id="f0480eb4ca"><g filter="url(#2536f260f9)"><rect x="-38.25" width="459" fill="#000000" y="-27.15" height="325.799996" fill-opacity="0.69"/></g></mask><clipPath id="9c66e3d77d"><path d="M 16.671875 8.171875 L 271.203125 8.171875 L 271.203125 262.703125 L 16.671875 262.703125 Z M 16.671875 8.171875 " clip-rule="nonzero"/></clipPath><clipPath id="962b8abe66"><path d="M 143.996094 8.171875 C 73.675781 8.171875 16.671875 65.175781 16.671875 135.496094 C 16.671875 205.816406 73.675781 262.820312 143.996094 262.820312 C 214.316406 262.820312 271.320312 205.816406 271.320312 135.496094 C 271.320312 65.175781 214.316406 8.171875 143.996094 8.171875 Z M 143.996094 8.171875 " clip-rule="nonzero"/></clipPath><clipPath id="f531c0768b"><rect x="0" width="288" y="0" height="271"/></clipPath><clipPath id="be0bfadb83"><path d="M 2.960938 89.359375 L 379 89.359375 L 379 181.644531 L 2.960938 181.644531 Z M 2.960938 89.359375 " clip-rule="nonzero"/></clipPath><clipPath id="ad21a6c32f"><path d="M 27.667969 89.359375 L 354.335938 89.359375 C 367.976562 89.359375 379.039062 100.417969 379.039062 114.0625 L 379.039062 156.9375 C 379.039062 170.582031 367.976562 181.644531 354.335938 181.644531 L 27.667969 181.644531 C 14.023438 181.644531 2.960938 170.582031 2.960938 156.9375 L 2.960938 114.0625 C 2.960938 100.417969 14.023438 89.359375 27.667969 89.359375 Z M 27.667969 89.359375 " clip-rule="nonzero"/></clipPath><clipPath id="06b682b37c"><path d="M 0.101562 80 L 381.898438 80 L 381.898438 190 L 0.101562 190 Z M 0.101562 80 " clip-rule="nonzero"/></clipPath><mask id="adcd6fc82f"><g filter="url(#2536f260f9)"><rect x="-38.25" width="459" fill="#000000" y="-27.15" height="325.799996" fill-opacity="0.57"/></g></mask><clipPath id="6f7b0f3432"><path d="M 9.703125 16.199219 L 369.773438 16.199219 L 369.773438 94.804688 L 9.703125 94.804688 Z M 9.703125 16.199219 " clip-rule="nonzero"/></clipPath><clipPath id="afa1d84252"><path d="M 34.40625 16.199219 L 345.417969 16.199219 C 359.058594 16.199219 370.117188 27.257812 370.117188 40.902344 L 370.117188 70.089844 C 370.117188 83.734375 359.058594 94.792969 345.417969 94.792969 L 34.40625 94.792969 C 20.765625 94.792969 9.703125 83.734375 9.703125 70.089844 L 9.703125 40.902344 C 9.703125 27.257812 20.765625 16.199219 34.40625 16.199219 Z M 34.40625 16.199219 " clip-rule="nonzero"/></clipPath><clipPath id="7fe4900c91"><rect x="0" width="382" y="0" height="110"/></clipPath><clipPath id="b89f0bf64a"><path d="M 111 20.742188 L 219 20.742188 L 219 55 L 111 55 Z M 111 20.742188 " clip-rule="nonzero"/></clipPath><clipPath id="d65cfeab97"><path d="M 163 216 L 271 216 L 271 250.257812 L 163 250.257812 Z M 163 216 " clip-rule="nonzero"/></clipPath></defs><g mask="url(#ece0a07f01)"><g transform="matrix(1, 0, 0, 1, 56, 0)"><g clip-path="url(#564eb5dc1e)"><g clip-path="url(#b7b3940d22)"><g clip-path="url(#6b7341f4d2)"><path fill="#ffffff" d="M 0.621094 1.121094 L 269.382812 1.121094 L 269.382812 269.882812 L 0.621094 269.882812 Z M 0.621094 1.121094 " fill-opacity="1" fill-rule="nonzero"/></g></g></g></g></g><g mask="url(#f0480eb4ca)"><g transform="matrix(1, 0, 0, 1, 47, 0)"><g clip-path="url(#f531c0768b)"><g clip-path="url(#9c66e3d77d)"><g clip-path="url(#962b8abe66)"><path stroke-linecap="butt" transform="matrix(0.748621, 0, 0, 0.748621, 16.672597, 8.172597)" fill="none" stroke-linejoin="miter" d="M 170.077314 -0.0009641 C 76.144221 -0.0009641 -0.0009643 76.144221 -0.0009643 170.077314 C -0.0009643 264.010406 76.144221 340.155592 170.077314 340.155592 C 264.010406 340.155592 340.155591 264.010406 340.155591 170.077314 C 340.155591 76.144221 264.010406 -0.0009641 170.077314 -0.0009641 Z M 170.077314 -0.0009641 " stroke="#294a44" stroke-width="8" stroke-opacity="1" stroke-miterlimit="4"/></g></g></g></g></g><g clip-path="url(#be0bfadb83)"><g clip-path="url(#ad21a6c32f)"><path fill="#789c4d" d="M 2.960938 89.359375 L 378.949219 89.359375 L 378.949219 181.644531 L 2.960938 181.644531 Z M 2.960938 89.359375 " fill-opacity="1" fill-rule="nonzero"/></g></g><g clip-path="url(#06b682b37c)"><g mask="url(#adcd6fc82f)"><g transform="matrix(1, 0, 0, 1, 0, 80)"><g clip-path="url(#7fe4900c91)"><g clip-path="url(#6f7b0f3432)"><g clip-path="url(#afa1d84252)"><path stroke-linecap="butt" transform="matrix(0.748621, 0, 0, 0.748621, 9.704903, 16.199363)" fill="none" stroke-linejoin="miter" d="M 32.995782 -0.000192565 L 448.441757 -0.000192565 C 466.662751 -0.000192565 481.434697 14.771753 481.434697 32.997965 L 481.434697 71.986301 C 481.434697 90.212514 466.662751 104.984459 448.441757 104.984459 L 32.995782 104.984459 C 14.774788 104.984459 -0.00237562 90.212514 -0.00237562 71.986301 L -0.00237562 32.997965 C -0.00237562 14.771753 14.774788 -0.000192565 32.995782 -0.000192565 Z M 32.995782 -0.000192565 " stroke="#ffffff" stroke-width="8" stroke-opacity="1" stroke-miterlimit="4"/></g></g></g></g></g></g><g fill="#ffffff" fill-opacity="1"><g transform="translate(27.360361, 156.485768)"><g><path d="M 10.796875 -39 L 28.953125 -39 L 28.328125 -42.703125 L 5.84375 -42.703125 L 5.84375 0 L 10.796875 0 L 10.796875 -19.71875 L 25.5 -19.71875 L 24.9375 -23.421875 L 10.796875 -23.421875 Z M 10.796875 -39 "/></g></g></g><g fill="#ffffff" fill-opacity="1"><g transform="translate(57.562619, 156.485768)"><g><path d="M 5.21875 -15.140625 C 5.21875 -12.078125 5.875 -9.351562 7.1875 -6.96875 C 8.507812 -4.582031 10.394531 -2.695312 12.84375 -1.3125 C 15.289062 0.0625 18.144531 0.75 21.40625 0.75 C 24.675781 0.75 27.535156 0.0703125 29.984375 -1.28125 C 32.429688 -2.644531 34.3125 -4.539062 35.625 -6.96875 C 36.945312 -9.394531 37.609375 -12.117188 37.609375 -15.140625 L 37.609375 -42.703125 L 32.59375 -42.703125 L 32.59375 -15.703125 C 32.59375 -12.054688 31.585938 -9.101562 29.578125 -6.84375 C 27.566406 -4.582031 24.84375 -3.453125 21.40625 -3.453125 C 18.019531 -3.453125 15.300781 -4.582031 13.25 -6.84375 C 11.195312 -9.101562 10.171875 -12.054688 10.171875 -15.703125 L 10.171875 -42.703125 L 5.21875 -42.703125 Z M 5.21875 -15.140625 "/></g></g></g><g fill="#ffffff" fill-opacity="1"><g transform="translate(100.385788, 156.485768)"><g><path d="M 12.4375 -30.703125 L 34.15625 0 L 38.1875 0 L 38.1875 -42.703125 L 33.15625 -42.703125 L 33.15625 -9.609375 L 30.578125 -13.8125 L 9.796875 -42.703125 L 5.84375 -42.703125 L 5.84375 0 L 10.796875 0 L 10.796875 -33.53125 Z M 12.4375 -30.703125 "/></g></g></g><g fill="#ffffff" fill-opacity="1"><g transform="translate(144.339187, 156.485768)"><g><path d="M 33.46875 -41.125 C 32.257812 -41.882812 30.566406 -42.484375 28.390625 -42.921875 C 26.210938 -43.359375 24.347656 -43.578125 22.796875 -43.578125 C 18.773438 -43.578125 15.234375 -42.59375 12.171875 -40.625 C 9.117188 -38.65625 6.773438 -35.960938 5.140625 -32.546875 C 3.515625 -29.140625 2.703125 -25.320312 2.703125 -21.09375 C 2.703125 -17.082031 3.453125 -13.398438 4.953125 -10.046875 C 6.460938 -6.703125 8.703125 -4.046875 11.671875 -2.078125 C 14.648438 -0.109375 18.234375 0.875 22.421875 0.875 C 24.222656 0.875 26.203125 0.632812 28.359375 0.15625 C 30.515625 -0.320312 32.238281 -0.894531 33.53125 -1.5625 L 31.65625 -5.34375 C 30.351562 -4.75 28.957031 -4.285156 27.46875 -3.953125 C 25.988281 -3.617188 24.242188 -3.453125 22.234375 -3.453125 C 19.296875 -3.453125 16.738281 -4.234375 14.5625 -5.796875 C 12.382812 -7.367188 10.726562 -9.503906 9.59375 -12.203125 C 8.46875 -14.910156 7.90625 -17.894531 7.90625 -21.15625 C 7.90625 -24.632812 8.554688 -27.753906 9.859375 -30.515625 C 11.160156 -33.273438 12.953125 -35.429688 15.234375 -36.984375 C 17.515625 -38.535156 20.035156 -39.3125 22.796875 -39.3125 C 24.765625 -39.3125 26.351562 -39.175781 27.5625 -38.90625 C 28.78125 -38.632812 30.226562 -38.179688 31.90625 -37.546875 Z M 33.46875 -41.125 "/></g></g></g><g fill="#ffffff" fill-opacity="1"><g transform="translate(179.313529, 156.485768)"><g><path d="M 0.625 -38.8125 L 14.953125 -38.8125 L 14.953125 0 L 19.96875 0 L 19.96875 -38.8125 L 34.734375 -38.8125 L 34.15625 -42.703125 L 0.625 -42.703125 Z M 0.625 -38.8125 "/></g></g></g><g fill="#ffffff" fill-opacity="1"><g transform="translate(214.664615, 156.485768)"><g><path d="M 5.84375 -42.703125 L 5.84375 0 L 10.796875 0 L 10.796875 -42.703125 Z M 5.84375 -42.703125 "/></g></g></g><g fill="#ffffff" fill-opacity="1"><g transform="translate(231.241318, 156.485768)"><g><path d="M 22.859375 -43.703125 C 19.003906 -43.617188 15.546875 -42.59375 12.484375 -40.625 C 9.429688 -38.65625 7.035156 -35.972656 5.296875 -32.578125 C 3.566406 -29.191406 2.703125 -25.382812 2.703125 -21.15625 C 2.703125 -16.925781 3.554688 -13.132812 5.265625 -9.78125 C 6.984375 -6.4375 9.347656 -3.820312 12.359375 -1.9375 C 15.378906 -0.0625 18.796875 0.875 22.609375 0.875 C 26.460938 0.832031 29.9375 -0.171875 33.03125 -2.140625 C 36.125 -4.109375 38.539062 -6.796875 40.28125 -10.203125 C 42.019531 -13.617188 42.890625 -17.441406 42.890625 -21.671875 C 42.890625 -25.890625 42.03125 -29.675781 40.3125 -33.03125 C 38.59375 -36.382812 36.207031 -39 33.15625 -40.875 C 30.101562 -42.757812 26.671875 -43.703125 22.859375 -43.703125 Z M 7.90625 -21.21875 C 7.90625 -24.695312 8.554688 -27.804688 9.859375 -30.546875 C 11.160156 -33.285156 12.953125 -35.441406 15.234375 -37.015625 C 17.515625 -38.585938 20.097656 -39.375 22.984375 -39.375 C 25.785156 -39.375 28.285156 -38.609375 30.484375 -37.078125 C 32.679688 -35.554688 34.40625 -33.441406 35.65625 -30.734375 C 36.914062 -28.035156 37.546875 -24.992188 37.546875 -21.609375 C 37.546875 -18.128906 36.894531 -15.003906 35.59375 -12.234375 C 34.300781 -9.472656 32.515625 -7.316406 30.234375 -5.765625 C 27.953125 -4.222656 25.367188 -3.453125 22.484375 -3.453125 C 19.679688 -3.453125 17.179688 -4.210938 14.984375 -5.734375 C 12.785156 -7.265625 11.054688 -9.378906 9.796875 -12.078125 C 8.535156 -14.785156 7.90625 -17.832031 7.90625 -21.21875 Z M 7.90625 -21.21875 "/></g></g></g><g fill="#ffffff" fill-opacity="1"><g transform="translate(276.764473, 156.485768)"><g><path d="M 12.4375 -30.703125 L 34.15625 0 L 38.1875 0 L 38.1875 -42.703125 L 33.15625 -42.703125 L 33.15625 -9.609375 L 30.578125 -13.8125 L 9.796875 -42.703125 L 5.84375 -42.703125 L 5.84375 0 L 10.796875 0 L 10.796875 -33.53125 Z M 12.4375 -30.703125 "/></g></g></g><g fill="#ffffff" fill-opacity="1"><g transform="translate(320.717873, 156.485768)"><g><path d="M 3.390625 -2.078125 C 4.523438 -1.316406 6.304688 -0.644531 8.734375 -0.0625 C 11.160156 0.519531 13.296875 0.8125 15.140625 0.8125 C 18.234375 0.8125 20.921875 0.332031 23.203125 -0.625 C 25.484375 -1.59375 27.21875 -2.910156 28.40625 -4.578125 C 29.601562 -6.253906 30.203125 -8.179688 30.203125 -10.359375 C 30.203125 -12.367188 29.78125 -14.09375 28.9375 -15.53125 C 28.101562 -16.976562 26.878906 -18.265625 25.265625 -19.390625 C 23.660156 -20.523438 21.539062 -21.703125 18.90625 -22.921875 C 15.96875 -24.265625 13.742188 -25.375 12.234375 -26.25 C 10.734375 -27.125 9.570312 -28.09375 8.75 -29.15625 C 7.9375 -30.226562 7.53125 -31.519531 7.53125 -33.03125 C 7.53125 -35.039062 8.359375 -36.609375 10.015625 -37.734375 C 11.671875 -38.867188 13.878906 -39.4375 16.640625 -39.4375 C 18.484375 -39.4375 20.039062 -39.25 21.3125 -38.875 C 22.59375 -38.5 24.007812 -37.953125 25.5625 -37.234375 L 27.25 -41.0625 C 25.789062 -41.820312 24.109375 -42.453125 22.203125 -42.953125 C 20.296875 -43.453125 18.335938 -43.703125 16.328125 -43.703125 C 13.609375 -43.703125 11.210938 -43.226562 9.140625 -42.28125 C 7.066406 -41.34375 5.472656 -40.054688 4.359375 -38.421875 C 3.253906 -36.796875 2.703125 -34.976562 2.703125 -32.96875 C 2.703125 -30.125 3.609375 -27.71875 5.421875 -25.75 C 7.242188 -23.78125 10.101562 -21.957031 14 -20.28125 C 16.71875 -19.113281 18.863281 -18.078125 20.4375 -17.171875 C 22.007812 -16.273438 23.210938 -15.269531 24.046875 -14.15625 C 24.890625 -13.050781 25.3125 -11.765625 25.3125 -10.296875 C 25.3125 -8.242188 24.421875 -6.578125 22.640625 -5.296875 C 20.859375 -4.023438 18.335938 -3.390625 15.078125 -3.390625 C 13.234375 -3.390625 11.359375 -3.648438 9.453125 -4.171875 C 7.546875 -4.703125 5.921875 -5.300781 4.578125 -5.96875 Z M 3.390625 -2.078125 "/></g></g></g><path fill="#2b7151" d="M 287.585938 77.019531 C 280.285156 76.875 275.113281 75.953125 267.402344 71.605469 C 263.003906 69.125 258.253906 64.386719 251.667969 59.199219 C 241.410156 51.214844 231.4375 45.933594 221.859375 42.558594 C 221.859375 42.570312 221.867188 42.582031 221.871094 42.59375 C 221.855469 42.574219 221.84375 42.5625 221.824219 42.546875 C 221.351562 42.378906 220.882812 42.226562 220.414062 42.066406 C 219.933594 41.90625 219.457031 41.753906 218.976562 41.597656 C 211.421875 39.230469 204.121094 38.003906 196.945312 37.589844 C 195.878906 38.121094 194.933594 38.738281 194.074219 39.414062 C 193.363281 39.96875 192.6875 40.566406 192.035156 41.195312 C 191.808594 41.410156 191.589844 41.628906 191.363281 41.847656 C 190.949219 42.253906 190.539062 42.675781 190.117188 43.101562 C 188.429688 44.820312 186.53125 46.316406 184.609375 47.773438 C 183.5 50.824219 183.789062 54.53125 183.210938 57.734375 C 183.089844 58.398438 183 59.304688 182.867188 60.257812 C 189.980469 60.910156 197.839844 62.046875 206.640625 63.6875 C 229.949219 68.371094 241.917969 59.703125 260.410156 73.445312 C 265.191406 76.5625 269.871094 79.339844 276.425781 80.464844 C 287.914062 82.4375 292.199219 80.886719 292.242188 79.089844 C 292.300781 76.640625 292.199219 77.089844 287.59375 77.019531 Z M 195.894531 52.910156 C 195.402344 52.566406 195.035156 52.015625 195.148438 51.445312 C 195.261719 50.871094 195.800781 50.578125 196.308594 50.328125 C 197.320312 49.828125 199.132812 48.996094 200.3125 49.710938 C 201.03125 50.144531 201.015625 50.558594 200.859375 51.152344 C 200.597656 51.867188 199.855469 52.507812 199.386719 52.796875 C 198.441406 53.390625 196.949219 53.644531 195.902344 52.914062 Z M 200.804688 56.804688 C 200.507812 57.113281 200.367188 57.183594 200.078125 57.238281 C 199.703125 57.308594 199.265625 57.207031 199.042969 56.859375 C 198.855469 56.5625 198.902344 56.214844 199.082031 55.953125 C 199.417969 55.460938 200.484375 55.152344 200.996094 55.746094 C 201.203125 55.984375 201.109375 56.523438 200.800781 56.804688 Z M 205.527344 54.308594 C 204.886719 54.519531 204.019531 54.503906 203.4375 54.046875 C 202.792969 53.539062 202.953125 52.785156 203.464844 52.3125 C 204.003906 51.8125 204.851562 51.476562 205.652344 51.617188 C 206.148438 51.707031 206.46875 52.007812 206.71875 52.460938 C 206.796875 52.582031 206.847656 52.730469 206.863281 52.910156 C 206.914062 53.597656 206.125 54.113281 205.53125 54.308594 Z M 205.527344 54.308594 " fill-opacity="1" fill-rule="nonzero"/><path fill="#2b7151" d="M 182.8125 49.132812 C 180.433594 50.925781 178.085938 52.730469 175.800781 54.585938 C 173.878906 56.148438 172.207031 57.878906 170.546875 59.632812 C 174 59.644531 177.652344 59.820312 181.523438 60.144531 C 181.613281 59.496094 181.683594 58.886719 181.761719 58.429688 C 182 57.085938 182.1875 55.726562 182.34375 54.367188 C 182.539062 52.671875 182.484375 50.84375 182.804688 49.136719 Z M 182.8125 49.132812 " fill-opacity="1" fill-rule="nonzero"/><path fill="#789b4a" d="M 189.292969 41.839844 C 189.449219 41.6875 189.601562 41.527344 189.757812 41.367188 C 189.820312 41.300781 189.886719 41.238281 189.953125 41.171875 C 190.585938 40.496094 191.226562 39.863281 191.890625 39.269531 C 192.628906 38.613281 193.40625 38.015625 194.253906 37.476562 C 186.15625 37.238281 178.203125 37.992188 170.074219 39.332031 C 156.769531 41.515625 145.066406 47.78125 136.300781 54.46875 C 135.691406 54.933594 135.097656 55.402344 134.511719 55.871094 C 126.996094 61.929688 120.921875 68.335938 116.867188 70.65625 C 107.90625 75.828125 98.730469 77.410156 94.207031 78.148438 C 94.207031 78.148438 91.691406 78.480469 90.820312 78.746094 C 90.011719 78.996094 89.070312 79.660156 90.179688 80.085938 C 91.101562 80.441406 92.617188 80.8125 100.296875 80.300781 C 104.015625 80.050781 107.710938 79.445312 112.710938 78.085938 C 123.605469 74.496094 127.386719 73.261719 140.773438 65.878906 C 148.667969 61.632812 157.628906 59.808594 168.632812 59.65625 C 172.4375 55.253906 177.148438 51.683594 181.929688 48.054688 C 184.503906 46.105469 187.027344 44.144531 189.292969 41.851562 Z M 189.292969 41.839844 " fill-opacity="1" fill-rule="nonzero"/><path fill="#ce7b29" d="M 214.832031 24.71875 C 212.039062 24.097656 209.363281 23.601562 206.777344 23.210938 C 209.84375 26.1875 212.53125 29.398438 215.394531 32.480469 C 216.859375 34.058594 218.410156 35.5625 219.957031 37.066406 C 219.304688 34.65625 219.066406 32.175781 218.058594 29.824219 C 217.269531 28 216.066406 26.355469 214.839844 24.71875 Z M 214.832031 24.71875 " fill-opacity="1" fill-rule="nonzero"/><path fill="#d69929" d="M 225.324219 27.457031 C 222.453125 26.605469 219.738281 25.875 217.121094 25.253906 C 217.933594 26.492188 218.652344 27.757812 219.210938 29.015625 C 220.601562 32.195312 220.886719 35.625 221.824219 38.886719 C 231.460938 42.269531 241.496094 47.554688 251.824219 55.542969 C 258.453125 60.734375 263.234375 64.855469 267.128906 68.117188 C 266.761719 66.59375 250.878906 34.917969 225.316406 27.449219 Z M 233.414062 37.203125 C 233.09375 37.703125 232.484375 37.925781 231.859375 37.96875 C 231.152344 38.007812 230.367188 37.820312 229.730469 37.476562 C 228.816406 36.992188 228.039062 35.855469 228.792969 35.054688 C 229.515625 34.285156 230.964844 34.421875 231.925781 34.875 C 232.777344 35.28125 234 36.292969 233.40625 37.203125 Z M 233.414062 37.203125 " fill-opacity="1" fill-rule="nonzero"/><g clip-path="url(#b89f0bf64a)"><path fill="#ce7b29" d="M 204.4375 22.886719 C 189.90625 21.097656 180.902344 18.808594 161.828125 23.605469 C 142.945312 28.355469 138.929688 32.367188 123.710938 44.707031 C 120.253906 47.507812 114.476562 50.722656 111.246094 54.21875 C 114.703125 53.300781 118.148438 52.339844 121.734375 51.789062 C 126.328125 51.078125 131.054688 51.128906 135.703125 50.8125 C 144.535156 44.121094 156.3125 37.851562 169.703125 35.660156 C 177.890625 34.3125 185.890625 33.566406 194.039062 33.804688 C 194.941406 33.828125 195.847656 33.871094 196.75 33.917969 C 203.972656 34.328125 211.320312 35.558594 218.925781 37.925781 C 218.375 37.363281 217.816406 36.808594 217.246094 36.261719 C 212.859375 32.0625 209.039062 27.132812 204.4375 22.886719 Z M 190.824219 28.746094 C 190.203125 29.457031 189.472656 29.789062 187.941406 29.972656 C 187.53125 30.019531 187.128906 30.007812 186.769531 29.9375 C 185.464844 29.683594 183.984375 28.453125 185.226562 27.460938 C 186.277344 26.621094 188.203125 25.917969 189.714844 26.113281 C 191.210938 26.308594 191.621094 27.839844 190.824219 28.746094 Z M 196.625 25.761719 C 196.933594 26.011719 197.09375 26.414062 196.933594 26.746094 C 196.785156 27.042969 196.679688 27.144531 196.121094 27.261719 C 195.734375 27.300781 195.585938 27.261719 195.332031 27.203125 C 194.898438 27.09375 194.609375 26.75 194.609375 26.371094 C 194.601562 25.53125 195.9375 25.199219 196.628906 25.769531 Z M 202.871094 28.226562 C 202.265625 28.492188 201.582031 28.550781 200.914062 28.480469 C 200.175781 28.402344 199.5 27.902344 199.679688 27.207031 C 199.851562 26.539062 200.710938 26.285156 201.421875 26.253906 C 202.121094 26.21875 203.042969 26.402344 203.390625 27.019531 C 203.683594 27.539062 203.355469 28.035156 202.871094 28.226562 Z M 202.871094 28.226562 " fill-opacity="1" fill-rule="nonzero"/></g><path fill="#cb998d" d="M 109.921875 55.925781 C 109.796875 56.125 109.71875 56.355469 109.570312 56.527344 C 106.148438 60.425781 94.980469 69.082031 91.078125 75.125 C 92 74.957031 92.875 74.839844 92.875 74.839844 C 92.296875 74.898438 108.019531 72.730469 116.796875 66.820312 C 120.6875 64.214844 126.332031 58.273438 133.898438 52.210938 C 130.003906 52.441406 126.046875 52.449219 122.199219 53.027344 C 117.992188 53.660156 113.992188 54.875 109.929688 55.925781 Z M 113.890625 60.886719 C 113.523438 61.347656 112.796875 61.566406 112.199219 61.65625 C 111.542969 61.75 110.804688 61.417969 110.742188 60.691406 C 110.675781 59.992188 111.339844 59.542969 111.945312 59.339844 C 112.53125 59.144531 113.386719 59.105469 113.878906 59.632812 C 114.292969 60.074219 114.199219 60.472656 113.890625 60.886719 Z M 119.511719 57.136719 C 119.464844 57.464844 119.375 57.734375 118.9375 57.84375 C 118.699219 57.894531 118.46875 57.925781 118.230469 57.914062 C 117.828125 57.894531 117.476562 57.613281 117.371094 57.238281 C 117.132812 56.410156 118.214844 55.804688 118.972656 56.226562 C 119.308594 56.410156 119.558594 56.777344 119.511719 57.136719 Z M 119.511719 57.136719 " fill-opacity="1" fill-rule="nonzero"/><path fill="#2b7151" d="M 94.40625 193.980469 C 101.707031 194.125 106.878906 195.046875 114.589844 199.394531 C 118.988281 201.875 123.738281 206.613281 130.324219 211.800781 C 140.582031 219.785156 150.554688 225.066406 160.132812 228.441406 C 160.132812 228.429688 160.125 228.417969 160.121094 228.40625 C 160.136719 228.425781 160.148438 228.4375 160.167969 228.453125 C 160.640625 228.621094 161.109375 228.773438 161.578125 228.933594 C 162.058594 229.09375 162.535156 229.246094 163.015625 229.402344 C 170.570312 231.769531 177.871094 232.996094 185.046875 233.410156 C 186.113281 232.878906 187.058594 232.261719 187.917969 231.585938 C 188.628906 231.03125 189.304688 230.429688 189.957031 229.804688 C 190.183594 229.589844 190.402344 229.371094 190.628906 229.152344 C 191.042969 228.742188 191.453125 228.324219 191.875 227.898438 C 193.5625 226.179688 195.460938 224.679688 197.382812 223.222656 C 198.492188 220.175781 198.203125 216.46875 198.78125 213.261719 C 198.902344 212.601562 198.992188 211.695312 199.125 210.742188 C 192.007812 210.089844 184.152344 208.953125 175.351562 207.3125 C 152.042969 202.628906 140.074219 211.296875 121.582031 197.550781 C 116.800781 194.4375 112.121094 191.660156 105.566406 190.535156 C 94.078125 188.5625 89.792969 190.113281 89.75 191.910156 C 89.691406 194.359375 89.792969 193.910156 94.398438 193.980469 Z M 186.097656 218.089844 C 186.589844 218.433594 186.957031 218.984375 186.84375 219.554688 C 186.730469 220.128906 186.191406 220.421875 185.679688 220.671875 C 184.671875 221.167969 182.859375 222.003906 181.679688 221.289062 C 180.960938 220.855469 180.976562 220.441406 181.132812 219.847656 C 181.394531 219.132812 182.136719 218.492188 182.601562 218.203125 C 183.550781 217.609375 185.039062 217.355469 186.089844 218.085938 Z M 181.1875 214.195312 C 181.484375 213.886719 181.625 213.8125 181.914062 213.761719 C 182.289062 213.691406 182.726562 213.789062 182.949219 214.140625 C 183.136719 214.4375 183.089844 214.785156 182.910156 215.046875 C 182.574219 215.539062 181.507812 215.84375 180.996094 215.253906 C 180.789062 215.015625 180.882812 214.476562 181.191406 214.195312 Z M 176.464844 216.691406 C 177.105469 216.480469 177.972656 216.496094 178.550781 216.953125 C 179.199219 217.460938 179.039062 218.214844 178.527344 218.6875 C 177.988281 219.1875 177.140625 219.523438 176.339844 219.382812 C 175.84375 219.292969 175.523438 218.988281 175.273438 218.539062 C 175.195312 218.414062 175.140625 218.269531 175.128906 218.089844 C 175.078125 217.402344 175.867188 216.886719 176.460938 216.691406 Z M 176.464844 216.691406 " fill-opacity="1" fill-rule="nonzero"/><path fill="#2b7151" d="M 199.179688 221.867188 C 201.558594 220.074219 203.90625 218.269531 206.191406 216.414062 C 208.113281 214.851562 209.785156 213.121094 211.445312 211.367188 C 207.992188 211.355469 204.339844 211.179688 200.46875 210.851562 C 200.378906 211.503906 200.308594 212.113281 200.230469 212.570312 C 199.992188 213.914062 199.804688 215.269531 199.648438 216.632812 C 199.453125 218.328125 199.507812 220.15625 199.1875 221.863281 Z M 199.179688 221.867188 " fill-opacity="1" fill-rule="nonzero"/><path fill="#789b4a" d="M 192.699219 229.160156 C 192.542969 229.3125 192.390625 229.472656 192.234375 229.632812 C 192.167969 229.695312 192.105469 229.761719 192.039062 229.828125 C 191.40625 230.503906 190.765625 231.136719 190.101562 231.726562 C 189.363281 232.386719 188.585938 232.984375 187.738281 233.523438 C 195.835938 233.757812 203.789062 233.007812 211.917969 231.667969 C 225.222656 229.484375 236.925781 223.21875 245.691406 216.53125 C 246.300781 216.066406 246.894531 215.597656 247.480469 215.128906 C 254.996094 209.070312 261.066406 202.664062 265.125 200.339844 C 274.085938 195.171875 283.261719 193.589844 287.785156 192.851562 C 287.785156 192.851562 290.300781 192.519531 291.171875 192.253906 C 291.980469 192.003906 292.921875 191.339844 291.8125 190.914062 C 290.886719 190.558594 289.375 190.183594 281.695312 190.699219 C 277.976562 190.949219 274.28125 191.554688 269.28125 192.914062 C 258.386719 196.503906 254.605469 197.734375 241.21875 205.121094 C 233.324219 209.367188 224.363281 211.191406 213.359375 211.34375 C 209.554688 215.746094 204.84375 219.316406 200.0625 222.945312 C 197.488281 224.894531 194.964844 226.855469 192.699219 229.148438 Z M 192.699219 229.160156 " fill-opacity="1" fill-rule="nonzero"/><path fill="#ce7b29" d="M 167.160156 246.277344 C 169.953125 246.902344 172.628906 247.398438 175.214844 247.789062 C 172.148438 244.808594 169.460938 241.601562 166.597656 238.519531 C 165.132812 236.941406 163.582031 235.4375 162.035156 233.929688 C 162.6875 236.339844 162.925781 238.824219 163.933594 241.175781 C 164.722656 243 165.925781 244.644531 167.152344 246.277344 Z M 167.160156 246.277344 " fill-opacity="1" fill-rule="nonzero"/><path fill="#d69929" d="M 156.667969 243.542969 C 159.539062 244.394531 162.253906 245.125 164.871094 245.746094 C 164.058594 244.507812 163.339844 243.242188 162.78125 241.984375 C 161.390625 238.804688 161.105469 235.375 160.167969 232.113281 C 150.53125 228.730469 140.496094 223.445312 130.167969 215.453125 C 123.539062 210.265625 118.757812 206.144531 114.863281 202.882812 C 115.230469 204.402344 131.113281 236.082031 156.671875 243.550781 Z M 148.578125 233.796875 C 148.898438 233.296875 149.507812 233.074219 150.132812 233.03125 C 150.835938 232.988281 151.625 233.179688 152.261719 233.523438 C 153.175781 234.007812 153.953125 235.144531 153.199219 235.945312 C 152.476562 236.714844 151.027344 236.578125 150.066406 236.121094 C 149.210938 235.71875 147.992188 234.707031 148.585938 233.796875 Z M 148.578125 233.796875 " fill-opacity="1" fill-rule="nonzero"/><g clip-path="url(#d65cfeab97)"><path fill="#ce7b29" d="M 177.554688 248.113281 C 192.085938 249.902344 201.089844 252.1875 220.164062 247.390625 C 239.046875 242.644531 243.0625 238.632812 258.28125 226.292969 C 261.738281 223.492188 267.515625 220.273438 270.746094 216.78125 C 267.289062 217.699219 263.84375 218.660156 260.253906 219.210938 C 255.664062 219.921875 250.9375 219.871094 246.289062 220.1875 C 237.457031 226.878906 225.679688 233.148438 212.289062 235.339844 C 204.101562 236.683594 196.101562 237.429688 187.953125 237.195312 C 187.050781 237.171875 186.144531 237.128906 185.242188 237.082031 C 178.019531 236.671875 170.671875 235.441406 163.066406 233.074219 C 163.617188 233.636719 164.175781 234.191406 164.746094 234.738281 C 169.132812 238.9375 172.953125 243.867188 177.554688 248.113281 Z M 191.167969 242.253906 C 191.789062 241.542969 192.519531 241.210938 194.050781 241.027344 C 194.460938 240.980469 194.863281 240.992188 195.222656 241.0625 C 196.527344 241.316406 198.003906 242.546875 196.765625 243.535156 C 195.714844 244.378906 193.789062 245.082031 192.277344 244.886719 C 190.78125 244.691406 190.371094 243.15625 191.167969 242.253906 Z M 185.367188 245.238281 C 185.058594 244.988281 184.898438 244.585938 185.058594 244.253906 C 185.207031 243.957031 185.3125 243.855469 185.871094 243.738281 C 186.257812 243.695312 186.40625 243.738281 186.660156 243.796875 C 187.09375 243.902344 187.382812 244.246094 187.382812 244.625 C 187.390625 245.46875 186.054688 245.800781 185.359375 245.230469 Z M 179.121094 242.773438 C 179.726562 242.507812 180.410156 242.449219 181.078125 242.519531 C 181.816406 242.59375 182.492188 243.097656 182.3125 243.792969 C 182.140625 244.460938 181.28125 244.714844 180.570312 244.746094 C 179.871094 244.78125 178.949219 244.597656 178.601562 243.980469 C 178.308594 243.460938 178.636719 242.960938 179.121094 242.773438 Z M 179.121094 242.773438 " fill-opacity="1" fill-rule="nonzero"/></g><path fill="#cb998d" d="M 272.070312 215.074219 C 272.195312 214.875 272.273438 214.644531 272.417969 214.472656 C 275.84375 210.574219 287.007812 201.917969 290.914062 195.875 C 289.992188 196.042969 289.113281 196.160156 289.113281 196.160156 C 289.695312 196.101562 273.972656 198.269531 265.195312 204.179688 C 261.304688 206.785156 255.660156 212.726562 248.089844 218.789062 C 251.988281 218.558594 255.945312 218.550781 259.792969 217.972656 C 264 217.339844 268 216.125 272.0625 215.074219 Z M 268.101562 210.113281 C 268.46875 209.652344 269.195312 209.433594 269.792969 209.34375 C 270.449219 209.25 271.1875 209.582031 271.25 210.308594 C 271.316406 211.007812 270.652344 211.457031 270.046875 211.660156 C 269.460938 211.855469 268.605469 211.894531 268.113281 211.367188 C 267.699219 210.925781 267.792969 210.527344 268.101562 210.113281 Z M 262.480469 213.863281 C 262.527344 213.535156 262.617188 213.261719 263.054688 213.15625 C 263.292969 213.105469 263.523438 213.074219 263.761719 213.085938 C 264.164062 213.105469 264.515625 213.386719 264.621094 213.761719 C 264.859375 214.589844 263.777344 215.195312 263.019531 214.773438 C 262.679688 214.589844 262.433594 214.222656 262.480469 213.863281 Z M 262.480469 213.863281 " fill-opacity="1" fill-rule="nonzero"/></svg>