<?xml version="1.0" encoding="UTF-8"?>
<svg id="Layer_1" data-name="Layer 1" xmlns="http://www.w3.org/2000/svg" viewBox="0 0 392.18 254.09">
  <defs>
    <style>
      .cls-1 {
        fill: #fff;
      }
    </style>
  </defs>
  <path class="cls-1" d="M313.19,89c8.06,5.26,15.95,9.95,27,11.85,19.37,3.33,26.6.71,26.67-2.32.1-4.14-.07-3.38-7.84-3.5h-.01c-12.31-.24-21.03-1.8-34.03-9.14-7.42-4.19-15.43-12.19-26.53-20.95-17.3-13.48-34.11-22.4-50.26-28.1,0,.02.01.04.02.06l-.08-.08c-.8-.28-1.59-.54-2.38-.81-.81-.27-1.61-.53-2.42-.79-12.74-4-25.05-6.07-37.15-6.77-1.8.9-3.39,1.94-4.84,3.08-1.2.94-2.34,1.95-3.44,3.01-.38.36-.75.73-1.13,1.1-.7.69-1.39,1.4-2.1,2.12-2.85,2.9-6.05,5.43-9.29,7.89-1.87,5.15-1.38,11.41-2.36,16.82-.2,1.12-.35,2.65-.58,4.26,12,1.1,25.25,3.02,40.09,5.79,39.3,7.91,59.48-6.73,90.66,16.48ZM204.42,54.33h-.01c-.83-.59-1.45-1.52-1.26-2.48.19-.97,1.1-1.47,1.96-1.89,1.7-.84,4.76-2.25,6.75-1.04,1.21.73,1.18,1.43.92,2.43-.44,1.21-1.69,2.29-2.48,2.78-1.6,1-4.11,1.43-5.88.2ZM212.69,60.9c-.5.52-.74.64-1.23.73-.63.12-1.37-.05-1.74-.64-.32-.5-.24-1.09.06-1.53.57-.83,2.37-1.35,3.23-.35.35.4.19,1.31-.33,1.79h.01ZM220.66,56.68h0c-1.08.36-2.54.33-3.52-.44-1.09-.86-.82-2.13.04-2.93.91-.84,2.34-1.41,3.69-1.17.84.15,1.38.66,1.8,1.42.13.21.22.46.24.76.09,1.16-1.24,2.03-2.24,2.36Z"/>
  <path class="cls-1" d="M161.67,65.67c5.82.02,11.98.32,18.51.87.15-1.1.27-2.13.4-2.9.4-2.27.72-4.56.98-6.86.33-2.86.24-5.95.78-8.83h.01c-4.01,3.02-7.97,6.07-11.82,9.2-3.24,2.64-6.06,5.56-8.86,8.52Z"/>
  <path class="cls-1" d="M26.16,100.21c1.56.6,4.11,1.23,17.06.36,6.27-.42,12.5-1.44,20.93-3.74,18.37-6.06,24.75-8.14,47.32-20.61,13.31-7.17,28.42-10.25,46.97-10.51,6.42-7.43,14.36-13.46,22.42-19.59,4.34-3.29,8.6-6.6,12.42-10.47v-.02c.26-.26.52-.53.78-.8.11-.11.22-.22.33-.33,1.07-1.14,2.15-2.21,3.27-3.21,1.24-1.11,2.55-2.12,3.98-3.03-13.65-.4-27.06.87-40.77,3.13-22.43,3.69-42.16,14.27-56.94,25.56-1.03.79-2.03,1.58-3.02,2.37-12.67,10.23-22.91,21.05-29.75,24.97-15.11,8.73-30.58,11.4-38.21,12.65,0,0-4.24.56-5.71,1.01-1.36.42-2.95,1.54-1.08,2.26Z"/>
  <path class="cls-1" d="M237.29,19.82c2.47,2.67,5.08,5.21,7.69,7.75-1.1-4.07-1.5-8.26-3.2-12.23-1.33-3.08-3.36-5.86-5.43-8.62h-.01c-4.71-1.05-9.22-1.89-13.58-2.55,5.17,5.03,9.7,10.45,14.53,15.65Z"/>
  <path class="cls-1" d="M243.72,13.97c2.35,5.37,2.83,11.16,4.41,16.67,16.25,5.71,33.17,14.64,50.58,28.13,11.18,8.76,19.24,15.72,25.81,21.23-.62-2.57-27.4-56.06-70.5-68.67h.01c-4.84-1.43-9.42-2.66-13.83-3.71,1.37,2.09,2.58,4.23,3.52,6.35ZM259.88,24.17c1.22-1.3,3.66-1.07,5.28-.3,1.44.68,3.5,2.39,2.5,3.93h.01c-.54.84-1.57,1.22-2.62,1.29-1.19.07-2.52-.25-3.59-.83-1.54-.82-2.85-2.74-1.58-4.09Z"/>
  <path class="cls-1" d="M102.92,50.78c14.89-11.3,34.75-21.89,57.33-25.59,13.8-2.27,27.29-3.53,41.03-3.13,1.52.04,3.05.11,4.57.19,12.18.69,24.57,2.77,37.39,6.77-.93-.95-1.87-1.89-2.83-2.81-7.4-7.09-13.84-15.42-21.6-22.59-24.5-3.02-39.68-6.88-71.84,1.22-31.84,8.02-38.61,14.79-64.27,35.63-5.83,4.73-15.57,10.16-21.02,16.06,5.83-1.55,11.64-3.17,17.69-4.1,7.74-1.2,15.71-1.12,23.55-1.65ZM210.79,10.92c.29-1.13,1.74-1.56,2.94-1.61,1.18-.06,2.73.25,3.32,1.29.49.88-.06,1.72-.88,2.04-1.02.45-2.17.55-3.3.43-1.24-.13-2.38-.98-2.08-2.15ZM205.65,8.49c.51.42.78,1.09.51,1.65-.25.5-.43.67-1.37.87-.65.07-.9,0-1.33-.1-.73-.18-1.22-.76-1.22-1.4,0-1.42,2.24-1.98,3.41-1.02ZM186.42,11.35c1.77-1.42,5.02-2.61,7.57-2.28,2.52.33,3.21,2.92,1.87,4.45-1.05,1.2-2.28,1.76-4.86,2.07-.69.08-1.37.06-1.98-.06-2.2-.43-4.69-2.51-2.6-4.18Z"/>
  <path class="cls-1" d="M71.04,77.81c6.56-4.4,16.08-14.43,28.84-24.67-6.57.39-13.24.4-19.73,1.38-7.09,1.07-13.84,3.12-20.69,4.89h-.01c-.21.34-.34.73-.59,1.02-5.77,6.58-24.6,21.2-31.18,31.4,1.55-.28,3.03-.48,3.03-.48-.98.1,25.53-3.56,40.33-13.54ZM74.71,59.92c.57.31.99.93.91,1.54-.08.55-.23,1.01-.97,1.19-.4.09-.79.14-1.19.12-.68-.03-1.27-.51-1.45-1.14-.4-1.4,1.42-2.42,2.7-1.71ZM62.86,65.18c.99-.33,2.43-.4,3.26.49.7.75.54,1.42.02,2.12-.62.78-1.84,1.15-2.85,1.3-1.11.16-2.35-.4-2.46-1.63-.11-1.18,1.01-1.94,2.03-2.28Z"/>
  <path class="cls-1" d="M39.71,181.96c1.42-6.65,2.55-10.5-2.51-10.86-5.06-.35-11.07-.57-14.05-.46-2.98.11-4.22.55-4.49,5.34-.27,4.79,3.19,4.52,6.56,4.79,3.37.27,6.27-.41,5.71,2.32s-5,9.03-9.52,9.3c-4.52.27-10.56-4.35-10.47-20.49s.09-20.76,4.7-30.87,10.82-6.03,14.81-.18c3.99,5.85,6.5,8.15,10.17,5.94s3.85-5.94,1.01-10.46c-2.84-4.52-8.07-10.64-13.75-11.89s-11.41-1.22-17.19,3.74C10.69,128.18-.12,137.04,0,164c.12,26.96.76,39.73,17.77,40.74,17,1.01,20.52-16.13,21.94-22.78Z"/>
  <path class="cls-1" d="M93.26,192.83c.27-16.32-2.04-48.16-8.07-60.94h-.01c-6.03-12.77-18.27-9.05-23.06-1.51-4.79,7.54-7.36,29.36-7.36,29.36,0,0-2.66,23.95-3.02,35.48-.35,11.53,2.68,10.51,4.24,10.65,1.56.14,7.74,1.15,7.38-7.81-.35-8.96,1.6-22.71,2.04-26.34s6.3-2.57,10.67-2.5,4.41,1.97,4.41,5.07.44,14.9.62,20.93c.18,6.03,1.6,9.67,5.68,10.47,4.08.8,6.21,3.46,6.48-12.86ZM74.53,164.8h0c-4.35.09-8.52,1.24-7.1-9.4,0,0,1.51-12.15,4.17-18.54,2.66-6.39,3.64-.09,4.52,3.28.89,3.37,3.28,18.27,3.37,21.47.09,3.19-.62,3.1-4.97,3.19Z"/>
  <path class="cls-1" d="M115.43,127.99c-8.87,2.22-7.98,10.2-7.98,14.64s-.27,28.83-.27,28.83c0,0-.44,6.48-.71,19.51-.27,13.04,2.93,13.39,6.3,13.04,3.37-.35,3.28-9.14,3.46-15.43.18-6.3,1.88-4.92,3.37-3.37,1.49,1.55,7.01,7.18,13.37,13.03,6.36,5.85,8.89-.88,6.67-2.65-2.22-1.77-9.49-10.82-13.48-14.81h0c-3.99-4,.18-1.96,7.98-9.86,7.81-7.89,12.68-19.69,5.06-32.29-7.63-12.6-14.9-12.86-23.77-10.64ZM129.44,157.8c-3.99,7.54-5.48,8.55-7.98,10.2-2.5,1.65-3.81,2.84-3.64-2.57.18-5.41.43-9.22.43-9.22,0,0,.11-12.24.46-15.26.35-3.02,3.02-7.63,8.69-4.79,5.68,2.84,6.03,14.1,2.04,21.64Z"/>
  <path class="cls-1" d="M169.27,201.61c10.55.53,21.55-5.85,22.88-23.15,1.33-17.3-4-14.9-10.56-15.17s-7.36.71-7.89,5.59c-.53,4.88,2.31,4.79,6.25,5.01,3.94.22,1.91,10.78-5.45,13.88-7.36,3.1-9.31-1.24-11.35-11-2.04-9.76,1.5-26.7,7.18-34.24s13.58,1.15,16.98,2.77c3.4,1.62,9.54-2.85,1.65-10.39-7.89-7.54-20.05-9.4-28.65,3.64-8.6,13.04-7.18,33.35-7.18,33.35,0,14.72,5.58,29.18,16.14,29.71Z"/>
  <path class="cls-1" d="M216.92,197.53c.48-7.8.74-20.04.65-23.06s-.35-5.5,5.32-5.23c5.67.27,10.38-.35,10.47,4.35.09,4.7.97,22.36,1.11,26.35.14,3.99,1.63,5.95,7.36,5.94,5.73,0,4.15-11.33,3.96-14.72,0,0-1.25-29.99-4.27-45.43-3.02-15.43-9.14-21.82-18.27-21.55-9.14.27-16.11,13.58-17.37,37.97-1.26,24.39-4.01,43.37.87,43.99h0c4.88.62,9.69-.81,10.17-8.61ZM226.44,137.84c2.57,5.59,4.26,18.54,4.26,18.54,0,0,.18,1.86.44,5.14.27,3.28-.44,3.1-6.48,3.19-6.03.09-5.98-.66-6.03-3.02-.05-2.37,1.15-13.57,2.84-20.39,1.69-6.83,2.39-9.05,4.97-3.46Z"/>
  <path class="cls-1" d="M270.92,127.01c-10.73,1.24-12.24,8.16-12.51,13.39-.27,5.23-.71,35.39-.71,35.39,0,0-.27,22.26.09,25.55.35,3.28,3.9,3.1,6.92,2.66s2.66-8.43,2.57-13.75c-.09-5.32.18-6.56,1.86-4.97,1.69,1.6,6.03,6.65,8.6,9.85,2.57,3.19,6.12,6.92,10.02,3.55,3.9-3.37,0-5.14-4.26-10.11-4.26-4.97-12.86-9.22-5.23-12.51h.01c7.63-3.27,13.66-11.88,14.99-25.54,1.33-13.66-11.62-24.75-22.35-23.51ZM281.65,155.84c-3.81,9.58-8.29,11.54-10.06,12.67-1.77,1.13-2.89,1.34-2.89-6.37,0,0,.71-14.9.89-19.34.18-4.44,2.21-8.9,7.45-7.69,5.23,1.21,8.43,11.15,4.61,20.73Z"/>
  <path class="cls-1" d="M311.46,203.57c2.48-1.95,2.22-16.5,2.95-19.34.73-2.84,4.68,3.11,10.45,9.49,5.77,6.39,8.16,5.94,10.02,4.97,1.86-.98,1.95-3.19-.09-5.94-2.04-2.75-6.39-7.18-10.73-12.24-4.35-5.06,3.81-2.31,12.77-16.68h0c8.96-14.37,1.86-24.66-5.41-32.02-7.27-7.36-13.66-5.23-20.69-.37-7.03,4.86-5.48,19.53-5.48,19.53,0,0-.18,11.71-.35,19.78-.18,8.07-.27,25.1-.18,29.27.09,4.17,4.26,5.5,6.74,3.55ZM315.96,156.2c.78-10.97,1-18.1,3.54-20.24,2.54-2.14,9.61-2.38,10.32,10.65.71,13.04-8.07,18.8-8.07,18.8h0c-6.3,5.24-6.57,1.76-5.79-9.21Z"/>
  <path class="cls-1" d="M392.18,167.44c0-18.91-4.52-43.96-22.53-40.94h0c-18.01,3.03-18.45,26.66-18.45,26.66,0,0-1.6,9.74-.89,28.84.71,19.1,9.58,26.47,22,23.83,12.42-2.65,19.87-19.48,19.87-38.39ZM381,175.76c-4.44,17.02-9.31,27.06-14.24,20.43-4.92-6.63-.84-38.96-.84-38.96,0,0,2-18.68,7.92-18.51,5.92.17,11.59,20.02,7.16,37.04h0Z"/>
  <path class="cls-1" d="M11.42,240.92c2.06-.97,3.19-2.73,3.19-4.83,0-3.17-2.66-5.96-7.42-5.96H.07v23.3h8.06c5.22,0,8.15-2.96,8.15-6.69,0-2.83-1.73-4.96-4.86-5.82ZM3,232.53h4.12c2.93,0,4.56,1.43,4.56,3.69s-1.63,3.73-4.56,3.73H3v-7.42ZM8.06,250.96H3v-8.62h5.06c3.43,0,5.26,1.59,5.26,4.29s-1.87,4.33-5.26,4.33Z"/>
  <path class="cls-1" d="M31.84,229.64c-6.45,0-11.71,5.09-11.71,12.14s5.22,12.15,11.71,12.15,11.75-5.1,11.75-12.15-5.3-12.14-11.75-12.14ZM31.85,251.3c-4.82,0-8.78-3.93-8.78-9.52s3.93-9.52,8.78-9.52,8.78,3.93,8.78,9.52-3.96,9.52-8.78,9.52Z"/>
  <polygon class="cls-1" points="63.68 230.13 45.85 230.13 45.85 232.73 53.3 232.73 53.3 253.43 56.23 253.43 56.23 232.73 63.68 232.73 63.68 230.13"/>
  <path class="cls-1" d="M73.3,229.47l-10.55,23.96h3.06l1.93-4.69h11.38l1.93,4.69h3.06l-10.55-23.96h-.26ZM68.77,246.3l4.66-11.31,4.69,11.31h-9.35Z"/>
  <polygon class="cls-1" points="103.97 246.87 88.76 229.47 88.46 229.47 88.46 253.43 91.39 253.43 91.39 236.79 106.63 254.09 106.9 254.09 106.9 230.13 103.97 230.13 103.97 246.87"/>
  <rect class="cls-1" x="113.77" y="230.13" width="2.93" height="23.29"/>
  <path class="cls-1" d="M134.37,251.31c-4.89,0-8.75-3.93-8.75-9.52s3.86-9.52,8.72-9.52c2.42,0,4.82,1,6.75,2.73l1.46-2.03c-2.23-2.23-5.05-3.33-8.15-3.33-6.59,0-11.71,5.09-11.71,12.14v.02c0,7.06,5.12,12.15,11.71,12.15,3.66,0,6.38-1.57,8.58-3.73l-1.46-2.2c-1.56,1.56-3.86,3.29-7.15,3.29Z"/>
  <path class="cls-1" d="M168.46,243.51h7.15v4.76c-1.79,1.77-3.79,3.03-6.55,3.03-4.79,0-8.68-3.93-8.68-9.52s3.86-9.52,8.72-9.52c2.42,0,4.82,1,6.75,2.73l1.46-2.03c-2.23-2.23-5.05-3.33-8.15-3.33-6.59,0-11.71,5.09-11.71,12.11s5.19,12.18,11.58,12.18c3.96,0,7.19-1.93,9.45-4.86v-8.08h-10.02v2.53Z"/>
  <path class="cls-1" d="M192.52,229.47l-10.55,23.96h3.06l1.93-4.69h11.38l1.93,4.69h3.06l-10.55-23.96h-.26ZM187.99,246.3l4.66-11.31,4.69,11.31h-9.35Z"/>
  <path class="cls-1" d="M222.92,237.58c0-4.09-3.16-7.45-8.62-7.45h-6.62v23.28h2.93v-8.39h3.69c.26,0,.56,0,.83-.03l5.52,8.42h3.33l-5.99-8.98c3.17-1.16,4.93-3.79,4.93-6.85ZM214.24,242.58h-3.63v-9.98h3.63c3.6,0,5.76,2.02,5.76,5.02s-2.13,4.96-5.76,4.96Z"/>
  <path class="cls-1" d="M234.86,230.13h-5.79v23.3h5.79c8.62,0,12.78-5.19,12.78-11.65s-4.16-11.65-12.78-11.65ZM234.83,250.83h-2.83v-18.1h2.83c6.99,0,9.88,4.03,9.88,9.05s-2.89,9.05-9.88,9.05Z"/>
  <polygon class="cls-1" points="256.09 243.55 266.57 243.55 266.57 240.95 256.09 240.95 256.09 232.73 267.9 232.73 267.9 230.13 253.16 230.13 253.17 230.15 253.17 253.44 268.24 253.44 268.24 250.84 256.09 250.84 256.09 243.55"/>
  <polygon class="cls-1" points="289.19 246.87 273.98 229.47 273.68 229.47 273.68 253.43 276.61 253.43 276.61 236.79 291.85 254.09 292.12 254.09 292.12 230.13 289.19 230.13 289.19 246.87"/>
  <path class="cls-1" d="M319.49,251.31c-4.89,0-8.75-3.93-8.75-9.52s3.86-9.52,8.72-9.52c2.42,0,4.82,1,6.75,2.73l1.46-2.03c-2.23-2.23-5.05-3.33-8.15-3.33-6.59,0-11.71,5.09-11.71,12.14v.02c0,7.06,5.12,12.15,11.71,12.15,3.66,0,6.38-1.57,8.58-3.73l-1.46-2.2c-1.56,1.56-3.86,3.29-7.15,3.29Z"/>
  <path class="cls-1" d="M341.79,229.47l-10.55,23.96h3.06l1.93-4.69h11.38l1.93,4.69h3.06l-10.55-23.96h-.26ZM337.25,246.3l4.66-11.31,4.69,11.31h-9.35Z"/>
  <polygon class="cls-1" points="356.94 230.14 356.94 253.43 359.87 253.43 359.87 243.55 369.72 243.55 369.72 240.95 359.87 240.95 359.87 232.73 371.68 232.73 371.68 230.13 356.94 230.13 356.94 230.14"/>
  <polygon class="cls-1" points="380.03 243.55 390.51 243.55 390.51 240.95 380.03 240.95 380.03 232.73 391.84 232.73 391.84 230.13 377.1 230.13 377.11 230.15 377.11 253.44 392.18 253.44 392.18 250.84 380.03 250.84 380.03 243.55"/>
</svg>