<svg xmlns="http://www.w3.org/2000/svg" xmlns:xlink="http://www.w3.org/1999/xlink" width="500" zoomAndPan="magnify" viewBox="0 0 375 374.999991" height="500" preserveAspectRatio="xMidYMid meet" version="1.0"><defs><filter x="0%" y="0%" width="100%" height="100%" id="682f1d9091"><feColorMatrix values="0 0 0 0 1 0 0 0 0 1 0 0 0 0 1 0 0 0 1 0" color-interpolation-filters="sRGB"/></filter><g/><mask id="ed75870fd3"><g filter="url(#682f1d9091)"><rect x="-37.5" width="450" fill="#000000" y="-37.499999" height="449.999989" fill-opacity="0.7"/></g></mask><clipPath id="7eb49699b0"><path d="M 0.472656 0.394531 L 354.527344 0.394531 L 354.527344 354.453125 L 0.472656 354.453125 Z M 0.472656 0.394531 " clip-rule="nonzero"/></clipPath><clipPath id="536b6a7a13"><path d="M 177.5 0.394531 C 79.730469 0.394531 0.472656 79.652344 0.472656 177.425781 C 0.472656 275.195312 79.730469 354.453125 177.5 354.453125 C 275.269531 354.453125 354.527344 275.195312 354.527344 177.425781 C 354.527344 79.652344 275.269531 0.394531 177.5 0.394531 Z M 177.5 0.394531 " clip-rule="nonzero"/></clipPath><clipPath id="cc7cbd2715"><rect x="0" width="355" y="0" height="355"/></clipPath><mask id="e7a047ce7f"><g filter="url(#682f1d9091)"><rect x="-37.5" width="450" fill="#000000" y="-37.499999" height="449.999989" fill-opacity="0.69"/></g></mask><clipPath id="1fdd7a6674"><path d="M 16.761719 15.6875 L 352.011719 15.6875 L 352.011719 350.9375 L 16.761719 350.9375 Z M 16.761719 15.6875 " clip-rule="nonzero"/></clipPath><clipPath id="2443e6ba4b"><path d="M 184.5 15.6875 C 91.859375 15.6875 16.761719 90.785156 16.761719 183.421875 C 16.761719 276.0625 91.859375 351.160156 184.5 351.160156 C 277.136719 351.160156 352.234375 276.0625 352.234375 183.421875 C 352.234375 90.785156 277.136719 15.6875 184.5 15.6875 Z M 184.5 15.6875 " clip-rule="nonzero"/></clipPath><clipPath id="ada9739327"><rect x="0" width="369" y="0" height="367"/></clipPath><clipPath id="b4fe54ec6f"><path d="M 82 45.613281 L 225 45.613281 L 225 90 L 82 90 Z M 82 45.613281 " clip-rule="nonzero"/></clipPath><clipPath id="ba0b60978d"><path d="M 34.09375 142 L 69 142 L 69 206 L 34.09375 206 Z M 34.09375 142 " clip-rule="nonzero"/></clipPath><clipPath id="13cec41ed8"><path d="M 307 144 L 340.84375 144 L 340.84375 208 L 307 208 Z M 307 144 " clip-rule="nonzero"/></clipPath><clipPath id="bc355edf98"><path d="M 34.09375 225 L 47 225 L 47 244 L 34.09375 244 Z M 34.09375 225 " clip-rule="nonzero"/></clipPath><clipPath id="77cdfe3930"><path d="M 49 225 L 69 225 L 69 244.363281 L 49 244.363281 Z M 49 225 " clip-rule="nonzero"/></clipPath><clipPath id="b17e1546b2"><path d="M 103 225 L 118 225 L 118 244.363281 L 103 244.363281 Z M 103 225 " clip-rule="nonzero"/></clipPath><clipPath id="3b977889f1"><path d="M 130 225 L 146 225 L 146 244.363281 L 130 244.363281 Z M 130 225 " clip-rule="nonzero"/></clipPath><clipPath id="6831a4acda"><path d="M 157 225 L 174 225 L 174 244.363281 L 157 244.363281 Z M 157 225 " clip-rule="nonzero"/></clipPath><clipPath id="350ddadc5b"><path d="M 248 225 L 263 225 L 263 244.363281 L 248 244.363281 Z M 248 225 " clip-rule="nonzero"/></clipPath><clipPath id="ae3aff8651"><path d="M 274 225 L 291 225 L 291 244.363281 L 274 244.363281 Z M 274 225 " clip-rule="nonzero"/></clipPath><clipPath id="b9f247a68e"><path d="M 328 225 L 340.84375 225 L 340.84375 244 L 328 244 Z M 328 225 " clip-rule="nonzero"/></clipPath><clipPath id="1deea20a4f"><path d="M 18.324219 212.617188 L 356.605469 212.617188 L 356.605469 264.519531 L 18.324219 264.519531 Z M 18.324219 212.617188 " clip-rule="nonzero"/></clipPath><clipPath id="2d52b124b0"><path d="M 39.523438 212.816406 L 335.476562 212.816406 C 347.074219 212.816406 356.476562 222.21875 356.476562 233.816406 L 356.476562 243.519531 C 356.476562 255.117188 347.074219 264.519531 335.476562 264.519531 L 39.523438 264.519531 C 27.925781 264.519531 18.523438 255.117188 18.523438 243.519531 L 18.523438 233.816406 C 18.523438 222.21875 27.925781 212.816406 39.523438 212.816406 Z M 39.523438 212.816406 " clip-rule="nonzero"/></clipPath><clipPath id="5a14dd0883"><path d="M 47.167969 229 L 59 229 L 59 246.511719 L 47.167969 246.511719 Z M 47.167969 229 " clip-rule="nonzero"/></clipPath><clipPath id="95af677550"><path d="M 61 229 L 79 229 L 79 246.511719 L 61 246.511719 Z M 61 229 " clip-rule="nonzero"/></clipPath><clipPath id="fe7996b771"><path d="M 80 229 L 93 229 L 93 246.511719 L 80 246.511719 Z M 80 229 " clip-rule="nonzero"/></clipPath><clipPath id="cf2642cb00"><path d="M 92 228 L 108 228 L 108 246.511719 L 92 246.511719 Z M 92 228 " clip-rule="nonzero"/></clipPath><clipPath id="2c3090f429"><path d="M 110 228 L 124 228 L 124 246.511719 L 110 246.511719 Z M 110 228 " clip-rule="nonzero"/></clipPath><clipPath id="b375e08705"><path d="M 128 229 L 131 229 L 131 246.511719 L 128 246.511719 Z M 128 229 " clip-rule="nonzero"/></clipPath><clipPath id="84697ef2e3"><path d="M 134 229 L 150 229 L 150 246.511719 L 134 246.511719 Z M 134 229 " clip-rule="nonzero"/></clipPath><clipPath id="1263abcea4"><path d="M 159 229 L 175 229 L 175 246.511719 L 159 246.511719 Z M 159 229 " clip-rule="nonzero"/></clipPath><clipPath id="3177548a51"><path d="M 177 228 L 193 228 L 193 246.511719 L 177 246.511719 Z M 177 228 " clip-rule="nonzero"/></clipPath><clipPath id="def0e7205c"><path d="M 195 229 L 208 229 L 208 246.511719 L 195 246.511719 Z M 195 229 " clip-rule="nonzero"/></clipPath><clipPath id="99a4e2f21a"><path d="M 210 229 L 225 229 L 225 246.511719 L 210 246.511719 Z M 210 229 " clip-rule="nonzero"/></clipPath><clipPath id="af84188415"><path d="M 228 229 L 239 229 L 239 246.511719 L 228 246.511719 Z M 228 229 " clip-rule="nonzero"/></clipPath><clipPath id="e918f9900e"><path d="M 242 228 L 257 228 L 257 246.511719 L 242 246.511719 Z M 242 228 " clip-rule="nonzero"/></clipPath><clipPath id="70b6d6e973"><path d="M 267 229 L 282 229 L 282 246.511719 L 267 246.511719 Z M 267 229 " clip-rule="nonzero"/></clipPath><clipPath id="3297d1dd2d"><path d="M 283 228 L 300 228 L 300 246.511719 L 283 246.511719 Z M 283 228 " clip-rule="nonzero"/></clipPath><clipPath id="808dadcd33"><path d="M 302 229 L 313 229 L 313 246.511719 L 302 246.511719 Z M 302 229 " clip-rule="nonzero"/></clipPath><clipPath id="b05bbc04f3"><path d="M 316 229 L 327.667969 229 L 327.667969 246.511719 L 316 246.511719 Z M 316 229 " clip-rule="nonzero"/></clipPath></defs><g mask="url(#ed75870fd3)"><g transform="matrix(1, 0, 0, 1, 10, 6)"><g clip-path="url(#cc7cbd2715)"><g clip-path="url(#7eb49699b0)"><g clip-path="url(#536b6a7a13)"><path fill="#ffffff" d="M 0.472656 0.394531 L 354.527344 0.394531 L 354.527344 354.453125 L 0.472656 354.453125 Z M 0.472656 0.394531 " fill-opacity="1" fill-rule="nonzero"/></g></g></g></g></g><g mask="url(#e7a047ce7f)"><g transform="matrix(1, 0, 0, 1, 3, 0)"><g clip-path="url(#ada9739327)"><g clip-path="url(#1fdd7a6674)"><g clip-path="url(#2443e6ba4b)"><path stroke-linecap="butt" transform="matrix(0.75, 0, 0, 0.75, 16.76258, 15.687093)" fill="none" stroke-linejoin="miter" d="M 223.649908 0.0005426 C 100.129067 0.0005426 -0.00114834 100.130758 -0.00114834 223.646391 C -0.00114834 347.167232 100.129067 447.297447 223.649908 447.297447 C 347.165541 447.297447 447.295756 347.167232 447.295756 223.646391 C 447.295756 100.130758 347.165541 0.0005426 223.649908 0.0005426 Z M 223.649908 0.0005426 " stroke="#294a44" stroke-width="8" stroke-opacity="1" stroke-miterlimit="4"/></g></g></g></g></g><path fill="#2b7151" d="M 314.773438 119.945312 C 305.15625 119.757812 298.339844 118.539062 288.183594 112.796875 C 282.386719 109.519531 276.125 103.261719 267.453125 96.410156 C 253.933594 85.863281 240.796875 78.886719 228.179688 74.429688 C 228.179688 74.445312 228.1875 74.460938 228.195312 74.476562 C 228.171875 74.453125 228.15625 74.4375 228.132812 74.414062 C 227.507812 74.195312 226.890625 73.992188 226.273438 73.78125 C 225.640625 73.570312 225.015625 73.363281 224.382812 73.160156 C 214.425781 70.03125 204.808594 68.414062 195.351562 67.867188 C 193.945312 68.570312 192.703125 69.382812 191.570312 70.273438 C 190.632812 71.011719 189.742188 71.800781 188.882812 72.628906 C 188.585938 72.910156 188.296875 73.199219 188 73.488281 C 187.453125 74.03125 186.914062 74.585938 186.359375 75.148438 C 184.132812 77.417969 181.628906 79.394531 179.097656 81.320312 C 177.636719 85.347656 178.019531 90.246094 177.253906 94.476562 C 177.097656 95.351562 176.980469 96.550781 176.800781 97.808594 C 186.179688 98.667969 196.53125 100.171875 208.128906 102.335938 C 238.835938 108.523438 254.605469 97.074219 278.96875 115.230469 C 285.269531 119.34375 291.433594 123.011719 300.070312 124.496094 C 315.203125 127.101562 320.855469 125.054688 320.910156 122.683594 C 320.988281 119.445312 320.855469 120.039062 314.78125 119.945312 Z M 193.96875 88.101562 C 193.320312 87.648438 192.835938 86.921875 192.984375 86.167969 C 193.132812 85.410156 193.84375 85.019531 194.515625 84.691406 C 195.84375 84.035156 198.234375 82.929688 199.789062 83.878906 C 200.734375 84.449219 200.710938 84.996094 200.507812 85.777344 C 200.164062 86.726562 199.1875 87.570312 198.570312 87.953125 C 197.320312 88.734375 195.359375 89.070312 193.976562 88.109375 Z M 200.4375 93.25 C 200.046875 93.65625 199.859375 93.75 199.476562 93.820312 C 198.984375 93.914062 198.40625 93.78125 198.117188 93.320312 C 197.867188 92.929688 197.929688 92.464844 198.164062 92.121094 C 198.609375 91.472656 200.015625 91.066406 200.6875 91.847656 C 200.960938 92.160156 200.835938 92.875 200.429688 93.25 Z M 206.660156 89.949219 C 205.816406 90.230469 204.675781 90.207031 203.910156 89.605469 C 203.054688 88.929688 203.265625 87.9375 203.941406 87.3125 C 204.652344 86.65625 205.769531 86.207031 206.824219 86.398438 C 207.480469 86.515625 207.902344 86.914062 208.230469 87.507812 C 208.332031 87.671875 208.402344 87.867188 208.417969 88.101562 C 208.488281 89.007812 207.449219 89.691406 206.667969 89.949219 Z M 206.660156 89.949219 " fill-opacity="1" fill-rule="nonzero"/><path fill="#2b7151" d="M 176.730469 83.109375 C 173.597656 85.480469 170.503906 87.867188 167.496094 90.316406 C 164.964844 92.378906 162.757812 94.664062 160.570312 96.980469 C 165.121094 96.996094 169.933594 97.230469 175.035156 97.660156 C 175.152344 96.800781 175.246094 95.996094 175.347656 95.390625 C 175.660156 93.617188 175.910156 91.824219 176.113281 90.027344 C 176.371094 87.789062 176.300781 85.371094 176.722656 83.117188 Z M 176.730469 83.109375 " fill-opacity="1" fill-rule="nonzero"/><path fill="#789b4a" d="M 185.273438 73.480469 C 185.476562 73.277344 185.679688 73.066406 185.882812 72.855469 C 185.96875 72.769531 186.054688 72.683594 186.140625 72.597656 C 186.976562 71.707031 187.820312 70.871094 188.695312 70.085938 C 189.664062 69.21875 190.6875 68.429688 191.804688 67.71875 C 181.136719 67.40625 170.660156 68.398438 159.945312 70.164062 C 142.417969 73.050781 127.003906 81.328125 115.453125 90.160156 C 114.648438 90.777344 113.867188 91.394531 113.09375 92.011719 C 103.191406 100.015625 95.191406 108.476562 89.847656 111.542969 C 78.039062 118.371094 65.949219 120.460938 59.988281 121.4375 C 59.988281 121.4375 56.675781 121.878906 55.527344 122.230469 C 54.464844 122.558594 53.222656 123.433594 54.683594 123.996094 C 55.902344 124.464844 57.894531 124.960938 68.011719 124.277344 C 72.914062 123.949219 77.78125 123.152344 84.367188 121.351562 C 98.722656 116.613281 103.707031 114.984375 121.34375 105.230469 C 131.746094 99.625 143.550781 97.214844 158.046875 97.011719 C 163.0625 91.199219 169.269531 86.484375 175.566406 81.6875 C 178.957031 79.113281 182.285156 76.523438 185.273438 73.496094 Z M 185.273438 73.480469 " fill-opacity="1" fill-rule="nonzero"/><path fill="#ce7b29" d="M 218.917969 50.867188 C 215.238281 50.046875 211.714844 49.390625 208.308594 48.875 C 212.347656 52.808594 215.886719 57.046875 219.660156 61.117188 C 221.589844 63.203125 223.632812 65.191406 225.671875 67.179688 C 224.8125 63.996094 224.5 60.714844 223.171875 57.613281 C 222.128906 55.203125 220.542969 53.027344 218.925781 50.867188 Z M 218.917969 50.867188 " fill-opacity="1" fill-rule="nonzero"/><path fill="#d69929" d="M 232.742188 54.484375 C 228.960938 53.355469 225.382812 52.394531 221.933594 51.574219 C 223.007812 53.207031 223.953125 54.882812 224.6875 56.539062 C 226.523438 60.742188 226.898438 65.269531 228.132812 69.578125 C 240.828125 74.046875 254.050781 81.03125 267.65625 91.582031 C 276.390625 98.433594 282.691406 103.878906 287.824219 108.1875 C 287.339844 106.179688 266.414062 64.339844 232.734375 54.476562 Z M 243.402344 67.359375 C 242.980469 68.015625 242.175781 68.3125 241.351562 68.367188 C 240.421875 68.421875 239.382812 68.171875 238.546875 67.71875 C 237.34375 67.074219 236.320312 65.574219 237.3125 64.519531 C 238.265625 63.5 240.171875 63.679688 241.4375 64.285156 C 242.566406 64.816406 244.175781 66.152344 243.394531 67.359375 Z M 243.402344 67.359375 " fill-opacity="1" fill-rule="nonzero"/><g clip-path="url(#b4fe54ec6f)"><path fill="#ce7b29" d="M 205.222656 48.445312 C 186.078125 46.082031 174.214844 43.0625 149.085938 49.398438 C 124.203125 55.671875 118.914062 60.96875 98.863281 77.269531 C 94.308594 80.96875 86.695312 85.214844 82.4375 89.832031 C 86.992188 88.617188 91.535156 87.351562 96.261719 86.625 C 102.308594 85.683594 108.539062 85.746094 114.664062 85.332031 C 126.300781 76.492188 141.816406 68.210938 159.460938 65.316406 C 170.246094 63.539062 180.785156 62.554688 191.523438 62.867188 C 192.710938 62.898438 193.90625 62.953125 195.09375 63.015625 C 204.613281 63.554688 214.292969 65.183594 224.3125 68.3125 C 223.585938 67.570312 222.851562 66.832031 222.097656 66.113281 C 216.316406 60.566406 211.285156 54.050781 205.222656 48.445312 Z M 187.289062 56.1875 C 186.46875 57.125 185.507812 57.566406 183.488281 57.808594 C 182.949219 57.871094 182.417969 57.855469 181.941406 57.761719 C 180.222656 57.421875 178.277344 55.796875 179.910156 54.492188 C 181.292969 53.378906 183.832031 52.449219 185.828125 52.707031 C 187.796875 52.964844 188.335938 54.992188 187.289062 56.1875 Z M 194.929688 52.246094 C 195.335938 52.574219 195.546875 53.105469 195.335938 53.542969 C 195.140625 53.933594 195 54.066406 194.265625 54.222656 C 193.757812 54.277344 193.5625 54.222656 193.226562 54.144531 C 192.65625 54.003906 192.273438 53.550781 192.273438 53.050781 C 192.265625 51.941406 194.023438 51.503906 194.9375 52.253906 Z M 203.15625 55.5 C 202.359375 55.851562 201.460938 55.929688 200.578125 55.835938 C 199.609375 55.734375 198.71875 55.070312 198.953125 54.152344 C 199.179688 53.269531 200.3125 52.933594 201.25 52.894531 C 202.171875 52.847656 203.382812 53.089844 203.847656 53.902344 C 204.230469 54.59375 203.800781 55.25 203.15625 55.5 Z M 203.15625 55.5 " fill-opacity="1" fill-rule="nonzero"/></g><path fill="#cb998d" d="M 80.695312 92.082031 C 80.53125 92.347656 80.429688 92.652344 80.234375 92.882812 C 75.726562 98.027344 61.011719 109.464844 55.871094 117.441406 C 57.082031 117.222656 58.238281 117.066406 58.238281 117.066406 C 57.472656 117.144531 78.1875 114.28125 89.753906 106.476562 C 94.878906 103.035156 102.316406 95.1875 112.289062 87.179688 C 107.15625 87.484375 101.941406 87.492188 96.871094 88.257812 C 91.332031 89.09375 86.054688 90.699219 80.703125 92.082031 Z M 85.921875 98.636719 C 85.4375 99.25 84.484375 99.539062 83.695312 99.65625 C 82.828125 99.78125 81.859375 99.34375 81.773438 98.378906 C 81.6875 97.457031 82.5625 96.863281 83.359375 96.597656 C 84.132812 96.339844 85.257812 96.285156 85.90625 96.980469 C 86.453125 97.566406 86.328125 98.089844 85.921875 98.636719 Z M 93.332031 93.6875 C 93.269531 94.117188 93.152344 94.476562 92.574219 94.617188 C 92.261719 94.6875 91.957031 94.726562 91.644531 94.710938 C 91.113281 94.6875 90.652344 94.3125 90.511719 93.820312 C 90.199219 92.722656 91.621094 91.925781 92.621094 92.480469 C 93.066406 92.722656 93.394531 93.210938 93.332031 93.6875 Z M 93.332031 93.6875 " fill-opacity="1" fill-rule="nonzero"/><g clip-path="url(#ba0b60978d)"><path fill="#004538" d="M 42.59375 145.875 C 42.59375 145.875 34.148438 152.804688 34.242188 173.894531 C 34.335938 194.980469 34.835938 204.96875 48.125 205.761719 C 61.410156 206.550781 64.160156 193.144531 65.269531 187.941406 C 66.378906 182.742188 67.261719 179.730469 63.308594 179.449219 C 59.355469 179.171875 54.660156 179 52.332031 179.085938 C 50.003906 179.171875 49.035156 179.519531 48.820312 183.265625 C 48.609375 187.011719 51.316406 186.800781 53.949219 187.011719 C 56.582031 187.222656 58.847656 186.691406 58.410156 188.824219 C 57.972656 190.960938 54.503906 195.890625 50.972656 196.101562 C 47.4375 196.3125 42.71875 192.699219 42.789062 180.074219 C 42.859375 167.449219 42.859375 163.835938 46.460938 155.925781 C 50.066406 148.019531 54.917969 151.210938 58.035156 155.785156 C 61.152344 160.363281 63.113281 162.160156 65.980469 160.433594 C 68.851562 158.703125 68.992188 155.785156 66.769531 152.25 C 64.550781 148.714844 60.464844 143.925781 56.027344 142.949219 C 51.589844 141.972656 47.109375 141.996094 42.59375 145.875 Z M 42.59375 145.875 " fill-opacity="1" fill-rule="nonzero"/></g><path fill="#004538" d="M 100.800781 148.777344 C 96.089844 138.789062 86.523438 141.699219 82.78125 147.597656 C 79.039062 153.492188 77.03125 170.5625 77.03125 170.5625 C 77.03125 170.5625 74.953125 189.296875 74.671875 198.3125 C 74.398438 207.332031 76.765625 206.535156 77.984375 206.644531 C 79.203125 206.753906 84.03125 207.542969 83.75 200.535156 C 83.476562 193.527344 85 182.773438 85.34375 179.933594 C 85.6875 177.09375 90.269531 177.921875 93.683594 177.976562 C 97.097656 178.03125 97.128906 179.519531 97.128906 181.941406 C 97.128906 184.367188 97.472656 193.597656 97.613281 198.3125 C 97.753906 203.03125 98.863281 205.878906 102.050781 206.503906 C 105.238281 207.128906 106.90625 209.210938 107.117188 196.445312 C 107.328125 183.679688 105.519531 158.773438 100.808594 148.777344 Z M 92.488281 174.519531 C 89.089844 174.589844 85.828125 175.488281 86.9375 167.167969 C 86.9375 167.167969 88.121094 157.664062 90.199219 152.664062 C 92.277344 147.667969 93.042969 152.59375 93.730469 155.230469 C 94.425781 157.867188 96.292969 169.519531 96.363281 172.023438 C 96.433594 174.519531 95.878906 174.449219 92.480469 174.519531 Z M 92.488281 174.519531 " fill-opacity="1" fill-rule="nonzero"/><path fill="#004538" d="M 132.824219 187.011719 C 129.707031 183.890625 132.964844 185.484375 139.058594 179.304688 C 145.160156 173.136719 148.96875 163.90625 143.011719 154.050781 C 137.050781 144.195312 131.371094 143.988281 124.4375 145.726562 C 117.507812 147.464844 118.203125 153.707031 118.203125 157.179688 C 118.203125 160.652344 117.992188 179.730469 117.992188 179.730469 C 117.992188 179.730469 117.648438 184.796875 117.4375 194.988281 C 117.226562 205.191406 119.726562 205.464844 122.359375 205.191406 C 124.992188 204.914062 124.921875 198.039062 125.0625 193.121094 C 125.203125 188.191406 126.535156 189.273438 127.699219 190.484375 C 128.863281 191.695312 133.175781 196.101562 138.144531 200.675781 C 143.113281 205.253906 145.089844 199.988281 143.355469 198.605469 C 141.621094 197.21875 135.941406 190.140625 132.824219 187.019531 Z M 129.152344 177.023438 C 127.199219 178.3125 126.175781 179.242188 126.308594 175.011719 C 126.449219 170.78125 126.644531 167.800781 126.644531 167.800781 C 126.644531 167.800781 126.730469 158.226562 127.003906 155.863281 C 127.277344 153.5 129.363281 149.894531 133.792969 152.117188 C 138.230469 154.339844 138.503906 163.144531 135.386719 169.042969 C 132.269531 174.941406 131.105469 175.730469 129.152344 177.023438 Z M 129.152344 177.023438 " fill-opacity="1" fill-rule="nonzero"/><path fill="#004538" d="M 153.898438 180.074219 C 153.898438 180.074219 152.789062 164.1875 159.507812 153.988281 C 166.230469 143.785156 175.730469 145.242188 181.894531 151.140625 C 188.0625 157.039062 183.261719 160.535156 180.605469 159.265625 C 177.949219 158 171.777344 151.203125 167.339844 157.101562 C 162.898438 162.996094 160.132812 176.25 161.726562 183.882812 C 163.320312 191.515625 164.847656 194.910156 170.597656 192.488281 C 176.347656 190.0625 177.933594 181.800781 174.855469 181.628906 C 171.777344 181.457031 169.558594 181.527344 169.972656 177.710938 C 170.386719 173.894531 171.011719 173.128906 176.136719 173.339844 C 181.261719 173.550781 185.429688 171.671875 184.390625 185.203125 C 183.347656 198.738281 174.753906 203.726562 166.511719 203.3125 C 158.257812 202.898438 153.898438 191.585938 153.898438 180.074219 Z M 153.898438 180.074219 " fill-opacity="1" fill-rule="nonzero"/><path fill="#004538" d="M 195.796875 206.855469 C 199.609375 207.339844 203.367188 206.222656 203.746094 200.121094 C 204.121094 194.019531 204.324219 184.445312 204.253906 182.082031 C 204.183594 179.722656 203.980469 177.78125 208.410156 177.992188 C 212.839844 178.203125 216.519531 177.71875 216.589844 181.394531 C 216.660156 185.070312 217.347656 198.886719 217.457031 202.007812 C 217.566406 205.128906 218.730469 206.660156 223.210938 206.652344 C 227.6875 206.652344 226.453125 197.789062 226.304688 195.136719 C 226.304688 195.136719 225.328125 171.679688 222.96875 159.601562 C 220.605469 147.535156 215.824219 142.535156 208.691406 142.746094 C 201.546875 142.957031 196.101562 153.367188 195.117188 172.445312 C 194.132812 191.523438 191.984375 206.371094 195.796875 206.855469 Z M 205.082031 172.09375 C 205.042969 170.25 205.980469 161.480469 207.300781 156.136719 C 208.621094 150.796875 209.167969 149.058594 211.183594 153.429688 C 213.191406 157.804688 214.511719 167.933594 214.511719 167.933594 C 214.511719 167.933594 214.652344 169.386719 214.855469 171.953125 C 215.066406 174.519531 214.511719 174.378906 209.792969 174.449219 C 205.082031 174.519531 205.121094 173.933594 205.082031 172.085938 Z M 205.082031 172.09375 " fill-opacity="1" fill-rule="nonzero"/><path fill="#004538" d="M 251.691406 183.335938 C 257.652344 180.769531 262.367188 174.035156 263.40625 163.351562 C 264.445312 152.664062 254.324219 143.988281 245.941406 144.960938 C 237.554688 145.929688 236.375 151.34375 236.164062 155.433594 C 235.953125 159.523438 235.609375 183.117188 235.609375 183.117188 C 235.609375 183.117188 235.398438 200.527344 235.679688 203.101562 C 235.953125 205.667969 238.726562 205.527344 241.085938 205.183594 C 243.449219 204.835938 243.167969 198.589844 243.097656 194.425781 C 243.027344 190.265625 243.238281 189.296875 244.550781 190.539062 C 245.871094 191.789062 249.261719 195.742188 251.269531 198.242188 C 253.277344 200.738281 256.050781 203.65625 259.097656 201.019531 C 262.148438 198.382812 259.097656 197 255.769531 193.113281 C 252.441406 189.226562 245.722656 185.902344 251.683594 183.328125 Z M 246.464844 177.421875 C 245.082031 178.304688 244.207031 178.46875 244.207031 172.4375 C 244.207031 172.4375 244.761719 160.785156 244.902344 157.3125 C 245.042969 153.839844 246.628906 150.347656 250.722656 151.296875 C 254.808594 152.242188 257.308594 160.015625 254.324219 167.511719 C 251.347656 175.003906 247.847656 176.539062 246.464844 177.421875 Z M 246.464844 177.421875 " fill-opacity="1" fill-rule="nonzero"/><path fill="#004538" d="M 297.441406 173.761719 C 304.445312 162.519531 298.894531 154.472656 293.214844 148.714844 C 287.535156 142.957031 282.542969 144.625 277.046875 148.425781 C 271.554688 152.226562 272.765625 163.703125 272.765625 163.703125 C 272.765625 163.703125 272.625 172.859375 272.492188 179.171875 C 272.351562 185.484375 272.28125 198.808594 272.351562 202.070312 C 272.421875 205.332031 275.679688 206.371094 277.617188 204.84375 C 279.554688 203.320312 279.351562 191.9375 279.921875 189.71875 C 280.492188 187.496094 283.582031 192.148438 288.089844 197.140625 C 292.597656 202.140625 294.464844 201.789062 295.917969 201.027344 C 297.371094 200.261719 297.441406 198.53125 295.847656 196.382812 C 294.253906 194.230469 290.855469 190.765625 287.464844 186.808594 C 284.066406 182.851562 290.441406 185 297.441406 173.761719 Z M 285.660156 175.003906 C 280.738281 179.09375 280.523438 176.375 281.136719 167.792969 C 281.746094 159.210938 281.917969 153.632812 283.902344 151.960938 C 285.886719 150.285156 291.410156 150.097656 291.964844 160.292969 C 292.519531 170.492188 285.660156 174.996094 285.660156 174.996094 Z M 285.660156 175.003906 " fill-opacity="1" fill-rule="nonzero"/><g clip-path="url(#13cec41ed8)"><path fill="#004538" d="M 323.089844 144.5625 C 309.015625 146.929688 308.671875 165.414062 308.671875 165.414062 C 308.671875 165.414062 307.421875 173.035156 307.976562 187.972656 C 308.53125 202.914062 315.460938 208.679688 325.167969 206.613281 C 334.871094 204.539062 340.695312 191.375 340.695312 176.585938 C 340.695312 161.792969 337.160156 142.199219 323.089844 144.5625 Z M 331.957031 183.09375 C 328.488281 196.40625 324.683594 204.257812 320.832031 199.074219 C 316.984375 193.886719 320.175781 168.597656 320.175781 168.597656 C 320.175781 168.597656 321.738281 153.988281 326.363281 154.121094 C 330.988281 154.253906 335.417969 169.78125 331.957031 183.09375 Z M 331.957031 183.09375 " fill-opacity="1" fill-rule="nonzero"/></g><g clip-path="url(#bc355edf98)"><path fill="#004538" d="M 34.296875 225.621094 L 39.859375 225.621094 C 43.578125 225.621094 45.65625 227.804688 45.65625 230.28125 C 45.65625 231.925781 44.773438 233.300781 43.164062 234.0625 C 45.609375 234.734375 46.960938 236.398438 46.960938 238.613281 C 46.960938 241.53125 44.671875 243.847656 40.59375 243.847656 L 34.296875 243.847656 Z M 39.804688 233.300781 C 42.09375 233.300781 43.367188 232.152344 43.367188 230.382812 C 43.367188 228.617188 42.09375 227.5 39.804688 227.5 L 36.585938 227.5 L 36.585938 233.300781 L 39.8125 233.300781 Z M 40.539062 241.914062 C 43.1875 241.914062 44.648438 240.640625 44.648438 238.527344 C 44.648438 236.414062 43.21875 235.171875 40.539062 235.171875 L 36.585938 235.171875 L 36.585938 241.914062 Z M 40.539062 241.914062 " fill-opacity="1" fill-rule="nonzero"/></g><g clip-path="url(#77cdfe3930)"><path fill="#004538" d="M 49.972656 234.734375 C 49.972656 229.21875 54.082031 225.238281 59.121094 225.238281 C 64.160156 225.238281 68.304688 229.21875 68.304688 234.734375 C 68.304688 240.246094 64.191406 244.238281 59.121094 244.238281 C 54.050781 244.238281 49.972656 240.257812 49.972656 234.734375 Z M 65.988281 234.734375 C 65.988281 230.359375 62.917969 227.285156 59.128906 227.285156 C 55.339844 227.285156 52.269531 230.359375 52.269531 234.734375 C 52.269531 239.105469 55.363281 242.179688 59.128906 242.179688 C 62.894531 242.179688 65.988281 239.105469 65.988281 234.734375 Z M 65.988281 234.734375 " fill-opacity="1" fill-rule="nonzero"/></g><path fill="#004538" d="M 75.890625 227.65625 L 70.070312 227.65625 L 70.070312 225.621094 L 84 225.621094 L 84 227.65625 L 78.179688 227.65625 L 78.179688 243.847656 L 75.890625 243.847656 Z M 75.890625 227.65625 " fill-opacity="1" fill-rule="nonzero"/><path fill="#004538" d="M 91.511719 225.105469 L 91.722656 225.105469 L 99.964844 243.847656 L 97.574219 243.847656 L 96.066406 240.175781 L 87.171875 240.175781 L 85.664062 243.847656 L 83.273438 243.847656 L 91.519531 225.105469 Z M 95.285156 238.269531 L 91.621094 229.421875 L 87.980469 238.269531 Z M 95.285156 238.269531 " fill-opacity="1" fill-rule="nonzero"/><g clip-path="url(#b17e1546b2)"><path fill="#004538" d="M 105.652344 230.832031 L 105.652344 243.847656 L 103.363281 243.847656 L 103.363281 225.105469 L 103.597656 225.105469 L 115.484375 238.714844 L 115.484375 225.621094 L 117.773438 225.621094 L 117.773438 244.363281 L 117.5625 244.363281 Z M 105.652344 230.832031 " fill-opacity="1" fill-rule="nonzero"/></g><path fill="#004538" d="M 123.140625 225.621094 L 125.429688 225.621094 L 125.429688 243.839844 L 123.140625 243.839844 Z M 123.140625 225.621094 " fill-opacity="1" fill-rule="nonzero"/><g clip-path="url(#3b977889f1)"><path fill="#004538" d="M 130.113281 234.734375 C 130.113281 229.21875 134.113281 225.238281 139.261719 225.238281 C 141.683594 225.238281 143.886719 226.097656 145.632812 227.84375 L 144.488281 229.429688 C 142.980469 228.078125 141.105469 227.292969 139.214844 227.292969 C 135.417969 227.292969 132.402344 230.367188 132.402344 234.742188 C 132.402344 239.113281 135.417969 242.1875 139.238281 242.1875 C 141.808594 242.1875 143.605469 240.835938 144.824219 239.613281 L 145.96875 241.335938 C 144.246094 243.023438 142.121094 244.253906 139.261719 244.253906 C 134.113281 244.253906 130.113281 240.273438 130.113281 234.75 Z M 130.113281 234.734375 " fill-opacity="1" fill-rule="nonzero"/></g><g clip-path="url(#6831a4acda)"><path fill="#004538" d="M 157.273438 234.703125 C 157.273438 229.210938 161.273438 225.230469 166.425781 225.230469 C 168.847656 225.230469 171.050781 226.089844 172.792969 227.835938 L 171.652344 229.421875 C 170.144531 228.070312 168.269531 227.285156 166.378906 227.285156 C 162.578125 227.285156 159.5625 230.359375 159.5625 234.734375 C 159.5625 239.105469 162.601562 242.179688 166.347656 242.179688 C 168.503906 242.179688 170.066406 241.195312 171.464844 239.808594 L 171.464844 236.085938 L 165.878906 236.085938 L 165.878906 234.109375 L 173.707031 234.109375 L 173.707031 240.429688 C 171.941406 242.71875 169.417969 244.230469 166.324219 244.230469 C 161.328125 244.230469 157.273438 240.25 157.273438 234.703125 Z M 157.273438 234.703125 " fill-opacity="1" fill-rule="nonzero"/></g><path fill="#004538" d="M 184.671875 225.105469 L 184.882812 225.105469 L 193.125 243.847656 L 190.734375 243.847656 L 189.226562 240.175781 L 180.332031 240.175781 L 178.824219 243.847656 L 176.433594 243.847656 L 184.679688 225.105469 Z M 188.445312 238.269531 L 184.78125 229.421875 L 181.136719 238.269531 Z M 188.445312 238.269531 " fill-opacity="1" fill-rule="nonzero"/><path fill="#004538" d="M 196.523438 225.621094 L 201.695312 225.621094 C 205.964844 225.621094 208.433594 228.25 208.433594 231.449219 C 208.433594 233.839844 207.058594 235.898438 204.582031 236.804688 L 209.261719 243.832031 L 206.660156 243.832031 L 202.34375 237.246094 C 202.132812 237.269531 201.898438 237.269531 201.695312 237.269531 L 198.8125 237.269531 L 198.8125 243.832031 L 196.523438 243.832031 L 196.523438 225.613281 Z M 201.648438 235.359375 C 204.488281 235.359375 206.152344 233.824219 206.152344 231.480469 C 206.152344 229.132812 204.464844 227.554688 201.648438 227.554688 L 198.8125 227.554688 L 198.8125 235.359375 Z M 201.648438 235.359375 " fill-opacity="1" fill-rule="nonzero"/><path fill="#004538" d="M 213.238281 225.621094 L 217.761719 225.621094 C 224.5 225.621094 227.75 229.679688 227.75 234.734375 C 227.75 239.785156 224.5 243.847656 217.761719 243.847656 L 213.238281 243.847656 Z M 217.738281 241.8125 C 223.203125 241.8125 225.460938 238.660156 225.460938 234.734375 C 225.460938 230.808594 223.203125 227.65625 217.738281 227.65625 L 215.527344 227.65625 L 215.527344 241.8125 Z M 217.738281 241.8125 " fill-opacity="1" fill-rule="nonzero"/><path fill="#004538" d="M 232.0625 225.621094 L 243.582031 225.621094 L 243.582031 227.65625 L 234.351562 227.65625 L 234.351562 234.085938 L 242.542969 234.085938 L 242.542969 236.117188 L 234.351562 236.117188 L 234.351562 241.820312 L 243.847656 241.820312 L 243.847656 243.855469 L 232.070312 243.855469 L 232.070312 225.636719 Z M 232.0625 225.621094 " fill-opacity="1" fill-rule="nonzero"/><g clip-path="url(#350ddadc5b)"><path fill="#004538" d="M 250.386719 230.832031 L 250.386719 243.847656 L 248.097656 243.847656 L 248.097656 225.105469 L 248.332031 225.105469 L 260.214844 238.714844 L 260.214844 225.621094 L 262.507812 225.621094 L 262.507812 244.363281 L 262.296875 244.363281 Z M 250.386719 230.832031 " fill-opacity="1" fill-rule="nonzero"/></g><g clip-path="url(#ae3aff8651)"><path fill="#004538" d="M 274.765625 234.734375 C 274.765625 229.21875 278.765625 225.238281 283.917969 225.238281 C 286.339844 225.238281 288.542969 226.097656 290.285156 227.84375 L 289.144531 229.429688 C 287.636719 228.078125 285.761719 227.292969 283.871094 227.292969 C 280.070312 227.292969 277.054688 230.367188 277.054688 234.742188 C 277.054688 239.113281 280.070312 242.1875 283.894531 242.1875 C 286.464844 242.1875 288.261719 240.835938 289.480469 239.613281 L 290.621094 241.335938 C 288.902344 243.023438 286.777344 244.253906 283.917969 244.253906 C 278.765625 244.253906 274.765625 240.273438 274.765625 234.75 Z M 274.765625 234.734375 " fill-opacity="1" fill-rule="nonzero"/></g><path fill="#004538" d="M 301.3125 225.105469 L 301.523438 225.105469 L 309.765625 243.847656 L 307.375 243.847656 L 305.867188 240.175781 L 296.972656 240.175781 L 295.464844 243.847656 L 293.074219 243.847656 L 301.320312 225.105469 Z M 305.078125 238.269531 L 301.414062 229.421875 L 297.769531 238.269531 Z M 305.078125 238.269531 " fill-opacity="1" fill-rule="nonzero"/><path fill="#004538" d="M 313.15625 225.621094 L 324.675781 225.621094 L 324.675781 227.65625 L 315.445312 227.65625 L 315.445312 234.085938 L 323.144531 234.085938 L 323.144531 236.117188 L 315.445312 236.117188 L 315.445312 243.847656 L 313.15625 243.847656 Z M 313.15625 225.621094 " fill-opacity="1" fill-rule="nonzero"/><g clip-path="url(#b9f247a68e)"><path fill="#004538" d="M 328.910156 225.621094 L 340.429688 225.621094 L 340.429688 227.65625 L 331.199219 227.65625 L 331.199219 234.085938 L 339.390625 234.085938 L 339.390625 236.117188 L 331.199219 236.117188 L 331.199219 241.820312 L 340.695312 241.820312 L 340.695312 243.855469 L 328.917969 243.855469 L 328.917969 225.636719 Z M 328.910156 225.621094 " fill-opacity="1" fill-rule="nonzero"/></g><g clip-path="url(#1deea20a4f)"><g clip-path="url(#2d52b124b0)"><path fill="#789c4d" d="M 18.523438 212.816406 L 356.402344 212.816406 L 356.402344 264.519531 L 18.523438 264.519531 Z M 18.523438 212.816406 " fill-opacity="1" fill-rule="nonzero"/></g></g><g clip-path="url(#5a14dd0883)"><path fill="#ffffff" d="M 55.460938 237.101562 C 56.933594 236.410156 57.742188 235.152344 57.742188 233.652344 C 57.742188 231.386719 55.839844 229.394531 52.441406 229.394531 L 47.351562 229.394531 L 47.351562 246.039062 L 53.109375 246.039062 C 56.839844 246.039062 58.933594 243.925781 58.933594 241.261719 C 58.933594 239.238281 57.699219 237.71875 55.460938 237.101562 Z M 49.445312 231.109375 L 52.390625 231.109375 C 54.484375 231.109375 55.648438 232.132812 55.648438 233.746094 C 55.648438 235.359375 54.484375 236.410156 52.390625 236.410156 L 49.445312 236.410156 Z M 53.0625 244.273438 L 49.445312 244.273438 L 49.445312 238.117188 L 53.0625 238.117188 C 55.511719 238.117188 56.820312 239.253906 56.820312 241.179688 C 56.820312 243.109375 55.484375 244.273438 53.0625 244.273438 Z M 53.0625 244.273438 " fill-opacity="1" fill-rule="nonzero"/></g><g clip-path="url(#95af677550)"><path fill="#ffffff" d="M 70.054688 229.046875 C 65.445312 229.046875 61.6875 232.679688 61.6875 237.71875 C 61.6875 242.753906 65.414062 246.394531 70.054688 246.394531 C 74.691406 246.394531 78.449219 242.753906 78.449219 237.71875 C 78.449219 232.679688 74.660156 229.046875 70.054688 229.046875 Z M 70.058594 244.515625 C 66.617188 244.515625 63.785156 241.710938 63.785156 237.71875 C 63.785156 233.722656 66.59375 230.917969 70.058594 230.917969 C 73.527344 230.917969 76.332031 233.722656 76.332031 237.71875 C 76.332031 241.710938 73.503906 244.515625 70.058594 244.515625 Z M 70.058594 244.515625 " fill-opacity="1" fill-rule="nonzero"/></g><g clip-path="url(#fe7996b771)"><path fill="#ffffff" d="M 92.804688 229.394531 L 80.0625 229.394531 L 80.0625 231.253906 L 85.386719 231.253906 L 85.386719 246.039062 L 87.480469 246.039062 L 87.480469 231.253906 L 92.804688 231.253906 Z M 92.804688 229.394531 " fill-opacity="1" fill-rule="nonzero"/></g><g clip-path="url(#cf2642cb00)"><path fill="#ffffff" d="M 99.679688 228.925781 L 92.140625 246.039062 L 94.324219 246.039062 L 95.703125 242.6875 L 103.835938 242.6875 L 105.214844 246.039062 L 107.402344 246.039062 L 99.863281 228.925781 Z M 96.441406 240.945312 L 99.769531 232.867188 L 103.121094 240.945312 Z M 96.441406 240.945312 " fill-opacity="1" fill-rule="nonzero"/></g><g clip-path="url(#2c3090f429)"><path fill="#ffffff" d="M 121.59375 241.351562 L 110.726562 228.925781 L 110.511719 228.925781 L 110.511719 246.039062 L 112.605469 246.039062 L 112.605469 234.152344 L 123.492188 246.511719 L 123.6875 246.511719 L 123.6875 229.394531 L 121.59375 229.394531 Z M 121.59375 241.351562 " fill-opacity="1" fill-rule="nonzero"/></g><g clip-path="url(#b375e08705)"><path fill="#ffffff" d="M 128.59375 229.394531 L 130.6875 229.394531 L 130.6875 246.03125 L 128.59375 246.03125 Z M 128.59375 229.394531 " fill-opacity="1" fill-rule="nonzero"/></g><g clip-path="url(#84697ef2e3)"><path fill="#ffffff" d="M 143.316406 244.523438 C 139.820312 244.523438 137.0625 241.71875 137.0625 237.722656 C 137.0625 233.730469 139.820312 230.925781 143.292969 230.925781 C 145.023438 230.925781 146.738281 231.636719 148.117188 232.875 L 149.160156 231.425781 C 147.566406 229.832031 145.550781 229.046875 143.335938 229.046875 C 138.628906 229.046875 134.96875 232.679688 134.96875 237.71875 L 134.96875 237.730469 C 134.96875 242.773438 138.628906 246.410156 143.335938 246.410156 C 145.953125 246.410156 147.894531 245.289062 149.46875 243.746094 L 148.425781 242.175781 C 147.308594 243.289062 145.664062 244.523438 143.316406 244.523438 Z M 143.316406 244.523438 " fill-opacity="1" fill-rule="nonzero"/></g><g clip-path="url(#1263abcea4)"><path fill="#ffffff" d="M 167.671875 238.953125 L 172.78125 238.953125 L 172.78125 242.351562 C 171.503906 243.617188 170.074219 244.515625 168.101562 244.515625 C 164.679688 244.515625 161.898438 241.710938 161.898438 237.71875 C 161.898438 233.722656 164.660156 230.917969 168.132812 230.917969 C 169.859375 230.917969 171.574219 231.632812 172.953125 232.867188 L 173.996094 231.417969 C 172.402344 229.824219 170.390625 229.039062 168.171875 229.039062 C 163.464844 229.039062 159.804688 232.675781 159.804688 237.6875 C 159.804688 242.703125 163.515625 246.390625 168.082031 246.390625 C 170.910156 246.390625 173.21875 245.011719 174.832031 242.917969 L 174.832031 237.144531 L 167.671875 237.144531 Z M 167.671875 238.953125 " fill-opacity="1" fill-rule="nonzero"/></g><g clip-path="url(#3177548a51)"><path fill="#ffffff" d="M 184.867188 228.925781 L 177.328125 246.039062 L 179.511719 246.039062 L 180.894531 242.6875 L 189.023438 242.6875 L 190.402344 246.039062 L 192.589844 246.039062 L 185.050781 228.925781 Z M 181.628906 240.945312 L 184.957031 232.867188 L 188.308594 240.945312 Z M 181.628906 240.945312 " fill-opacity="1" fill-rule="nonzero"/></g><g clip-path="url(#def0e7205c)"><path fill="#ffffff" d="M 206.585938 234.71875 C 206.585938 231.796875 204.328125 229.394531 200.429688 229.394531 L 195.699219 229.394531 L 195.699219 246.023438 L 197.792969 246.023438 L 197.792969 240.03125 L 200.429688 240.03125 C 200.613281 240.03125 200.828125 240.03125 201.019531 240.011719 L 204.964844 246.023438 L 207.34375 246.023438 L 203.066406 239.609375 C 205.328125 238.78125 206.585938 236.902344 206.585938 234.71875 Z M 200.386719 238.289062 L 197.792969 238.289062 L 197.792969 231.160156 L 200.386719 231.160156 C 202.957031 231.160156 204.5 232.601562 204.5 234.746094 C 204.5 236.886719 202.980469 238.289062 200.386719 238.289062 Z M 200.386719 238.289062 " fill-opacity="1" fill-rule="nonzero"/></g><g clip-path="url(#99a4e2f21a)"><path fill="#ffffff" d="M 215.121094 229.394531 L 210.980469 229.394531 L 210.980469 246.039062 L 215.121094 246.039062 C 221.277344 246.039062 224.25 242.332031 224.25 237.71875 C 224.25 233.101562 221.277344 229.394531 215.121094 229.394531 Z M 215.097656 244.183594 L 213.074219 244.183594 L 213.074219 231.253906 L 215.097656 231.253906 C 220.09375 231.253906 222.15625 234.132812 222.15625 237.71875 C 222.15625 241.304688 220.09375 244.183594 215.097656 244.183594 Z M 215.097656 244.183594 " fill-opacity="1" fill-rule="nonzero"/></g><g clip-path="url(#af84188415)"><path fill="#ffffff" d="M 230.289062 238.980469 L 237.777344 238.980469 L 237.777344 237.125 L 230.289062 237.125 L 230.289062 231.253906 L 238.726562 231.253906 L 238.726562 229.394531 L 228.195312 229.394531 L 228.203125 229.410156 L 228.203125 246.046875 L 238.96875 246.046875 L 238.96875 244.1875 L 230.289062 244.1875 Z M 230.289062 238.980469 " fill-opacity="1" fill-rule="nonzero"/></g><g clip-path="url(#e918f9900e)"><path fill="#ffffff" d="M 253.941406 241.351562 L 243.070312 228.925781 L 242.859375 228.925781 L 242.859375 246.039062 L 244.953125 246.039062 L 244.953125 234.152344 L 255.839844 246.511719 L 256.035156 246.511719 L 256.035156 229.394531 L 253.941406 229.394531 Z M 253.941406 241.351562 " fill-opacity="1" fill-rule="nonzero"/></g><g clip-path="url(#70b6d6e973)"><path fill="#ffffff" d="M 275.589844 244.523438 C 272.097656 244.523438 269.339844 241.71875 269.339844 237.722656 C 269.339844 233.730469 272.097656 230.925781 275.570312 230.925781 C 277.296875 230.925781 279.011719 231.636719 280.390625 232.875 L 281.4375 231.425781 C 279.84375 229.832031 277.828125 229.046875 275.613281 229.046875 C 270.902344 229.046875 267.246094 232.679688 267.246094 237.71875 L 267.246094 237.730469 C 267.246094 242.773438 270.902344 246.410156 275.613281 246.410156 C 278.226562 246.410156 280.171875 245.289062 281.742188 243.746094 L 280.699219 242.175781 C 279.585938 243.289062 277.941406 244.523438 275.589844 244.523438 Z M 275.589844 244.523438 " fill-opacity="1" fill-rule="nonzero"/></g><g clip-path="url(#3297d1dd2d)"><path fill="#ffffff" d="M 291.523438 228.925781 L 283.988281 246.039062 L 286.171875 246.039062 L 287.550781 242.6875 L 295.683594 242.6875 L 297.0625 246.039062 L 299.25 246.039062 L 291.710938 228.925781 Z M 288.28125 240.945312 L 291.609375 232.867188 L 294.960938 240.945312 Z M 288.28125 240.945312 " fill-opacity="1" fill-rule="nonzero"/></g><g clip-path="url(#808dadcd33)"><path fill="#ffffff" d="M 302.351562 229.402344 L 302.351562 246.039062 L 304.445312 246.039062 L 304.445312 238.980469 L 311.480469 238.980469 L 311.480469 237.125 L 304.445312 237.125 L 304.445312 231.253906 L 312.882812 231.253906 L 312.882812 229.394531 L 302.351562 229.394531 Z M 302.351562 229.402344 " fill-opacity="1" fill-rule="nonzero"/></g><g clip-path="url(#b05bbc04f3)"><path fill="#ffffff" d="M 318.847656 238.980469 L 326.335938 238.980469 L 326.335938 237.125 L 318.847656 237.125 L 318.847656 231.253906 L 327.289062 231.253906 L 327.289062 229.394531 L 316.753906 229.394531 L 316.761719 229.410156 L 316.761719 246.046875 L 327.53125 246.046875 L 327.53125 244.1875 L 318.847656 244.1875 Z M 318.847656 238.980469 " fill-opacity="1" fill-rule="nonzero"/></g><g fill="#294a44" fill-opacity="1"><g transform="translate(82.22816, 284.507602)"><g><path d="M 9.875 8.53125 L 14.65625 -1.59375 L 5.328125 4.609375 L 3.53125 3.046875 L 9.71875 -10.921875 L 12.125 -9.375 L 7 0.921875 L 16.21875 -5.515625 L 18.359375 -3.671875 L 13.34375 6.40625 L 22.5625 -0.03125 L 24.703125 1.8125 L 11.6875 10.09375 Z M 9.875 8.53125 "/></g></g></g><g fill="#294a44" fill-opacity="1"><g transform="translate(98.090664, 297.841777)"><g><path d="M 11.78125 1.6875 C 12.375 0.832031 12.757812 -0.03125 12.9375 -0.90625 C 13.113281 -1.789062 13.046875 -2.644531 12.734375 -3.46875 C 12.421875 -4.289062 11.828125 -5.003906 10.953125 -5.609375 C 10.054688 -6.222656 9.148438 -6.566406 8.234375 -6.640625 C 7.316406 -6.710938 6.445312 -6.523438 5.625 -6.078125 C 4.800781 -5.628906 4.070312 -4.945312 3.4375 -4.03125 C 2.457031 -2.601562 2.113281 -1.191406 2.40625 0.203125 C 2.707031 1.597656 3.679688 2.863281 5.328125 4 C 6.023438 4.476562 6.691406 4.800781 7.328125 4.96875 C 7.972656 5.144531 8.640625 5.207031 9.328125 5.15625 L 9.796875 3 C 9.179688 2.957031 8.632812 2.863281 8.15625 2.71875 C 7.6875 2.582031 7.21875 2.351562 6.75 2.03125 C 5.925781 1.46875 5.425781 0.890625 5.25 0.296875 C 5.070312 -0.296875 5.132812 -0.941406 5.4375 -1.640625 L 11.296875 2.390625 Z M 6.53125 -3.1875 C 7.007812 -3.675781 7.507812 -3.957031 8.03125 -4.03125 C 8.550781 -4.101562 9.050781 -3.972656 9.53125 -3.640625 C 10.007812 -3.304688 10.300781 -2.894531 10.40625 -2.40625 C 10.519531 -1.914062 10.4375 -1.34375 10.15625 -0.6875 Z M 6.53125 -3.1875 "/></g></g></g><g fill="#294a44" fill-opacity="1"><g transform="translate(107.694348, 304.464992)"><g><path d="M 9.546875 5.484375 L 8.28125 4.75 L 8.1875 3.59375 C 6.976562 3.84375 5.894531 3.691406 4.9375 3.140625 C 3.519531 2.328125 2.644531 1.253906 2.3125 -0.078125 C 1.988281 -1.421875 2.25 -2.828125 3.09375 -4.296875 C 3.632812 -5.242188 4.300781 -5.976562 5.09375 -6.5 C 5.882812 -7.019531 6.75 -7.273438 7.6875 -7.265625 C 8.625 -7.265625 9.578125 -6.988281 10.546875 -6.4375 C 10.835938 -6.257812 11.117188 -6.019531 11.390625 -5.71875 C 11.671875 -5.414062 11.921875 -5.082031 12.140625 -4.71875 L 14.609375 -9.046875 L 17.1875 -7.828125 Z M 5.625 -2.84375 C 5.15625 -2.039062 4.96875 -1.28125 5.0625 -0.5625 C 5.164062 0.144531 5.554688 0.695312 6.234375 1.09375 C 6.566406 1.28125 6.921875 1.394531 7.296875 1.4375 C 7.679688 1.488281 8.113281 1.492188 8.59375 1.453125 L 10.828125 -2.453125 C 10.660156 -2.921875 10.457031 -3.300781 10.21875 -3.59375 C 9.988281 -3.882812 9.695312 -4.128906 9.34375 -4.328125 C 8.675781 -4.710938 8.003906 -4.757812 7.328125 -4.46875 C 6.648438 -4.1875 6.082031 -3.644531 5.625 -2.84375 Z M 5.625 -2.84375 "/></g></g></g><g fill="#294a44" fill-opacity="1"><g transform="translate(118.863786, 310.756334)"><g><path d="M 2.921875 -3.96875 L 8.03125 -1.484375 L 8.796875 -3.59375 L 3.6875 -6.078125 Z M 2.921875 -3.96875 "/></g></g></g><g fill="#294a44" fill-opacity="1"><g transform="translate(125.66529, 314.124669)"><g><path d="M 1.3125 -0.515625 C 1.65625 -0.046875 2.195312 0.476562 2.9375 1.0625 C 3.675781 1.65625 4.320312 2.066406 4.875 2.296875 C 5.945312 2.734375 6.9375 2.945312 7.84375 2.9375 C 8.75 2.9375 9.515625 2.734375 10.140625 2.328125 C 10.765625 1.921875 11.222656 1.351562 11.515625 0.625 C 11.785156 -0.03125 11.863281 -0.664062 11.75 -1.28125 C 11.644531 -1.90625 11.425781 -2.484375 11.09375 -3.015625 C 10.757812 -3.554688 10.285156 -4.21875 9.671875 -5 L 9.234375 -5.578125 L 8.765625 -6.203125 C 8.234375 -6.867188 7.867188 -7.394531 7.671875 -7.78125 C 7.484375 -8.175781 7.46875 -8.566406 7.625 -8.953125 C 7.8125 -9.410156 8.140625 -9.675781 8.609375 -9.75 C 9.085938 -9.832031 9.628906 -9.753906 10.234375 -9.515625 C 10.753906 -9.296875 11.207031 -9.019531 11.59375 -8.6875 C 11.988281 -8.351562 12.40625 -7.945312 12.84375 -7.46875 L 14.5625 -9.203125 C 13.425781 -10.453125 12.28125 -11.316406 11.125 -11.796875 C 10.15625 -12.191406 9.253906 -12.375 8.421875 -12.34375 C 7.585938 -12.320312 6.863281 -12.109375 6.25 -11.703125 C 5.644531 -11.296875 5.203125 -10.742188 4.921875 -10.046875 C 4.648438 -9.390625 4.597656 -8.71875 4.765625 -8.03125 C 4.941406 -7.351562 5.210938 -6.707031 5.578125 -6.09375 C 5.941406 -5.488281 6.460938 -4.738281 7.140625 -3.84375 L 7.609375 -3.234375 C 8.140625 -2.578125 8.515625 -2.046875 8.734375 -1.640625 C 8.953125 -1.234375 8.992188 -0.863281 8.859375 -0.53125 C 8.660156 -0.0507812 8.300781 0.234375 7.78125 0.328125 C 7.257812 0.421875 6.597656 0.300781 5.796875 -0.03125 C 5.273438 -0.238281 4.734375 -0.570312 4.171875 -1.03125 C 3.617188 -1.488281 3.148438 -1.945312 2.765625 -2.40625 Z M 1.3125 -0.515625 "/></g></g></g><g fill="#294a44" fill-opacity="1"><g transform="translate(136.71145, 318.630086)"><g><path d="M 8.875 -0.59375 C 8.257812 -0.394531 7.707031 -0.253906 7.21875 -0.171875 C 6.738281 -0.0859375 6.265625 -0.117188 5.796875 -0.265625 C 5.335938 -0.410156 5.035156 -0.695312 4.890625 -1.125 C 4.742188 -1.550781 4.769531 -2.070312 4.96875 -2.6875 L 6.90625 -8.875 L 4.21875 -9.734375 L 2.25 -3.421875 C 1.84375 -2.128906 1.78125 -1.046875 2.0625 -0.171875 C 2.34375 0.703125 3.117188 1.34375 4.390625 1.75 C 4.941406 1.914062 5.609375 1.984375 6.390625 1.953125 C 7.171875 1.929688 7.945312 1.800781 8.71875 1.5625 L 8.84375 2.78125 L 10.59375 3.328125 L 13.75 -6.734375 L 11.0625 -7.578125 Z M 8.875 -0.59375 "/></g></g></g><g fill="#294a44" fill-opacity="1"><g transform="translate(148.922583, 322.446753)"><g><path d="M 5.5 -6.25 C 6.09375 -6.507812 6.628906 -6.703125 7.109375 -6.828125 C 7.585938 -6.953125 8.066406 -6.960938 8.546875 -6.859375 C 9.003906 -6.753906 9.328125 -6.492188 9.515625 -6.078125 C 9.703125 -5.671875 9.722656 -5.148438 9.578125 -4.515625 L 8.171875 1.8125 L 10.921875 2.421875 L 12.359375 -4.03125 C 12.648438 -5.34375 12.613281 -6.421875 12.25 -7.265625 C 11.882812 -8.117188 11.050781 -8.691406 9.75 -8.984375 C 9.195312 -9.109375 8.53125 -9.125 7.75 -9.03125 C 6.96875 -8.9375 6.210938 -8.734375 5.484375 -8.421875 L 5.265625 -9.640625 L 3.46875 -10.03125 L 1.171875 0.265625 L 3.921875 0.875 Z M 5.5 -6.25 "/></g></g></g><g fill="#294a44" fill-opacity="1"><g transform="translate(161.285854, 325.071786)"><g/></g></g><g fill="#294a44" fill-opacity="1"><g transform="translate(166.404595, 325.956961)"><g><path d="M 10.296875 -11.28125 L 1.515625 -12.21875 L 1.625 -9.890625 L 7.796875 -9.234375 L 2.890625 1.046875 L 5.421875 2.078125 L 11 -10.0625 Z M 10.296875 -11.28125 "/></g></g></g><g fill="#294a44" fill-opacity="1"><g transform="translate(176.945974, 326.994771)"><g><path d="M 2.65625 -6.96875 C 3.101562 -6.945312 3.484375 -7.082031 3.796875 -7.375 C 4.109375 -7.675781 4.273438 -8.050781 4.296875 -8.5 C 4.328125 -8.9375 4.195312 -9.316406 3.90625 -9.640625 C 3.613281 -9.960938 3.253906 -10.132812 2.828125 -10.15625 C 2.378906 -10.175781 1.988281 -10.039062 1.65625 -9.75 C 1.332031 -9.46875 1.15625 -9.109375 1.125 -8.671875 C 1.101562 -8.222656 1.238281 -7.832031 1.53125 -7.5 C 1.832031 -7.164062 2.207031 -6.988281 2.65625 -6.96875 Z M 2.265625 0.125 C 2.710938 0.144531 3.09375 0.015625 3.40625 -0.265625 C 3.71875 -0.554688 3.890625 -0.929688 3.921875 -1.390625 C 3.941406 -1.835938 3.8125 -2.21875 3.53125 -2.53125 C 3.25 -2.851562 2.882812 -3.023438 2.4375 -3.046875 C 1.988281 -3.066406 1.597656 -2.9375 1.265625 -2.65625 C 0.941406 -2.375 0.769531 -2.007812 0.75 -1.5625 C 0.71875 -1.101562 0.847656 -0.710938 1.140625 -0.390625 C 1.441406 -0.0664062 1.816406 0.101562 2.265625 0.125 Z M 2.265625 0.125 "/></g></g></g><g fill="#294a44" fill-opacity="1"><g transform="translate(181.712695, 327.325483)"><g><path d="M 5.078125 -12.5625 C 4.242188 -12.5625 3.453125 -12.429688 2.703125 -12.171875 C 1.953125 -11.921875 1.195312 -11.550781 0.4375 -11.0625 L 1.75 -9.171875 C 2.84375 -9.921875 3.925781 -10.289062 5 -10.28125 C 5.601562 -10.28125 6.09375 -10.128906 6.46875 -9.828125 C 6.84375 -9.535156 7.03125 -9.175781 7.03125 -8.75 C 7.03125 -8.207031 6.769531 -7.773438 6.25 -7.453125 C 5.726562 -7.128906 5.035156 -6.96875 4.171875 -6.96875 L 2.734375 -6.984375 L 3.125 -4.78125 L 4.03125 -4.765625 C 5.132812 -4.765625 5.953125 -4.570312 6.484375 -4.1875 C 7.015625 -3.800781 7.28125 -3.269531 7.28125 -2.59375 C 7.28125 -2 7.03125 -1.519531 6.53125 -1.15625 C 6.039062 -0.789062 5.457031 -0.609375 4.78125 -0.609375 C 4.144531 -0.609375 3.570312 -0.6875 3.0625 -0.84375 C 2.550781 -1.007812 2.007812 -1.265625 1.4375 -1.609375 L 0 0.28125 C 0.738281 0.675781 1.523438 1.003906 2.359375 1.265625 C 3.203125 1.523438 3.992188 1.660156 4.734375 1.671875 C 5.753906 1.671875 6.65625 1.476562 7.4375 1.09375 C 8.21875 0.71875 8.816406 0.207031 9.234375 -0.4375 C 9.660156 -1.09375 9.875 -1.816406 9.875 -2.609375 C 9.875 -3.179688 9.765625 -3.703125 9.546875 -4.171875 C 9.335938 -4.648438 9.078125 -5.039062 8.765625 -5.34375 C 8.453125 -5.65625 8.148438 -5.847656 7.859375 -5.921875 C 8.304688 -6.117188 8.710938 -6.488281 9.078125 -7.03125 C 9.441406 -7.582031 9.625 -8.164062 9.625 -8.78125 C 9.625 -9.476562 9.453125 -10.113281 9.109375 -10.6875 C 8.765625 -11.257812 8.25 -11.710938 7.5625 -12.046875 C 6.875 -12.390625 6.046875 -12.5625 5.078125 -12.5625 Z M 5.078125 -12.5625 "/></g></g></g><g fill="#294a44" fill-opacity="1"><g transform="translate(192.708035, 327.383983)"><g><path d="M 0.046875 -6.21875 C 0.148438 -4.988281 0.5 -3.90625 1.09375 -2.96875 C 1.695312 -2.03125 2.476562 -1.316406 3.4375 -0.828125 C 4.394531 -0.347656 5.441406 -0.15625 6.578125 -0.25 C 7.710938 -0.34375 8.71875 -0.703125 9.59375 -1.328125 C 10.476562 -1.960938 11.132812 -2.796875 11.5625 -3.828125 C 12 -4.859375 12.171875 -5.992188 12.078125 -7.234375 C 11.984375 -8.429688 11.640625 -9.492188 11.046875 -10.421875 C 10.460938 -11.347656 9.6875 -12.039062 8.71875 -12.5 C 7.757812 -12.96875 6.710938 -13.15625 5.578125 -13.0625 C 4.421875 -12.96875 3.40625 -12.613281 2.53125 -12 C 1.664062 -11.382812 1.007812 -10.566406 0.5625 -9.546875 C 0.125 -8.535156 -0.046875 -7.425781 0.046875 -6.21875 Z M 2.609375 -6.5 C 2.546875 -7.238281 2.640625 -7.914062 2.890625 -8.53125 C 3.140625 -9.15625 3.515625 -9.65625 4.015625 -10.03125 C 4.523438 -10.414062 5.101562 -10.632812 5.75 -10.6875 C 6.40625 -10.738281 7.007812 -10.613281 7.5625 -10.3125 C 8.125 -10.007812 8.578125 -9.5625 8.921875 -8.96875 C 9.273438 -8.375 9.484375 -7.703125 9.546875 -6.953125 C 9.609375 -6.179688 9.515625 -5.476562 9.265625 -4.84375 C 9.023438 -4.207031 8.65625 -3.695312 8.15625 -3.3125 C 7.65625 -2.925781 7.078125 -2.707031 6.421875 -2.65625 C 5.753906 -2.601562 5.140625 -2.726562 4.578125 -3.03125 C 4.023438 -3.34375 3.570312 -3.800781 3.21875 -4.40625 C 2.875 -5.007812 2.671875 -5.707031 2.609375 -6.5 Z M 2.609375 -6.5 "/></g></g></g><g fill="#294a44" fill-opacity="1"><g transform="translate(206.177228, 326.156312)"><g/></g></g><g fill="#294a44" fill-opacity="1"><g transform="translate(211.341833, 325.485522)"><g><path d="M 0.6875 -7.8125 C 1.050781 -8.070312 1.5 -8.328125 2.03125 -8.578125 C 2.570312 -8.835938 3.078125 -9.015625 3.546875 -9.109375 C 4.054688 -9.210938 4.484375 -9.144531 4.828125 -8.90625 C 5.179688 -8.675781 5.425781 -8.296875 5.5625 -7.765625 L 3.53125 -7.359375 C 2.34375 -7.117188 1.445312 -6.640625 0.84375 -5.921875 C 0.25 -5.203125 0.0546875 -4.316406 0.265625 -3.265625 C 0.472656 -2.242188 0.945312 -1.492188 1.6875 -1.015625 C 2.4375 -0.535156 3.429688 -0.421875 4.671875 -0.671875 C 5.617188 -0.859375 6.441406 -1.5 7.140625 -2.59375 L 7.8125 -1.578125 L 9.640625 -1.9375 L 8.265625 -8.734375 C 8.117188 -9.460938 7.78125 -10.078125 7.25 -10.578125 C 6.726562 -11.078125 6.09375 -11.421875 5.34375 -11.609375 C 4.601562 -11.796875 3.816406 -11.804688 2.984375 -11.640625 C 2.503906 -11.546875 1.878906 -11.316406 1.109375 -10.953125 C 0.335938 -10.597656 -0.207031 -10.269531 -0.53125 -9.96875 Z M 2.640625 -3.75 C 2.554688 -4.144531 2.625 -4.507812 2.84375 -4.84375 C 3.070312 -5.1875 3.414062 -5.40625 3.875 -5.5 L 5.953125 -5.90625 L 6.265625 -4.328125 C 5.710938 -3.523438 5.019531 -3.039062 4.1875 -2.875 C 3.8125 -2.800781 3.472656 -2.847656 3.171875 -3.015625 C 2.878906 -3.191406 2.703125 -3.4375 2.640625 -3.75 Z M 2.640625 -3.75 "/></g></g></g><g fill="#294a44" fill-opacity="1"><g transform="translate(222.685662, 323.372613)"><g><path d="M 10.203125 -14.59375 C 11.359375 -14.945312 12.285156 -14.890625 12.984375 -14.421875 C 13.679688 -13.960938 14.21875 -13.128906 14.59375 -11.921875 L 16.6875 -5.1875 L 14 -4.359375 L 12.078125 -10.546875 C 11.867188 -11.191406 11.613281 -11.644531 11.3125 -11.90625 C 11.007812 -12.175781 10.640625 -12.25 10.203125 -12.125 C 9.785156 -11.988281 9.429688 -11.769531 9.140625 -11.46875 C 8.859375 -11.175781 8.515625 -10.753906 8.109375 -10.203125 L 8.1875 -9.9375 L 10.28125 -3.203125 L 7.578125 -2.359375 L 5.65625 -8.546875 C 5.445312 -9.191406 5.191406 -9.648438 4.890625 -9.921875 C 4.585938 -10.191406 4.222656 -10.257812 3.796875 -10.125 C 3.390625 -10 3.039062 -9.785156 2.75 -9.484375 C 2.457031 -9.179688 2.09375 -8.738281 1.65625 -8.15625 L 3.828125 -1.1875 L 1.15625 -0.359375 L -1.96875 -10.4375 L -0.21875 -10.984375 L 0.5625 -10.03125 C 1.050781 -10.675781 1.585938 -11.222656 2.171875 -11.671875 C 2.753906 -12.128906 3.300781 -12.4375 3.8125 -12.59375 C 5.175781 -13.019531 6.238281 -12.847656 7 -12.078125 C 7.5 -12.703125 8.035156 -13.238281 8.609375 -13.6875 C 9.179688 -14.132812 9.710938 -14.4375 10.203125 -14.59375 Z M 10.203125 -14.59375 "/></g></g></g><g fill="#294a44" fill-opacity="1"><g transform="translate(240.776215, 317.434694)"><g/></g></g><g fill="#294a44" fill-opacity="1"><g transform="translate(245.541757, 315.533206)"><g><path d="M -1.1875 -4.78125 L 3.984375 -7.109375 L 2.859375 -9.0625 L -2.328125 -6.703125 Z M -1.1875 -4.78125 "/></g></g></g><g fill="#294a44" fill-opacity="1"><g transform="translate(252.319515, 312.43037)"><g/></g></g><g fill="#294a44" fill-opacity="1"><g transform="translate(257.03521, 310.158439)"><g><path d="M 1.9375 -15.46875 L 0.109375 -14.40625 L -1.625 -3.234375 L -0.125 -1.40625 L 5.078125 -4.4375 L 6.46875 -2.03125 L 8.921875 -3.453125 L 7.53125 -5.859375 L 9.25 -6.875 L 8.328125 -9.03125 L 6.359375 -7.875 Z M 1.015625 -4.765625 L 1.75 -10.140625 L 3.90625 -6.453125 Z M 1.015625 -4.765625 "/></g></g></g><g fill="#294a44" fill-opacity="1"><g transform="translate(267.957616, 303.769843)"><g><path d="M -1.21875 -12.375 C 0.125 -13.3125 1.46875 -13.644531 2.8125 -13.375 C 4.164062 -13.101562 5.328125 -12.273438 6.296875 -10.890625 C 6.929688 -9.992188 7.316406 -9.078125 7.453125 -8.140625 C 7.585938 -7.203125 7.453125 -6.304688 7.046875 -5.453125 C 6.648438 -4.609375 5.992188 -3.867188 5.078125 -3.234375 C 4.597656 -2.890625 3.984375 -2.664062 3.234375 -2.5625 L 5.984375 1.34375 L 3.828125 3.140625 L -4.953125 -9.40625 L -3.78125 -10.234375 L -2.921875 -9.953125 C -2.597656 -10.992188 -2.03125 -11.800781 -1.21875 -12.375 Z M 3.671875 -5.203125 C 4.304688 -5.648438 4.640625 -6.238281 4.671875 -6.96875 C 4.703125 -7.707031 4.445312 -8.457031 3.90625 -9.21875 C 3.375 -9.96875 2.765625 -10.453125 2.078125 -10.671875 C 1.390625 -10.890625 0.722656 -10.773438 0.078125 -10.328125 C -0.421875 -9.984375 -0.8125 -9.457031 -1.09375 -8.75 L 1.78125 -4.640625 C 2.507812 -4.640625 3.140625 -4.828125 3.671875 -5.203125 Z M 3.671875 -5.203125 "/></g></g></g><g fill="#294a44" fill-opacity="1"><g transform="translate(278.342353, 296.66945)"><g><path d="M 3.453125 -17.46875 C 4.359375 -18.257812 5.21875 -18.582031 6.03125 -18.4375 C 6.851562 -18.300781 7.679688 -17.753906 8.515625 -16.796875 L 13.15625 -11.484375 L 11.046875 -9.640625 L 6.78125 -14.53125 C 6.332031 -15.039062 5.910156 -15.351562 5.515625 -15.46875 C 5.128906 -15.59375 4.765625 -15.507812 4.421875 -15.21875 C 4.097656 -14.925781 3.867188 -14.585938 3.734375 -14.203125 C 3.597656 -13.816406 3.453125 -13.28125 3.296875 -12.59375 L 3.46875 -12.390625 L 8.109375 -7.078125 L 5.984375 -5.21875 L 1.71875 -10.109375 C 1.269531 -10.617188 0.847656 -10.929688 0.453125 -11.046875 C 0.0664062 -11.171875 -0.296875 -11.085938 -0.640625 -10.796875 C -0.953125 -10.515625 -1.175781 -10.175781 -1.3125 -9.78125 C -1.457031 -9.394531 -1.609375 -8.847656 -1.765625 -8.140625 L 3.03125 -2.640625 L 0.90625 -0.796875 L -6.03125 -8.734375 L -4.640625 -9.9375 L -3.546875 -9.390625 C -3.359375 -10.171875 -3.085938 -10.890625 -2.734375 -11.546875 C -2.378906 -12.203125 -2 -12.703125 -1.59375 -13.046875 C -0.519531 -13.992188 0.519531 -14.273438 1.53125 -13.890625 C 1.726562 -14.648438 2 -15.347656 2.34375 -15.984375 C 2.6875 -16.628906 3.054688 -17.125 3.453125 -17.46875 Z M 3.453125 -17.46875 "/></g></g></g></svg>