<svg xmlns="http://www.w3.org/2000/svg" xmlns:xlink="http://www.w3.org/1999/xlink" width="600" zoomAndPan="magnify" viewBox="0 0 450 299.999988" height="400" preserveAspectRatio="xMidYMid meet" version="1.0"><defs><clipPath id="90242ad1c4"><path d="M 87 13.183594 L 274 13.183594 L 274 71 L 87 71 Z M 87 13.183594 " clip-rule="nonzero"/></clipPath><clipPath id="d04e17ac96"><path d="M 24.453125 139 L 70 139 L 70 223 L 24.453125 223 Z M 24.453125 139 " clip-rule="nonzero"/></clipPath><clipPath id="0e6f25f567"><path d="M 382 142 L 425.703125 142 L 425.703125 224 L 382 224 Z M 382 142 " clip-rule="nonzero"/></clipPath><clipPath id="bafd08ce64"><path d="M 24.453125 248 L 42 248 L 42 272.683594 L 24.453125 272.683594 Z M 24.453125 248 " clip-rule="nonzero"/></clipPath><clipPath id="6f15ba8eb5"><path d="M 45 247 L 70 247 L 70 272.683594 L 45 272.683594 Z M 45 247 " clip-rule="nonzero"/></clipPath><clipPath id="3c775b3561"><path d="M 71 248 L 90 248 L 90 272.683594 L 71 272.683594 Z M 71 248 " clip-rule="nonzero"/></clipPath><clipPath id="f2b8d685f2"><path d="M 88 247 L 111 247 L 111 272.683594 L 88 272.683594 Z M 88 247 " clip-rule="nonzero"/></clipPath><clipPath id="af5501a5e9"><path d="M 115 247 L 134 247 L 134 272.683594 L 115 272.683594 Z M 115 247 " clip-rule="nonzero"/></clipPath><clipPath id="972a6b0e8a"><path d="M 150 247 L 171 247 L 171 272.683594 L 150 272.683594 Z M 150 247 " clip-rule="nonzero"/></clipPath><clipPath id="14113dd868"><path d="M 185 247 L 208 247 L 208 272.683594 L 185 272.683594 Z M 185 247 " clip-rule="nonzero"/></clipPath><clipPath id="c3df7735be"><path d="M 210 247 L 233 247 L 233 272.683594 L 210 272.683594 Z M 210 247 " clip-rule="nonzero"/></clipPath><clipPath id="277e969673"><path d="M 258 248 L 278 248 L 278 272.683594 L 258 272.683594 Z M 258 248 " clip-rule="nonzero"/></clipPath><clipPath id="7719ae6b3f"><path d="M 283 248 L 299 248 L 299 272.683594 L 283 272.683594 Z M 283 248 " clip-rule="nonzero"/></clipPath><clipPath id="2b13190210"><path d="M 304 247 L 324 247 L 324 272.683594 L 304 272.683594 Z M 304 247 " clip-rule="nonzero"/></clipPath><clipPath id="c8beb04d9a"><path d="M 339 247 L 361 247 L 361 272.683594 L 339 272.683594 Z M 339 247 " clip-rule="nonzero"/></clipPath><clipPath id="183eef76c4"><path d="M 363 247 L 386 247 L 386 272.683594 L 363 272.683594 Z M 363 247 " clip-rule="nonzero"/></clipPath><clipPath id="95cffa13d5"><path d="M 389 248 L 405 248 L 405 272.683594 L 389 272.683594 Z M 389 248 " clip-rule="nonzero"/></clipPath><clipPath id="14eabe800f"><path d="M 410 248 L 425.703125 248 L 425.703125 272.683594 L 410 272.683594 Z M 410 248 " clip-rule="nonzero"/></clipPath><clipPath id="a10dd6e872"><path d="M 4.097656 233.472656 L 446 233.472656 L 446 286.816406 L 4.097656 286.816406 Z M 4.097656 233.472656 " clip-rule="nonzero"/></clipPath><clipPath id="61a1ed911b"><path d="M 11.597656 233.472656 L 438.402344 233.472656 C 440.390625 233.472656 442.296875 234.261719 443.703125 235.671875 C 445.109375 237.078125 445.902344 238.984375 445.902344 240.972656 L 445.902344 279.316406 C 445.902344 281.304688 445.109375 283.214844 443.703125 284.621094 C 442.296875 286.027344 440.390625 286.816406 438.402344 286.816406 L 11.597656 286.816406 C 9.609375 286.816406 7.703125 286.027344 6.296875 284.621094 C 4.890625 283.214844 4.097656 281.304688 4.097656 279.316406 L 4.097656 240.972656 C 4.097656 238.984375 4.890625 237.078125 6.296875 235.671875 C 7.703125 234.261719 9.609375 233.472656 11.597656 233.472656 Z M 11.597656 233.472656 " clip-rule="nonzero"/></clipPath><clipPath id="5703538e10"><path d="M 87 13.183594 L 274 13.183594 L 274 71 L 87 71 Z M 87 13.183594 " clip-rule="nonzero"/></clipPath><clipPath id="19aa768e7a"><path d="M 24.453125 139 L 70 139 L 70 223 L 24.453125 223 Z M 24.453125 139 " clip-rule="nonzero"/></clipPath><clipPath id="07a5d00c70"><path d="M 382 142 L 425.703125 142 L 425.703125 224 L 382 224 Z M 382 142 " clip-rule="nonzero"/></clipPath><clipPath id="7bc08be696"><path d="M 24.453125 248 L 42 248 L 42 272.683594 L 24.453125 272.683594 Z M 24.453125 248 " clip-rule="nonzero"/></clipPath><clipPath id="40bc41520d"><path d="M 45 247 L 70 247 L 70 272.683594 L 45 272.683594 Z M 45 247 " clip-rule="nonzero"/></clipPath><clipPath id="56a7f549e4"><path d="M 71 248 L 90 248 L 90 272.683594 L 71 272.683594 Z M 71 248 " clip-rule="nonzero"/></clipPath><clipPath id="d5e4ded309"><path d="M 88 247 L 111 247 L 111 272.683594 L 88 272.683594 Z M 88 247 " clip-rule="nonzero"/></clipPath><clipPath id="2cf6aac91d"><path d="M 115 247 L 134 247 L 134 272.683594 L 115 272.683594 Z M 115 247 " clip-rule="nonzero"/></clipPath><clipPath id="916701fb4c"><path d="M 150 247 L 171 247 L 171 272.683594 L 150 272.683594 Z M 150 247 " clip-rule="nonzero"/></clipPath><clipPath id="e02e6f0b08"><path d="M 185 247 L 208 247 L 208 272.683594 L 185 272.683594 Z M 185 247 " clip-rule="nonzero"/></clipPath><clipPath id="045b26c3f1"><path d="M 210 247 L 233 247 L 233 272.683594 L 210 272.683594 Z M 210 247 " clip-rule="nonzero"/></clipPath><clipPath id="7b0d5a8d12"><path d="M 258 248 L 278 248 L 278 272.683594 L 258 272.683594 Z M 258 248 " clip-rule="nonzero"/></clipPath><clipPath id="e2e08f66d9"><path d="M 283 248 L 299 248 L 299 272.683594 L 283 272.683594 Z M 283 248 " clip-rule="nonzero"/></clipPath><clipPath id="1dd3e4df84"><path d="M 304 247 L 324 247 L 324 272.683594 L 304 272.683594 Z M 304 247 " clip-rule="nonzero"/></clipPath><clipPath id="2e5e654ed9"><path d="M 339 247 L 361 247 L 361 272.683594 L 339 272.683594 Z M 339 247 " clip-rule="nonzero"/></clipPath><clipPath id="7d2813ef47"><path d="M 363 247 L 386 247 L 386 272.683594 L 363 272.683594 Z M 363 247 " clip-rule="nonzero"/></clipPath><clipPath id="b246092d7a"><path d="M 389 248 L 405 248 L 405 272.683594 L 389 272.683594 Z M 389 248 " clip-rule="nonzero"/></clipPath><clipPath id="f0e88b6563"><path d="M 410 248 L 425.703125 248 L 425.703125 272.683594 L 410 272.683594 Z M 410 248 " clip-rule="nonzero"/></clipPath><clipPath id="ca226a412d"><path d="M 24.453125 248 L 42 248 L 42 272 L 24.453125 272 Z M 24.453125 248 " clip-rule="nonzero"/></clipPath><clipPath id="2d5fc773c2"><path d="M 45 247 L 70 247 L 70 272.472656 L 45 272.472656 Z M 45 247 " clip-rule="nonzero"/></clipPath><clipPath id="5ae80167a9"><path d="M 115 247 L 134 247 L 134 272.472656 L 115 272.472656 Z M 115 247 " clip-rule="nonzero"/></clipPath><clipPath id="5893f57904"><path d="M 150 247 L 171 247 L 171 272.472656 L 150 272.472656 Z M 150 247 " clip-rule="nonzero"/></clipPath><clipPath id="8a8f6d9de2"><path d="M 185 247 L 208 247 L 208 272.472656 L 185 272.472656 Z M 185 247 " clip-rule="nonzero"/></clipPath><clipPath id="c6d8d91562"><path d="M 304 247 L 324 247 L 324 272.472656 L 304 272.472656 Z M 304 247 " clip-rule="nonzero"/></clipPath><clipPath id="c0cbd371ef"><path d="M 339 247 L 361 247 L 361 272.472656 L 339 272.472656 Z M 339 247 " clip-rule="nonzero"/></clipPath><clipPath id="a2e8e5cecb"><path d="M 410 248 L 425.703125 248 L 425.703125 272 L 410 272 Z M 410 248 " clip-rule="nonzero"/></clipPath></defs><path fill="#2b7151" d="M 391.609375 110.238281 C 379.027344 109.992188 370.113281 108.398438 356.824219 100.902344 C 349.238281 96.625 341.050781 88.453125 329.707031 79.507812 C 312.023438 65.738281 294.839844 56.628906 278.332031 50.808594 C 278.332031 50.828125 278.34375 50.847656 278.351562 50.871094 C 278.320312 50.839844 278.300781 50.816406 278.269531 50.789062 C 277.453125 50.5 276.644531 50.234375 275.835938 49.960938 C 275.007812 49.683594 274.191406 49.417969 273.363281 49.152344 C 260.339844 45.070312 247.757812 42.953125 235.390625 42.238281 C 233.550781 43.160156 231.925781 44.222656 230.441406 45.386719 C 229.214844 46.34375 228.050781 47.375 226.925781 48.460938 C 226.539062 48.828125 226.160156 49.203125 225.773438 49.582031 C 225.054688 50.289062 224.351562 51.011719 223.625 51.746094 C 220.710938 54.710938 217.441406 57.292969 214.128906 59.804688 C 212.21875 65.066406 212.71875 71.457031 211.71875 76.984375 C 211.511719 78.128906 211.359375 79.691406 211.125 81.335938 C 223.390625 82.457031 236.933594 84.417969 252.101562 87.246094 C 292.273438 95.328125 312.902344 80.375 344.773438 104.078125 C 353.011719 109.449219 361.078125 114.242188 372.371094 116.179688 C 392.171875 119.582031 399.5625 116.90625 399.632812 113.8125 C 399.734375 109.582031 399.5625 110.359375 391.617188 110.238281 Z M 233.582031 68.660156 C 232.734375 68.066406 232.097656 67.117188 232.292969 66.136719 C 232.488281 65.148438 233.417969 64.636719 234.296875 64.207031 C 236.035156 63.347656 239.164062 61.910156 241.195312 63.144531 C 242.433594 63.890625 242.402344 64.605469 242.136719 65.628906 C 241.6875 66.863281 240.410156 67.964844 239.601562 68.464844 C 237.964844 69.488281 235.402344 69.925781 233.589844 68.671875 Z M 242.042969 75.378906 C 241.535156 75.910156 241.289062 76.035156 240.789062 76.125 C 240.144531 76.25 239.386719 76.074219 239.007812 75.472656 C 238.683594 74.960938 238.761719 74.359375 239.070312 73.910156 C 239.652344 73.0625 241.492188 72.53125 242.371094 73.550781 C 242.730469 73.960938 242.566406 74.890625 242.035156 75.378906 Z M 250.179688 71.070312 C 249.078125 71.4375 247.585938 71.40625 246.582031 70.621094 C 245.46875 69.742188 245.746094 68.445312 246.625 67.628906 C 247.554688 66.769531 249.015625 66.1875 250.394531 66.433594 C 251.253906 66.585938 251.804688 67.109375 252.234375 67.882812 C 252.367188 68.097656 252.460938 68.355469 252.480469 68.660156 C 252.574219 69.84375 251.214844 70.734375 250.191406 71.070312 Z M 250.179688 71.070312 " fill-opacity="1" fill-rule="nonzero"/><path fill="#2b7151" d="M 211.03125 62.144531 C 206.933594 65.238281 202.886719 68.355469 198.949219 71.550781 C 195.636719 74.246094 192.753906 77.230469 189.894531 80.25 C 195.84375 80.273438 202.140625 80.578125 208.8125 81.140625 C 208.96875 80.015625 209.089844 78.964844 209.222656 78.179688 C 209.632812 75.859375 209.957031 73.523438 210.222656 71.171875 C 210.5625 68.25 210.46875 65.097656 211.023438 62.15625 Z M 211.03125 62.144531 " fill-opacity="1" fill-rule="nonzero"/><path fill="#789b4a" d="M 222.203125 49.574219 C 222.46875 49.308594 222.734375 49.03125 223 48.753906 C 223.113281 48.644531 223.226562 48.53125 223.339844 48.417969 C 224.433594 47.253906 225.535156 46.160156 226.679688 45.140625 C 227.949219 44.007812 229.289062 42.976562 230.75 42.046875 C 216.796875 41.636719 203.089844 42.933594 189.074219 45.242188 C 166.148438 49.011719 145.980469 59.816406 130.875 71.347656 C 129.820312 72.152344 128.796875 72.960938 127.785156 73.765625 C 114.835938 84.214844 104.367188 95.265625 97.375 99.269531 C 81.933594 108.183594 66.117188 110.910156 58.320312 112.1875 C 58.320312 112.1875 53.984375 112.757812 52.484375 113.21875 C 51.09375 113.648438 49.46875 114.792969 51.378906 115.527344 C 52.972656 116.140625 55.582031 116.785156 68.816406 115.894531 C 75.226562 115.464844 81.59375 114.425781 90.210938 112.074219 C 108.988281 105.886719 115.511719 103.761719 138.582031 91.027344 C 152.1875 83.703125 167.628906 80.558594 186.59375 80.292969 C 193.152344 72.703125 201.269531 66.546875 209.507812 60.285156 C 213.945312 56.925781 218.300781 53.546875 222.203125 49.59375 Z M 222.203125 49.574219 " fill-opacity="1" fill-rule="nonzero"/><path fill="#ce7b29" d="M 266.21875 20.046875 C 261.40625 18.972656 256.792969 18.117188 252.339844 17.441406 C 257.621094 22.578125 262.253906 28.113281 267.191406 33.425781 C 269.714844 36.152344 272.382812 38.746094 275.050781 41.339844 C 273.925781 37.183594 273.515625 32.90625 271.78125 28.851562 C 270.421875 25.703125 268.34375 22.867188 266.230469 20.046875 Z M 266.21875 20.046875 " fill-opacity="1" fill-rule="nonzero"/><path fill="#d69929" d="M 284.300781 24.765625 C 279.355469 23.292969 274.671875 22.039062 270.164062 20.964844 C 271.566406 23.101562 272.800781 25.285156 273.761719 27.449219 C 276.164062 32.933594 276.65625 38.847656 278.269531 44.476562 C 294.878906 50.308594 312.175781 59.429688 329.972656 73.203125 C 341.398438 82.152344 349.636719 89.257812 356.355469 94.886719 C 355.71875 92.261719 328.347656 37.632812 284.289062 24.753906 Z M 298.242188 41.574219 C 297.691406 42.433594 296.640625 42.820312 295.566406 42.894531 C 294.347656 42.964844 292.988281 42.636719 291.894531 42.046875 C 290.320312 41.207031 288.984375 39.246094 290.28125 37.867188 C 291.527344 36.539062 294.023438 36.777344 295.679688 37.5625 C 297.148438 38.257812 299.253906 40.003906 298.234375 41.574219 Z M 298.242188 41.574219 " fill-opacity="1" fill-rule="nonzero"/><g clip-path="url(#90242ad1c4)"><path fill="#ce7b29" d="M 248.300781 16.878906 C 223.257812 13.796875 207.742188 9.855469 174.867188 18.125 C 142.320312 26.316406 135.402344 33.230469 109.171875 54.515625 C 103.214844 59.347656 93.257812 64.890625 87.6875 70.917969 C 93.644531 69.335938 99.585938 67.679688 105.769531 66.730469 C 113.679688 65.503906 121.828125 65.585938 129.839844 65.042969 C 145.0625 53.503906 165.363281 42.6875 188.441406 38.910156 C 202.546875 36.589844 216.335938 35.304688 230.382812 35.714844 C 231.933594 35.753906 233.5 35.824219 235.054688 35.90625 C 247.503906 36.613281 260.167969 38.738281 273.273438 42.820312 C 272.320312 41.851562 271.359375 40.890625 270.378906 39.953125 C 262.816406 32.710938 256.230469 24.203125 248.300781 16.878906 Z M 224.839844 26.992188 C 223.769531 28.21875 222.511719 28.789062 219.875 29.105469 C 219.167969 29.1875 218.472656 29.167969 217.851562 29.042969 C 215.601562 28.605469 213.054688 26.480469 215.191406 24.773438 C 217 23.324219 220.324219 22.109375 222.929688 22.445312 C 225.507812 22.785156 226.210938 25.429688 224.839844 26.992188 Z M 234.839844 21.84375 C 235.371094 22.273438 235.644531 22.96875 235.371094 23.539062 C 235.113281 24.050781 234.929688 24.222656 233.96875 24.429688 C 233.304688 24.5 233.050781 24.429688 232.609375 24.324219 C 231.863281 24.140625 231.363281 23.550781 231.363281 22.894531 C 231.351562 21.445312 233.652344 20.875 234.847656 21.855469 Z M 245.601562 26.09375 C 244.558594 26.550781 243.382812 26.65625 242.230469 26.53125 C 240.960938 26.398438 239.796875 25.53125 240.101562 24.335938 C 240.398438 23.183594 241.882812 22.742188 243.109375 22.691406 C 244.3125 22.628906 245.898438 22.945312 246.5 24.007812 C 247.003906 24.90625 246.441406 25.765625 245.601562 26.09375 Z M 245.601562 26.09375 " fill-opacity="1" fill-rule="nonzero"/></g><path fill="#cb998d" d="M 85.40625 73.859375 C 85.191406 74.207031 85.058594 74.605469 84.804688 74.898438 C 78.90625 81.621094 59.660156 96.550781 52.933594 106.96875 C 54.515625 106.683594 56.03125 106.480469 56.03125 106.480469 C 55.027344 106.582031 82.125 102.84375 97.253906 92.652344 C 103.960938 88.15625 113.691406 77.914062 126.734375 67.457031 C 120.019531 67.851562 113.199219 67.863281 106.566406 68.863281 C 99.320312 69.957031 92.417969 72.050781 85.417969 73.859375 Z M 92.246094 82.417969 C 91.613281 83.214844 90.363281 83.589844 89.332031 83.746094 C 88.199219 83.90625 86.929688 83.335938 86.816406 82.078125 C 86.707031 80.875 87.851562 80.097656 88.894531 79.75 C 89.90625 79.414062 91.375 79.34375 92.226562 80.25 C 92.941406 81.019531 92.777344 81.703125 92.246094 82.417969 Z M 101.9375 75.953125 C 101.855469 76.515625 101.699219 76.984375 100.945312 77.167969 C 100.535156 77.257812 100.136719 77.3125 99.726562 77.289062 C 99.03125 77.257812 98.429688 76.769531 98.246094 76.125 C 97.835938 74.695312 99.695312 73.65625 101.003906 74.378906 C 101.589844 74.695312 102.015625 75.328125 101.9375 75.953125 Z M 101.9375 75.953125 " fill-opacity="1" fill-rule="nonzero"/><g clip-path="url(#d04e17ac96)"><path fill="#004538" d="M 35.566406 144.09375 C 35.566406 144.09375 24.515625 153.140625 24.640625 180.675781 C 24.761719 208.210938 25.417969 221.25 42.804688 222.28125 C 60.179688 223.316406 63.777344 205.808594 65.230469 199.019531 C 66.679688 192.226562 67.835938 188.292969 62.664062 187.925781 C 57.492188 187.570312 51.347656 187.34375 48.300781 187.457031 C 45.257812 187.570312 43.988281 188.019531 43.710938 192.910156 C 43.4375 197.800781 46.972656 197.527344 50.417969 197.800781 C 53.863281 198.078125 56.828125 197.382812 56.253906 200.171875 C 55.683594 202.960938 51.144531 209.394531 46.523438 209.671875 C 41.902344 209.945312 35.730469 205.226562 35.820312 188.742188 C 35.914062 172.261719 35.914062 167.542969 40.625 157.214844 C 45.339844 146.890625 51.6875 151.058594 55.765625 157.03125 C 59.84375 163.007812 62.410156 165.355469 66.160156 163.097656 C 69.910156 160.84375 70.09375 157.03125 67.191406 152.417969 C 64.289062 147.800781 58.941406 141.550781 53.136719 140.273438 C 47.332031 138.996094 41.472656 139.027344 35.566406 144.09375 Z M 35.566406 144.09375 " fill-opacity="1" fill-rule="nonzero"/></g><path fill="#004538" d="M 111.707031 147.882812 C 105.542969 134.839844 93.03125 138.640625 88.136719 146.339844 C 83.238281 154.039062 80.613281 176.324219 80.613281 176.324219 C 80.613281 176.324219 77.894531 200.785156 77.527344 212.558594 C 77.167969 224.335938 80.265625 223.292969 81.859375 223.4375 C 83.453125 223.578125 89.773438 224.613281 89.402344 215.460938 C 89.046875 206.308594 91.039062 192.265625 91.488281 188.558594 C 91.9375 184.851562 97.929688 185.933594 102.394531 186.007812 C 106.863281 186.078125 106.902344 188.019531 106.902344 191.183594 C 106.902344 194.351562 107.351562 206.402344 107.539062 212.558594 C 107.722656 218.71875 109.171875 222.4375 113.34375 223.253906 C 117.511719 224.070312 119.691406 226.785156 119.96875 210.121094 C 120.242188 193.453125 117.882812 160.933594 111.71875 147.882812 Z M 100.832031 181.492188 C 96.386719 181.585938 92.121094 182.757812 93.574219 171.890625 C 93.574219 171.890625 95.117188 159.484375 97.835938 152.957031 C 100.554688 146.429688 101.558594 152.867188 102.457031 156.308594 C 103.367188 159.75 105.808594 174.964844 105.902344 178.234375 C 105.992188 181.492188 105.269531 181.402344 100.820312 181.492188 Z M 100.832031 181.492188 " fill-opacity="1" fill-rule="nonzero"/><path fill="#004538" d="M 153.597656 197.800781 C 149.519531 193.726562 153.78125 195.8125 161.753906 187.742188 C 169.734375 179.683594 174.714844 167.632812 166.925781 154.765625 C 159.125 141.898438 151.695312 141.632812 142.628906 143.898438 C 133.5625 146.167969 134.472656 154.316406 134.472656 158.851562 C 134.472656 163.386719 134.195312 188.292969 134.195312 188.292969 C 134.195312 188.292969 133.746094 194.914062 133.46875 208.21875 C 133.195312 221.539062 136.464844 221.894531 139.910156 221.539062 C 143.355469 221.179688 143.261719 212.203125 143.445312 205.777344 C 143.628906 199.34375 145.367188 200.753906 146.890625 202.335938 C 148.414062 203.921875 154.054688 209.671875 160.558594 215.644531 C 167.058594 221.617188 169.644531 214.746094 167.375 212.9375 C 165.105469 211.128906 157.675781 201.886719 153.597656 197.8125 Z M 148.792969 184.761719 C 146.238281 186.445312 144.898438 187.660156 145.070312 182.136719 C 145.253906 176.609375 145.511719 172.71875 145.511719 172.71875 C 145.511719 172.71875 145.625 160.21875 145.980469 157.132812 C 146.339844 154.050781 149.066406 149.34375 154.863281 152.242188 C 160.667969 155.144531 161.027344 166.644531 156.949219 174.34375 C 152.871094 182.042969 151.347656 183.074219 148.792969 184.761719 Z M 148.792969 184.761719 " fill-opacity="1" fill-rule="nonzero"/><path fill="#004538" d="M 181.164062 188.742188 C 181.164062 188.742188 179.710938 168 188.503906 154.683594 C 197.292969 141.367188 209.722656 143.265625 217.789062 150.964844 C 225.851562 158.667969 219.578125 163.230469 216.101562 161.578125 C 212.625 159.921875 204.550781 151.046875 198.746094 158.75 C 192.941406 166.449219 189.320312 183.75 191.40625 193.71875 C 193.492188 203.683594 195.484375 208.117188 203.007812 204.953125 C 210.53125 201.785156 212.605469 191 208.578125 190.777344 C 204.550781 190.550781 201.648438 190.644531 202.191406 185.660156 C 202.730469 180.675781 203.550781 179.675781 210.253906 179.949219 C 216.960938 180.226562 222.410156 177.773438 221.050781 195.445312 C 219.691406 213.113281 208.445312 219.628906 197.660156 219.085938 C 186.867188 218.546875 181.164062 203.777344 181.164062 188.742188 Z M 181.164062 188.742188 " fill-opacity="1" fill-rule="nonzero"/><path fill="#004538" d="M 235.972656 223.710938 C 240.960938 224.347656 245.878906 222.886719 246.367188 214.917969 C 246.859375 206.953125 247.125 194.453125 247.03125 191.367188 C 246.941406 188.285156 246.675781 185.75 252.472656 186.027344 C 258.265625 186.304688 263.082031 185.667969 263.171875 190.46875 C 263.265625 195.269531 264.164062 213.304688 264.308594 217.378906 C 264.449219 221.457031 265.972656 223.457031 271.832031 223.445312 C 277.6875 223.445312 276.074219 211.875 275.878906 208.414062 C 275.878906 208.414062 274.601562 177.785156 271.515625 162.015625 C 268.425781 146.257812 262.171875 139.730469 252.839844 140.007812 C 243.496094 140.285156 236.371094 153.875 235.082031 178.785156 C 233.796875 203.695312 230.984375 223.078125 235.972656 223.710938 Z M 248.117188 178.328125 C 248.066406 175.917969 249.292969 164.46875 251.019531 157.492188 C 252.746094 150.515625 253.460938 148.25 256.097656 153.957031 C 258.726562 159.667969 260.453125 172.894531 260.453125 172.894531 C 260.453125 172.894531 260.636719 174.792969 260.902344 178.144531 C 261.179688 181.492188 260.453125 181.308594 254.28125 181.402344 C 248.117188 181.492188 248.167969 180.726562 248.117188 178.316406 Z M 248.117188 178.328125 " fill-opacity="1" fill-rule="nonzero"/><path fill="#004538" d="M 309.089844 193.003906 C 316.886719 189.652344 323.050781 180.859375 324.410156 166.910156 C 325.769531 152.957031 312.535156 141.632812 301.566406 142.898438 C 290.597656 144.164062 289.054688 151.230469 288.777344 156.574219 C 288.503906 161.914062 288.050781 192.714844 288.050781 192.714844 C 288.050781 192.714844 287.777344 215.449219 288.144531 218.8125 C 288.503906 222.160156 292.132812 221.976562 295.21875 221.527344 C 298.304688 221.078125 297.9375 212.917969 297.84375 207.484375 C 297.753906 202.050781 298.027344 200.785156 299.746094 202.410156 C 301.472656 204.042969 305.910156 209.199219 308.535156 212.46875 C 311.164062 215.726562 314.792969 219.535156 318.777344 216.09375 C 322.765625 212.652344 318.777344 210.84375 314.425781 205.769531 C 310.070312 200.691406 301.28125 196.351562 309.078125 192.992188 Z M 302.25 185.28125 C 300.441406 186.4375 299.296875 186.648438 299.296875 178.777344 C 299.296875 178.777344 300.023438 163.558594 300.207031 159.023438 C 300.390625 154.488281 302.464844 149.933594 307.820312 151.171875 C 313.167969 152.40625 316.4375 162.558594 312.535156 172.339844 C 308.640625 182.125 304.058594 184.128906 302.25 185.28125 Z M 302.25 185.28125 " fill-opacity="1" fill-rule="nonzero"/><path fill="#004538" d="M 368.9375 180.5 C 378.09375 165.824219 370.839844 155.316406 363.40625 147.800781 C 355.976562 140.285156 349.445312 142.457031 342.257812 147.421875 C 335.074219 152.386719 336.65625 167.367188 336.65625 167.367188 C 336.65625 167.367188 336.472656 179.328125 336.300781 187.570312 C 336.113281 195.8125 336.023438 213.203125 336.113281 217.460938 C 336.207031 221.722656 340.46875 223.078125 343.003906 221.089844 C 345.539062 219.097656 345.273438 204.238281 346.019531 201.335938 C 346.765625 198.4375 350.804688 204.511719 356.703125 211.027344 C 362.597656 217.554688 365.042969 217.09375 366.945312 216.105469 C 368.84375 215.101562 368.9375 212.847656 366.851562 210.039062 C 364.765625 207.230469 360.320312 202.703125 355.882812 197.535156 C 351.4375 192.371094 359.777344 195.179688 368.9375 180.5 Z M 353.523438 182.125 C 347.082031 187.46875 346.808594 183.914062 347.605469 172.710938 C 348.402344 161.507812 348.625 154.222656 351.222656 152.039062 C 353.820312 149.851562 361.046875 149.609375 361.773438 162.914062 C 362.496094 176.234375 353.523438 182.117188 353.523438 182.117188 Z M 353.523438 182.125 " fill-opacity="1" fill-rule="nonzero"/><g clip-path="url(#0e6f25f567)"><path fill="#004538" d="M 402.484375 142.378906 C 384.074219 145.472656 383.625 169.605469 383.625 169.605469 C 383.625 169.605469 381.988281 179.550781 382.714844 199.058594 C 383.441406 218.566406 392.507812 226.09375 405.203125 223.394531 C 417.898438 220.691406 425.515625 203.5 425.515625 184.1875 C 425.515625 164.875 420.894531 139.292969 402.484375 142.378906 Z M 414.085938 192.6875 C 409.546875 210.066406 404.570312 220.320312 399.53125 213.550781 C 394.5 206.78125 398.671875 173.761719 398.671875 173.761719 C 398.671875 173.761719 400.714844 154.683594 406.765625 154.855469 C 412.820312 155.03125 418.613281 175.304688 414.085938 192.6875 Z M 414.085938 192.6875 " fill-opacity="1" fill-rule="nonzero"/></g><g clip-path="url(#bafd08ce64)"><path fill="#004538" d="M 24.710938 248.214844 L 31.988281 248.214844 C 36.855469 248.214844 39.574219 251.0625 39.574219 254.300781 C 39.574219 256.445312 38.417969 258.242188 36.3125 259.234375 C 39.511719 260.113281 41.28125 262.285156 41.28125 265.175781 C 41.28125 268.988281 38.285156 272.007812 32.949219 272.007812 L 24.710938 272.007812 Z M 31.917969 258.242188 C 34.910156 258.242188 36.578125 256.742188 36.578125 254.433594 C 36.578125 252.125 34.910156 250.664062 31.917969 250.664062 L 27.707031 250.664062 L 27.707031 258.242188 L 31.925781 258.242188 Z M 32.878906 269.488281 C 36.34375 269.488281 38.253906 267.824219 38.253906 265.066406 C 38.253906 262.308594 36.382812 260.683594 32.878906 260.683594 L 27.707031 260.683594 L 27.707031 269.488281 Z M 32.878906 269.488281 " fill-opacity="1" fill-rule="nonzero"/></g><g clip-path="url(#6f15ba8eb5)"><path fill="#004538" d="M 45.214844 260.113281 C 45.214844 252.910156 50.59375 247.714844 57.183594 247.714844 C 63.777344 247.714844 69.195312 252.910156 69.195312 260.113281 C 69.195312 267.3125 63.820312 272.519531 57.183594 272.519531 C 50.550781 272.519531 45.214844 267.320312 45.214844 260.113281 Z M 66.171875 260.113281 C 66.171875 254.402344 62.152344 250.390625 57.195312 250.390625 C 52.238281 250.390625 48.21875 254.402344 48.21875 260.113281 C 48.21875 265.820312 52.269531 269.835938 57.195312 269.835938 C 62.121094 269.835938 66.171875 265.820312 66.171875 260.113281 Z M 66.171875 260.113281 " fill-opacity="1" fill-rule="nonzero"/></g><g clip-path="url(#3c775b3561)"><path fill="#004538" d="M 79.121094 250.867188 L 71.503906 250.867188 L 71.503906 248.214844 L 89.730469 248.214844 L 89.730469 250.867188 L 82.117188 250.867188 L 82.117188 272.007812 L 79.121094 272.007812 Z M 79.121094 250.867188 " fill-opacity="1" fill-rule="nonzero"/></g><g clip-path="url(#f2b8d685f2)"><path fill="#004538" d="M 99.554688 247.539062 L 99.828125 247.539062 L 110.613281 272.007812 L 107.484375 272.007812 L 105.511719 267.21875 L 93.882812 267.21875 L 91.910156 272.007812 L 88.78125 272.007812 L 99.5625 247.539062 Z M 104.492188 264.726562 L 99.695312 253.175781 L 94.933594 264.726562 Z M 104.492188 264.726562 " fill-opacity="1" fill-rule="nonzero"/></g><g clip-path="url(#af5501a5e9)"><path fill="#004538" d="M 118.054688 255.015625 L 118.054688 272.007812 L 115.058594 272.007812 L 115.058594 247.539062 L 115.367188 247.539062 L 130.914062 265.308594 L 130.914062 248.214844 L 133.910156 248.214844 L 133.910156 272.683594 L 133.632812 272.683594 Z M 118.054688 255.015625 " fill-opacity="1" fill-rule="nonzero"/></g><path fill="#004538" d="M 140.929688 248.214844 L 143.925781 248.214844 L 143.925781 272 L 140.929688 272 Z M 140.929688 248.214844 " fill-opacity="1" fill-rule="nonzero"/><g clip-path="url(#972a6b0e8a)"><path fill="#004538" d="M 150.050781 260.113281 C 150.050781 252.910156 155.28125 247.714844 162.019531 247.714844 C 165.1875 247.714844 168.070312 248.835938 170.351562 251.113281 L 168.855469 253.1875 C 166.882812 251.421875 164.429688 250.398438 161.957031 250.398438 C 156.988281 250.398438 153.042969 254.414062 153.042969 260.121094 C 153.042969 265.832031 156.988281 269.84375 161.988281 269.84375 C 165.351562 269.84375 167.703125 268.078125 169.296875 266.484375 L 170.789062 268.730469 C 168.539062 270.9375 165.761719 272.539062 162.019531 272.539062 C 155.28125 272.539062 150.050781 267.34375 150.050781 260.132812 Z M 150.050781 260.113281 " fill-opacity="1" fill-rule="nonzero"/></g><g clip-path="url(#14113dd868)"><path fill="#004538" d="M 185.578125 260.070312 C 185.578125 252.902344 190.8125 247.703125 197.550781 247.703125 C 200.71875 247.703125 203.601562 248.828125 205.878906 251.105469 L 204.386719 253.175781 C 202.414062 251.410156 199.960938 250.390625 197.488281 250.390625 C 192.519531 250.390625 188.574219 254.402344 188.574219 260.113281 C 188.574219 265.820312 192.550781 269.835938 197.449219 269.835938 C 200.269531 269.835938 202.3125 268.546875 204.144531 266.738281 L 204.144531 261.878906 L 196.835938 261.878906 L 196.835938 259.292969 L 207.078125 259.292969 L 207.078125 267.546875 C 204.765625 270.539062 201.464844 272.511719 197.417969 272.511719 C 190.886719 272.511719 185.578125 267.3125 185.578125 260.070312 Z M 185.578125 260.070312 " fill-opacity="1" fill-rule="nonzero"/></g><g clip-path="url(#c3df7735be)"><path fill="#004538" d="M 221.417969 247.539062 L 221.691406 247.539062 L 232.476562 272.007812 L 229.347656 272.007812 L 227.375 267.21875 L 215.746094 267.21875 L 213.769531 272.007812 L 210.644531 272.007812 L 221.425781 247.539062 Z M 226.355469 264.726562 L 221.558594 253.175781 L 216.796875 264.726562 Z M 226.355469 264.726562 " fill-opacity="1" fill-rule="nonzero"/></g><path fill="#004538" d="M 236.921875 248.214844 L 243.691406 248.214844 C 249.269531 248.214844 252.5 251.644531 252.5 255.820312 C 252.5 258.949219 250.703125 261.632812 247.460938 262.816406 L 253.585938 271.988281 L 250.179688 271.988281 L 244.539062 263.390625 C 244.261719 263.421875 243.957031 263.421875 243.691406 263.421875 L 239.917969 263.421875 L 239.917969 271.988281 L 236.921875 271.988281 L 236.921875 248.203125 Z M 243.628906 260.929688 C 247.339844 260.929688 249.515625 258.925781 249.515625 255.863281 C 249.515625 252.800781 247.308594 250.734375 243.628906 250.734375 L 239.917969 250.734375 L 239.917969 260.929688 Z M 243.628906 260.929688 " fill-opacity="1" fill-rule="nonzero"/><g clip-path="url(#277e969673)"><path fill="#004538" d="M 258.789062 248.214844 L 264.707031 248.214844 C 273.515625 248.214844 277.769531 253.515625 277.769531 260.113281 C 277.769531 266.710938 273.515625 272.007812 264.707031 272.007812 L 258.789062 272.007812 Z M 264.675781 269.355469 C 271.820312 269.355469 274.773438 265.238281 274.773438 260.113281 C 274.773438 254.984375 271.820312 250.867188 264.675781 250.867188 L 261.78125 250.867188 L 261.78125 269.355469 Z M 264.675781 269.355469 " fill-opacity="1" fill-rule="nonzero"/></g><g clip-path="url(#7719ae6b3f)"><path fill="#004538" d="M 283.410156 248.214844 L 298.480469 248.214844 L 298.480469 250.867188 L 286.40625 250.867188 L 286.40625 259.265625 L 297.121094 259.265625 L 297.121094 261.917969 L 286.40625 261.917969 L 286.40625 269.363281 L 298.828125 269.363281 L 298.828125 272.019531 L 283.421875 272.019531 L 283.421875 248.234375 Z M 283.410156 248.214844 " fill-opacity="1" fill-rule="nonzero"/></g><g clip-path="url(#2b13190210)"><path fill="#004538" d="M 307.382812 255.015625 L 307.382812 272.007812 L 304.386719 272.007812 L 304.386719 247.539062 L 304.695312 247.539062 L 320.242188 265.308594 L 320.242188 248.214844 L 323.234375 248.214844 L 323.234375 272.683594 L 322.960938 272.683594 Z M 307.382812 255.015625 " fill-opacity="1" fill-rule="nonzero"/></g><g clip-path="url(#c8beb04d9a)"><path fill="#004538" d="M 339.273438 260.113281 C 339.273438 252.910156 344.507812 247.714844 351.242188 247.714844 C 354.410156 247.714844 357.292969 248.835938 359.574219 251.113281 L 358.082031 253.1875 C 356.109375 251.421875 353.65625 250.398438 351.183594 250.398438 C 346.214844 250.398438 342.269531 254.414062 342.269531 260.121094 C 342.269531 265.832031 346.214844 269.84375 351.210938 269.84375 C 354.574219 269.84375 356.925781 268.078125 358.519531 266.484375 L 360.011719 268.730469 C 357.765625 270.9375 354.984375 272.539062 351.242188 272.539062 C 344.507812 272.539062 339.273438 267.34375 339.273438 260.132812 Z M 339.273438 260.113281 " fill-opacity="1" fill-rule="nonzero"/></g><g clip-path="url(#183eef76c4)"><path fill="#004538" d="M 373.996094 247.539062 L 374.273438 247.539062 L 385.054688 272.007812 L 381.929688 272.007812 L 379.957031 267.21875 L 368.324219 267.21875 L 366.351562 272.007812 L 363.222656 272.007812 L 374.007812 247.539062 Z M 378.921875 264.726562 L 374.128906 253.175781 L 369.367188 264.726562 Z M 378.921875 264.726562 " fill-opacity="1" fill-rule="nonzero"/></g><g clip-path="url(#95cffa13d5)"><path fill="#004538" d="M 389.492188 248.214844 L 404.558594 248.214844 L 404.558594 250.867188 L 392.488281 250.867188 L 392.488281 259.265625 L 402.554688 259.265625 L 402.554688 261.917969 L 392.488281 261.917969 L 392.488281 272.007812 L 389.492188 272.007812 Z M 389.492188 248.214844 " fill-opacity="1" fill-rule="nonzero"/></g><g clip-path="url(#14eabe800f)"><path fill="#004538" d="M 410.101562 248.214844 L 425.167969 248.214844 L 425.167969 250.867188 L 413.09375 250.867188 L 413.09375 259.265625 L 423.808594 259.265625 L 423.808594 261.917969 L 413.09375 261.917969 L 413.09375 269.363281 L 425.515625 269.363281 L 425.515625 272.019531 L 410.109375 272.019531 L 410.109375 248.234375 Z M 410.101562 248.214844 " fill-opacity="1" fill-rule="nonzero"/></g><g clip-path="url(#a10dd6e872)"><g clip-path="url(#61a1ed911b)"><path fill="#789c4d" d="M 4.097656 233.472656 L 445.847656 233.472656 L 445.847656 286.816406 L 4.097656 286.816406 Z M 4.097656 233.472656 " fill-opacity="1" fill-rule="nonzero"/></g></g><path fill="#2b7151" d="M 391.609375 110.238281 C 379.027344 109.992188 370.113281 108.398438 356.824219 100.902344 C 349.238281 96.625 341.050781 88.453125 329.707031 79.507812 C 312.023438 65.738281 294.839844 56.628906 278.332031 50.808594 C 278.332031 50.828125 278.34375 50.847656 278.351562 50.871094 C 278.320312 50.839844 278.300781 50.816406 278.269531 50.789062 C 277.453125 50.5 276.644531 50.234375 275.835938 49.960938 C 275.007812 49.683594 274.191406 49.417969 273.363281 49.152344 C 260.339844 45.070312 247.757812 42.953125 235.390625 42.238281 C 233.550781 43.160156 231.925781 44.222656 230.441406 45.386719 C 229.214844 46.34375 228.050781 47.375 226.925781 48.460938 C 226.539062 48.828125 226.160156 49.203125 225.773438 49.582031 C 225.054688 50.289062 224.351562 51.011719 223.625 51.746094 C 220.710938 54.710938 217.441406 57.292969 214.128906 59.804688 C 212.21875 65.066406 212.71875 71.457031 211.71875 76.984375 C 211.511719 78.128906 211.359375 79.691406 211.125 81.335938 C 223.390625 82.457031 236.933594 84.417969 252.101562 87.246094 C 292.273438 95.328125 312.902344 80.375 344.773438 104.078125 C 353.011719 109.449219 361.078125 114.242188 372.371094 116.179688 C 392.171875 119.582031 399.5625 116.90625 399.632812 113.8125 C 399.734375 109.582031 399.5625 110.359375 391.617188 110.238281 Z M 233.582031 68.660156 C 232.734375 68.066406 232.097656 67.117188 232.292969 66.136719 C 232.488281 65.148438 233.417969 64.636719 234.296875 64.207031 C 236.035156 63.347656 239.164062 61.910156 241.195312 63.144531 C 242.433594 63.890625 242.402344 64.605469 242.136719 65.628906 C 241.6875 66.863281 240.410156 67.964844 239.601562 68.464844 C 237.964844 69.488281 235.402344 69.925781 233.589844 68.671875 Z M 242.042969 75.378906 C 241.535156 75.910156 241.289062 76.035156 240.789062 76.125 C 240.144531 76.25 239.386719 76.074219 239.007812 75.472656 C 238.683594 74.960938 238.761719 74.359375 239.070312 73.910156 C 239.652344 73.0625 241.492188 72.53125 242.371094 73.550781 C 242.730469 73.960938 242.566406 74.890625 242.035156 75.378906 Z M 250.179688 71.070312 C 249.078125 71.4375 247.585938 71.40625 246.582031 70.621094 C 245.46875 69.742188 245.746094 68.445312 246.625 67.628906 C 247.554688 66.769531 249.015625 66.1875 250.394531 66.433594 C 251.253906 66.585938 251.804688 67.109375 252.234375 67.882812 C 252.367188 68.097656 252.460938 68.355469 252.480469 68.660156 C 252.574219 69.84375 251.214844 70.734375 250.191406 71.070312 Z M 250.179688 71.070312 " fill-opacity="1" fill-rule="nonzero"/><path fill="#2b7151" d="M 211.03125 62.144531 C 206.933594 65.238281 202.886719 68.355469 198.949219 71.550781 C 195.636719 74.246094 192.753906 77.230469 189.894531 80.25 C 195.84375 80.273438 202.140625 80.578125 208.8125 81.140625 C 208.96875 80.015625 209.089844 78.964844 209.222656 78.179688 C 209.632812 75.859375 209.957031 73.523438 210.222656 71.171875 C 210.5625 68.25 210.46875 65.097656 211.023438 62.15625 Z M 211.03125 62.144531 " fill-opacity="1" fill-rule="nonzero"/><path fill="#789b4a" d="M 222.203125 49.574219 C 222.46875 49.308594 222.734375 49.03125 223 48.753906 C 223.113281 48.644531 223.226562 48.53125 223.339844 48.417969 C 224.433594 47.253906 225.535156 46.160156 226.679688 45.140625 C 227.949219 44.007812 229.289062 42.976562 230.75 42.046875 C 216.796875 41.636719 203.089844 42.933594 189.074219 45.242188 C 166.148438 49.011719 145.980469 59.816406 130.875 71.347656 C 129.820312 72.152344 128.796875 72.960938 127.785156 73.765625 C 114.835938 84.214844 104.367188 95.265625 97.375 99.269531 C 81.933594 108.183594 66.117188 110.910156 58.320312 112.1875 C 58.320312 112.1875 53.984375 112.757812 52.484375 113.21875 C 51.09375 113.648438 49.46875 114.792969 51.378906 115.527344 C 52.972656 116.140625 55.582031 116.785156 68.816406 115.894531 C 75.226562 115.464844 81.59375 114.425781 90.210938 112.074219 C 108.988281 105.886719 115.511719 103.761719 138.582031 91.027344 C 152.1875 83.703125 167.628906 80.558594 186.59375 80.292969 C 193.152344 72.703125 201.269531 66.546875 209.507812 60.285156 C 213.945312 56.925781 218.300781 53.546875 222.203125 49.59375 Z M 222.203125 49.574219 " fill-opacity="1" fill-rule="nonzero"/><path fill="#ce7b29" d="M 266.21875 20.046875 C 261.40625 18.972656 256.792969 18.117188 252.339844 17.441406 C 257.621094 22.578125 262.253906 28.113281 267.191406 33.425781 C 269.714844 36.152344 272.382812 38.746094 275.050781 41.339844 C 273.925781 37.183594 273.515625 32.90625 271.78125 28.851562 C 270.421875 25.703125 268.34375 22.867188 266.230469 20.046875 Z M 266.21875 20.046875 " fill-opacity="1" fill-rule="nonzero"/><path fill="#d69929" d="M 284.300781 24.765625 C 279.355469 23.292969 274.671875 22.039062 270.164062 20.964844 C 271.566406 23.101562 272.800781 25.285156 273.761719 27.449219 C 276.164062 32.933594 276.65625 38.847656 278.269531 44.476562 C 294.878906 50.308594 312.175781 59.429688 329.972656 73.203125 C 341.398438 82.152344 349.636719 89.257812 356.355469 94.886719 C 355.71875 92.261719 328.347656 37.632812 284.289062 24.753906 Z M 298.242188 41.574219 C 297.691406 42.433594 296.640625 42.820312 295.566406 42.894531 C 294.347656 42.964844 292.988281 42.636719 291.894531 42.046875 C 290.320312 41.207031 288.984375 39.246094 290.28125 37.867188 C 291.527344 36.539062 294.023438 36.777344 295.679688 37.5625 C 297.148438 38.257812 299.253906 40.003906 298.234375 41.574219 Z M 298.242188 41.574219 " fill-opacity="1" fill-rule="nonzero"/><g clip-path="url(#5703538e10)"><path fill="#ce7b29" d="M 248.300781 16.878906 C 223.257812 13.796875 207.742188 9.855469 174.867188 18.125 C 142.320312 26.316406 135.402344 33.230469 109.171875 54.515625 C 103.214844 59.347656 93.257812 64.890625 87.6875 70.917969 C 93.644531 69.335938 99.585938 67.679688 105.769531 66.730469 C 113.679688 65.503906 121.828125 65.585938 129.839844 65.042969 C 145.0625 53.503906 165.363281 42.6875 188.441406 38.910156 C 202.546875 36.589844 216.335938 35.304688 230.382812 35.714844 C 231.933594 35.753906 233.5 35.824219 235.054688 35.90625 C 247.503906 36.613281 260.167969 38.738281 273.273438 42.820312 C 272.320312 41.851562 271.359375 40.890625 270.378906 39.953125 C 262.816406 32.710938 256.230469 24.203125 248.300781 16.878906 Z M 224.839844 26.992188 C 223.769531 28.21875 222.511719 28.789062 219.875 29.105469 C 219.167969 29.1875 218.472656 29.167969 217.851562 29.042969 C 215.601562 28.605469 213.054688 26.480469 215.191406 24.773438 C 217 23.324219 220.324219 22.109375 222.929688 22.445312 C 225.507812 22.785156 226.210938 25.429688 224.839844 26.992188 Z M 234.839844 21.84375 C 235.371094 22.273438 235.644531 22.96875 235.371094 23.539062 C 235.113281 24.050781 234.929688 24.222656 233.96875 24.429688 C 233.304688 24.5 233.050781 24.429688 232.609375 24.324219 C 231.863281 24.140625 231.363281 23.550781 231.363281 22.894531 C 231.351562 21.445312 233.652344 20.875 234.847656 21.855469 Z M 245.601562 26.09375 C 244.558594 26.550781 243.382812 26.65625 242.230469 26.53125 C 240.960938 26.398438 239.796875 25.53125 240.101562 24.335938 C 240.398438 23.183594 241.882812 22.742188 243.109375 22.691406 C 244.3125 22.628906 245.898438 22.945312 246.5 24.007812 C 247.003906 24.90625 246.441406 25.765625 245.601562 26.09375 Z M 245.601562 26.09375 " fill-opacity="1" fill-rule="nonzero"/></g><path fill="#cb998d" d="M 85.40625 73.859375 C 85.191406 74.207031 85.058594 74.605469 84.804688 74.898438 C 78.90625 81.621094 59.660156 96.550781 52.933594 106.96875 C 54.515625 106.683594 56.03125 106.480469 56.03125 106.480469 C 55.027344 106.582031 82.125 102.84375 97.253906 92.652344 C 103.960938 88.15625 113.691406 77.914062 126.734375 67.457031 C 120.019531 67.851562 113.199219 67.863281 106.566406 68.863281 C 99.320312 69.957031 92.417969 72.050781 85.417969 73.859375 Z M 92.246094 82.417969 C 91.613281 83.214844 90.363281 83.589844 89.332031 83.746094 C 88.199219 83.90625 86.929688 83.335938 86.816406 82.078125 C 86.707031 80.875 87.851562 80.097656 88.894531 79.75 C 89.90625 79.414062 91.375 79.34375 92.226562 80.25 C 92.941406 81.019531 92.777344 81.703125 92.246094 82.417969 Z M 101.9375 75.953125 C 101.855469 76.515625 101.699219 76.984375 100.945312 77.167969 C 100.535156 77.257812 100.136719 77.3125 99.726562 77.289062 C 99.03125 77.257812 98.429688 76.769531 98.246094 76.125 C 97.835938 74.695312 99.695312 73.65625 101.003906 74.378906 C 101.589844 74.695312 102.015625 75.328125 101.9375 75.953125 Z M 101.9375 75.953125 " fill-opacity="1" fill-rule="nonzero"/><g clip-path="url(#19aa768e7a)"><path fill="#004538" d="M 35.566406 144.09375 C 35.566406 144.09375 24.515625 153.140625 24.640625 180.675781 C 24.761719 208.210938 25.417969 221.25 42.804688 222.28125 C 60.179688 223.316406 63.777344 205.808594 65.230469 199.019531 C 66.679688 192.226562 67.835938 188.292969 62.664062 187.925781 C 57.492188 187.570312 51.347656 187.34375 48.300781 187.457031 C 45.257812 187.570312 43.988281 188.019531 43.710938 192.910156 C 43.4375 197.800781 46.972656 197.527344 50.417969 197.800781 C 53.863281 198.078125 56.828125 197.382812 56.253906 200.171875 C 55.683594 202.960938 51.144531 209.394531 46.523438 209.671875 C 41.902344 209.945312 35.730469 205.226562 35.820312 188.742188 C 35.914062 172.261719 35.914062 167.542969 40.625 157.214844 C 45.339844 146.890625 51.6875 151.058594 55.765625 157.03125 C 59.84375 163.007812 62.410156 165.355469 66.160156 163.097656 C 69.910156 160.84375 70.09375 157.03125 67.191406 152.417969 C 64.289062 147.800781 58.941406 141.550781 53.136719 140.273438 C 47.332031 138.996094 41.472656 139.027344 35.566406 144.09375 Z M 35.566406 144.09375 " fill-opacity="1" fill-rule="nonzero"/></g><path fill="#004538" d="M 111.707031 147.882812 C 105.542969 134.839844 93.03125 138.640625 88.136719 146.339844 C 83.238281 154.039062 80.613281 176.324219 80.613281 176.324219 C 80.613281 176.324219 77.894531 200.785156 77.527344 212.558594 C 77.167969 224.335938 80.265625 223.292969 81.859375 223.4375 C 83.453125 223.578125 89.773438 224.613281 89.402344 215.460938 C 89.046875 206.308594 91.039062 192.265625 91.488281 188.558594 C 91.9375 184.851562 97.929688 185.933594 102.394531 186.007812 C 106.863281 186.078125 106.902344 188.019531 106.902344 191.183594 C 106.902344 194.351562 107.351562 206.402344 107.539062 212.558594 C 107.722656 218.71875 109.171875 222.4375 113.34375 223.253906 C 117.511719 224.070312 119.691406 226.785156 119.96875 210.121094 C 120.242188 193.453125 117.882812 160.933594 111.71875 147.882812 Z M 100.832031 181.492188 C 96.386719 181.585938 92.121094 182.757812 93.574219 171.890625 C 93.574219 171.890625 95.117188 159.484375 97.835938 152.957031 C 100.554688 146.429688 101.558594 152.867188 102.457031 156.308594 C 103.367188 159.75 105.808594 174.964844 105.902344 178.234375 C 105.992188 181.492188 105.269531 181.402344 100.820312 181.492188 Z M 100.832031 181.492188 " fill-opacity="1" fill-rule="nonzero"/><path fill="#004538" d="M 153.597656 197.800781 C 149.519531 193.726562 153.78125 195.8125 161.753906 187.742188 C 169.734375 179.683594 174.714844 167.632812 166.925781 154.765625 C 159.125 141.898438 151.695312 141.632812 142.628906 143.898438 C 133.5625 146.167969 134.472656 154.316406 134.472656 158.851562 C 134.472656 163.386719 134.195312 188.292969 134.195312 188.292969 C 134.195312 188.292969 133.746094 194.914062 133.46875 208.21875 C 133.195312 221.539062 136.464844 221.894531 139.910156 221.539062 C 143.355469 221.179688 143.261719 212.203125 143.445312 205.777344 C 143.628906 199.34375 145.367188 200.753906 146.890625 202.335938 C 148.414062 203.921875 154.054688 209.671875 160.558594 215.644531 C 167.058594 221.617188 169.644531 214.746094 167.375 212.9375 C 165.105469 211.128906 157.675781 201.886719 153.597656 197.8125 Z M 148.792969 184.761719 C 146.238281 186.445312 144.898438 187.660156 145.070312 182.136719 C 145.253906 176.609375 145.511719 172.71875 145.511719 172.71875 C 145.511719 172.71875 145.625 160.21875 145.980469 157.132812 C 146.339844 154.050781 149.066406 149.34375 154.863281 152.242188 C 160.667969 155.144531 161.027344 166.644531 156.949219 174.34375 C 152.871094 182.042969 151.347656 183.074219 148.792969 184.761719 Z M 148.792969 184.761719 " fill-opacity="1" fill-rule="nonzero"/><path fill="#004538" d="M 181.164062 188.742188 C 181.164062 188.742188 179.710938 168 188.503906 154.683594 C 197.292969 141.367188 209.722656 143.265625 217.789062 150.964844 C 225.851562 158.667969 219.578125 163.230469 216.101562 161.578125 C 212.625 159.921875 204.550781 151.046875 198.746094 158.75 C 192.941406 166.449219 189.320312 183.75 191.40625 193.71875 C 193.492188 203.683594 195.484375 208.117188 203.007812 204.953125 C 210.53125 201.785156 212.605469 191 208.578125 190.777344 C 204.550781 190.550781 201.648438 190.644531 202.191406 185.660156 C 202.730469 180.675781 203.550781 179.675781 210.253906 179.949219 C 216.960938 180.226562 222.410156 177.773438 221.050781 195.445312 C 219.691406 213.113281 208.445312 219.628906 197.660156 219.085938 C 186.867188 218.546875 181.164062 203.777344 181.164062 188.742188 Z M 181.164062 188.742188 " fill-opacity="1" fill-rule="nonzero"/><path fill="#004538" d="M 235.972656 223.710938 C 240.960938 224.347656 245.878906 222.886719 246.367188 214.917969 C 246.859375 206.953125 247.125 194.453125 247.03125 191.367188 C 246.941406 188.285156 246.675781 185.75 252.472656 186.027344 C 258.265625 186.304688 263.082031 185.667969 263.171875 190.46875 C 263.265625 195.269531 264.164062 213.304688 264.308594 217.378906 C 264.449219 221.457031 265.972656 223.457031 271.832031 223.445312 C 277.6875 223.445312 276.074219 211.875 275.878906 208.414062 C 275.878906 208.414062 274.601562 177.785156 271.515625 162.015625 C 268.425781 146.257812 262.171875 139.730469 252.839844 140.007812 C 243.496094 140.285156 236.371094 153.875 235.082031 178.785156 C 233.796875 203.695312 230.984375 223.078125 235.972656 223.710938 Z M 248.117188 178.328125 C 248.066406 175.917969 249.292969 164.46875 251.019531 157.492188 C 252.746094 150.515625 253.460938 148.25 256.097656 153.957031 C 258.726562 159.667969 260.453125 172.894531 260.453125 172.894531 C 260.453125 172.894531 260.636719 174.792969 260.902344 178.144531 C 261.179688 181.492188 260.453125 181.308594 254.28125 181.402344 C 248.117188 181.492188 248.167969 180.726562 248.117188 178.316406 Z M 248.117188 178.328125 " fill-opacity="1" fill-rule="nonzero"/><path fill="#004538" d="M 309.089844 193.003906 C 316.886719 189.652344 323.050781 180.859375 324.410156 166.910156 C 325.769531 152.957031 312.535156 141.632812 301.566406 142.898438 C 290.597656 144.164062 289.054688 151.230469 288.777344 156.574219 C 288.503906 161.914062 288.050781 192.714844 288.050781 192.714844 C 288.050781 192.714844 287.777344 215.449219 288.144531 218.8125 C 288.503906 222.160156 292.132812 221.976562 295.21875 221.527344 C 298.304688 221.078125 297.9375 212.917969 297.84375 207.484375 C 297.753906 202.050781 298.027344 200.785156 299.746094 202.410156 C 301.472656 204.042969 305.910156 209.199219 308.535156 212.46875 C 311.164062 215.726562 314.792969 219.535156 318.777344 216.09375 C 322.765625 212.652344 318.777344 210.84375 314.425781 205.769531 C 310.070312 200.691406 301.28125 196.351562 309.078125 192.992188 Z M 302.25 185.28125 C 300.441406 186.4375 299.296875 186.648438 299.296875 178.777344 C 299.296875 178.777344 300.023438 163.558594 300.207031 159.023438 C 300.390625 154.488281 302.464844 149.933594 307.820312 151.171875 C 313.167969 152.40625 316.4375 162.558594 312.535156 172.339844 C 308.640625 182.125 304.058594 184.128906 302.25 185.28125 Z M 302.25 185.28125 " fill-opacity="1" fill-rule="nonzero"/><path fill="#004538" d="M 368.9375 180.5 C 378.09375 165.824219 370.839844 155.316406 363.40625 147.800781 C 355.976562 140.285156 349.445312 142.457031 342.257812 147.421875 C 335.074219 152.386719 336.65625 167.367188 336.65625 167.367188 C 336.65625 167.367188 336.472656 179.328125 336.300781 187.570312 C 336.113281 195.8125 336.023438 213.203125 336.113281 217.460938 C 336.207031 221.722656 340.46875 223.078125 343.003906 221.089844 C 345.539062 219.097656 345.273438 204.238281 346.019531 201.335938 C 346.765625 198.4375 350.804688 204.511719 356.703125 211.027344 C 362.597656 217.554688 365.042969 217.09375 366.945312 216.105469 C 368.84375 215.101562 368.9375 212.847656 366.851562 210.039062 C 364.765625 207.230469 360.320312 202.703125 355.882812 197.535156 C 351.4375 192.371094 359.777344 195.179688 368.9375 180.5 Z M 353.523438 182.125 C 347.082031 187.46875 346.808594 183.914062 347.605469 172.710938 C 348.402344 161.507812 348.625 154.222656 351.222656 152.039062 C 353.820312 149.851562 361.046875 149.609375 361.773438 162.914062 C 362.496094 176.234375 353.523438 182.117188 353.523438 182.117188 Z M 353.523438 182.125 " fill-opacity="1" fill-rule="nonzero"/><g clip-path="url(#07a5d00c70)"><path fill="#004538" d="M 402.484375 142.378906 C 384.074219 145.472656 383.625 169.605469 383.625 169.605469 C 383.625 169.605469 381.988281 179.550781 382.714844 199.058594 C 383.441406 218.566406 392.507812 226.09375 405.203125 223.394531 C 417.898438 220.691406 425.515625 203.5 425.515625 184.1875 C 425.515625 164.875 420.894531 139.292969 402.484375 142.378906 Z M 414.085938 192.6875 C 409.546875 210.066406 404.570312 220.320312 399.53125 213.550781 C 394.5 206.78125 398.671875 173.761719 398.671875 173.761719 C 398.671875 173.761719 400.714844 154.683594 406.765625 154.855469 C 412.820312 155.03125 418.613281 175.304688 414.085938 192.6875 Z M 414.085938 192.6875 " fill-opacity="1" fill-rule="nonzero"/></g><g clip-path="url(#7bc08be696)"><path fill="#004538" d="M 24.710938 248.214844 L 31.988281 248.214844 C 36.855469 248.214844 39.574219 251.0625 39.574219 254.300781 C 39.574219 256.445312 38.417969 258.242188 36.3125 259.234375 C 39.511719 260.113281 41.28125 262.285156 41.28125 265.175781 C 41.28125 268.988281 38.285156 272.007812 32.949219 272.007812 L 24.710938 272.007812 Z M 31.917969 258.242188 C 34.910156 258.242188 36.578125 256.742188 36.578125 254.433594 C 36.578125 252.125 34.910156 250.664062 31.917969 250.664062 L 27.707031 250.664062 L 27.707031 258.242188 L 31.925781 258.242188 Z M 32.878906 269.488281 C 36.34375 269.488281 38.253906 267.824219 38.253906 265.066406 C 38.253906 262.308594 36.382812 260.683594 32.878906 260.683594 L 27.707031 260.683594 L 27.707031 269.488281 Z M 32.878906 269.488281 " fill-opacity="1" fill-rule="nonzero"/></g><g clip-path="url(#40bc41520d)"><path fill="#004538" d="M 45.214844 260.113281 C 45.214844 252.910156 50.59375 247.714844 57.183594 247.714844 C 63.777344 247.714844 69.195312 252.910156 69.195312 260.113281 C 69.195312 267.3125 63.820312 272.519531 57.183594 272.519531 C 50.550781 272.519531 45.214844 267.320312 45.214844 260.113281 Z M 66.171875 260.113281 C 66.171875 254.402344 62.152344 250.390625 57.195312 250.390625 C 52.238281 250.390625 48.21875 254.402344 48.21875 260.113281 C 48.21875 265.820312 52.269531 269.835938 57.195312 269.835938 C 62.121094 269.835938 66.171875 265.820312 66.171875 260.113281 Z M 66.171875 260.113281 " fill-opacity="1" fill-rule="nonzero"/></g><g clip-path="url(#56a7f549e4)"><path fill="#004538" d="M 79.121094 250.867188 L 71.503906 250.867188 L 71.503906 248.214844 L 89.730469 248.214844 L 89.730469 250.867188 L 82.117188 250.867188 L 82.117188 272.007812 L 79.121094 272.007812 Z M 79.121094 250.867188 " fill-opacity="1" fill-rule="nonzero"/></g><g clip-path="url(#d5e4ded309)"><path fill="#004538" d="M 99.554688 247.539062 L 99.828125 247.539062 L 110.613281 272.007812 L 107.484375 272.007812 L 105.511719 267.21875 L 93.882812 267.21875 L 91.910156 272.007812 L 88.78125 272.007812 L 99.5625 247.539062 Z M 104.492188 264.726562 L 99.695312 253.175781 L 94.933594 264.726562 Z M 104.492188 264.726562 " fill-opacity="1" fill-rule="nonzero"/></g><g clip-path="url(#2cf6aac91d)"><path fill="#004538" d="M 118.054688 255.015625 L 118.054688 272.007812 L 115.058594 272.007812 L 115.058594 247.539062 L 115.367188 247.539062 L 130.914062 265.308594 L 130.914062 248.214844 L 133.910156 248.214844 L 133.910156 272.683594 L 133.632812 272.683594 Z M 118.054688 255.015625 " fill-opacity="1" fill-rule="nonzero"/></g><path fill="#004538" d="M 140.929688 248.214844 L 143.925781 248.214844 L 143.925781 272 L 140.929688 272 Z M 140.929688 248.214844 " fill-opacity="1" fill-rule="nonzero"/><g clip-path="url(#916701fb4c)"><path fill="#004538" d="M 150.050781 260.113281 C 150.050781 252.910156 155.28125 247.714844 162.019531 247.714844 C 165.1875 247.714844 168.070312 248.835938 170.351562 251.113281 L 168.855469 253.1875 C 166.882812 251.421875 164.429688 250.398438 161.957031 250.398438 C 156.988281 250.398438 153.042969 254.414062 153.042969 260.121094 C 153.042969 265.832031 156.988281 269.84375 161.988281 269.84375 C 165.351562 269.84375 167.703125 268.078125 169.296875 266.484375 L 170.789062 268.730469 C 168.539062 270.9375 165.761719 272.539062 162.019531 272.539062 C 155.28125 272.539062 150.050781 267.34375 150.050781 260.132812 Z M 150.050781 260.113281 " fill-opacity="1" fill-rule="nonzero"/></g><g clip-path="url(#e02e6f0b08)"><path fill="#004538" d="M 185.578125 260.070312 C 185.578125 252.902344 190.8125 247.703125 197.550781 247.703125 C 200.71875 247.703125 203.601562 248.828125 205.878906 251.105469 L 204.386719 253.175781 C 202.414062 251.410156 199.960938 250.390625 197.488281 250.390625 C 192.519531 250.390625 188.574219 254.402344 188.574219 260.113281 C 188.574219 265.820312 192.550781 269.835938 197.449219 269.835938 C 200.269531 269.835938 202.3125 268.546875 204.144531 266.738281 L 204.144531 261.878906 L 196.835938 261.878906 L 196.835938 259.292969 L 207.078125 259.292969 L 207.078125 267.546875 C 204.765625 270.539062 201.464844 272.511719 197.417969 272.511719 C 190.886719 272.511719 185.578125 267.3125 185.578125 260.070312 Z M 185.578125 260.070312 " fill-opacity="1" fill-rule="nonzero"/></g><g clip-path="url(#045b26c3f1)"><path fill="#004538" d="M 221.417969 247.539062 L 221.691406 247.539062 L 232.476562 272.007812 L 229.347656 272.007812 L 227.375 267.21875 L 215.746094 267.21875 L 213.769531 272.007812 L 210.644531 272.007812 L 221.425781 247.539062 Z M 226.355469 264.726562 L 221.558594 253.175781 L 216.796875 264.726562 Z M 226.355469 264.726562 " fill-opacity="1" fill-rule="nonzero"/></g><path fill="#004538" d="M 236.921875 248.214844 L 243.691406 248.214844 C 249.269531 248.214844 252.5 251.644531 252.5 255.820312 C 252.5 258.949219 250.703125 261.632812 247.460938 262.816406 L 253.585938 271.988281 L 250.179688 271.988281 L 244.539062 263.390625 C 244.261719 263.421875 243.957031 263.421875 243.691406 263.421875 L 239.917969 263.421875 L 239.917969 271.988281 L 236.921875 271.988281 L 236.921875 248.203125 Z M 243.628906 260.929688 C 247.339844 260.929688 249.515625 258.925781 249.515625 255.863281 C 249.515625 252.800781 247.308594 250.734375 243.628906 250.734375 L 239.917969 250.734375 L 239.917969 260.929688 Z M 243.628906 260.929688 " fill-opacity="1" fill-rule="nonzero"/><g clip-path="url(#7b0d5a8d12)"><path fill="#004538" d="M 258.789062 248.214844 L 264.707031 248.214844 C 273.515625 248.214844 277.769531 253.515625 277.769531 260.113281 C 277.769531 266.710938 273.515625 272.007812 264.707031 272.007812 L 258.789062 272.007812 Z M 264.675781 269.355469 C 271.820312 269.355469 274.773438 265.238281 274.773438 260.113281 C 274.773438 254.984375 271.820312 250.867188 264.675781 250.867188 L 261.78125 250.867188 L 261.78125 269.355469 Z M 264.675781 269.355469 " fill-opacity="1" fill-rule="nonzero"/></g><g clip-path="url(#e2e08f66d9)"><path fill="#004538" d="M 283.410156 248.214844 L 298.480469 248.214844 L 298.480469 250.867188 L 286.40625 250.867188 L 286.40625 259.265625 L 297.121094 259.265625 L 297.121094 261.917969 L 286.40625 261.917969 L 286.40625 269.363281 L 298.828125 269.363281 L 298.828125 272.019531 L 283.421875 272.019531 L 283.421875 248.234375 Z M 283.410156 248.214844 " fill-opacity="1" fill-rule="nonzero"/></g><g clip-path="url(#1dd3e4df84)"><path fill="#004538" d="M 307.382812 255.015625 L 307.382812 272.007812 L 304.386719 272.007812 L 304.386719 247.539062 L 304.695312 247.539062 L 320.242188 265.308594 L 320.242188 248.214844 L 323.234375 248.214844 L 323.234375 272.683594 L 322.960938 272.683594 Z M 307.382812 255.015625 " fill-opacity="1" fill-rule="nonzero"/></g><g clip-path="url(#2e5e654ed9)"><path fill="#004538" d="M 339.273438 260.113281 C 339.273438 252.910156 344.507812 247.714844 351.242188 247.714844 C 354.410156 247.714844 357.292969 248.835938 359.574219 251.113281 L 358.082031 253.1875 C 356.109375 251.421875 353.65625 250.398438 351.183594 250.398438 C 346.214844 250.398438 342.269531 254.414062 342.269531 260.121094 C 342.269531 265.832031 346.214844 269.84375 351.210938 269.84375 C 354.574219 269.84375 356.925781 268.078125 358.519531 266.484375 L 360.011719 268.730469 C 357.765625 270.9375 354.984375 272.539062 351.242188 272.539062 C 344.507812 272.539062 339.273438 267.34375 339.273438 260.132812 Z M 339.273438 260.113281 " fill-opacity="1" fill-rule="nonzero"/></g><g clip-path="url(#7d2813ef47)"><path fill="#004538" d="M 373.996094 247.539062 L 374.273438 247.539062 L 385.054688 272.007812 L 381.929688 272.007812 L 379.957031 267.21875 L 368.324219 267.21875 L 366.351562 272.007812 L 363.222656 272.007812 L 374.007812 247.539062 Z M 378.921875 264.726562 L 374.128906 253.175781 L 369.367188 264.726562 Z M 378.921875 264.726562 " fill-opacity="1" fill-rule="nonzero"/></g><g clip-path="url(#b246092d7a)"><path fill="#004538" d="M 389.492188 248.214844 L 404.558594 248.214844 L 404.558594 250.867188 L 392.488281 250.867188 L 392.488281 259.265625 L 402.554688 259.265625 L 402.554688 261.917969 L 392.488281 261.917969 L 392.488281 272.007812 L 389.492188 272.007812 Z M 389.492188 248.214844 " fill-opacity="1" fill-rule="nonzero"/></g><g clip-path="url(#f0e88b6563)"><path fill="#004538" d="M 410.101562 248.214844 L 425.167969 248.214844 L 425.167969 250.867188 L 413.09375 250.867188 L 413.09375 259.265625 L 423.808594 259.265625 L 423.808594 261.917969 L 413.09375 261.917969 L 413.09375 269.363281 L 425.515625 269.363281 L 425.515625 272.019531 L 410.109375 272.019531 L 410.109375 248.234375 Z M 410.101562 248.214844 " fill-opacity="1" fill-rule="nonzero"/></g><g clip-path="url(#ca226a412d)"><path fill="#ffffff" d="M 36.3125 259.132812 C 38.417969 258.144531 39.574219 256.347656 39.574219 254.203125 C 39.574219 250.964844 36.855469 248.113281 31.988281 248.113281 L 24.710938 248.113281 L 24.710938 271.910156 L 32.949219 271.910156 C 38.285156 271.910156 41.28125 268.886719 41.28125 265.078125 C 41.28125 262.1875 39.511719 260.011719 36.3125 259.132812 Z M 27.707031 250.566406 L 31.917969 250.566406 C 34.910156 250.566406 36.578125 252.027344 36.578125 254.335938 C 36.578125 256.640625 34.910156 258.144531 31.917969 258.144531 L 27.707031 258.144531 Z M 32.878906 269.386719 L 27.707031 269.386719 L 27.707031 260.585938 L 32.878906 260.585938 C 36.382812 260.585938 38.253906 262.207031 38.253906 264.964844 C 38.253906 267.722656 36.34375 269.386719 32.878906 269.386719 Z M 32.878906 269.386719 " fill-opacity="1" fill-rule="nonzero"/></g><g clip-path="url(#2d5fc773c2)"><path fill="#ffffff" d="M 57.183594 247.613281 C 50.59375 247.613281 45.214844 252.8125 45.214844 260.011719 C 45.214844 267.210938 50.550781 272.421875 57.183594 272.421875 C 63.820312 272.421875 69.195312 267.210938 69.195312 260.011719 C 69.195312 252.8125 63.777344 247.613281 57.183594 247.613281 Z M 57.195312 269.734375 C 52.269531 269.734375 48.21875 265.722656 48.21875 260.011719 C 48.21875 254.304688 52.238281 250.289062 57.195312 250.289062 C 62.152344 250.289062 66.171875 254.304688 66.171875 260.011719 C 66.171875 265.722656 62.121094 269.734375 57.195312 269.734375 Z M 57.195312 269.734375 " fill-opacity="1" fill-rule="nonzero"/></g><path fill="#ffffff" d="M 89.730469 248.113281 L 71.503906 248.113281 L 71.503906 250.769531 L 79.121094 250.769531 L 79.121094 271.910156 L 82.117188 271.910156 L 82.117188 250.769531 L 89.730469 250.769531 Z M 89.730469 248.113281 " fill-opacity="1" fill-rule="nonzero"/><path fill="#ffffff" d="M 99.5625 247.441406 L 88.78125 271.910156 L 91.910156 271.910156 L 93.882812 267.121094 L 105.511719 267.121094 L 107.484375 271.910156 L 110.613281 271.910156 L 99.828125 247.441406 Z M 94.933594 264.628906 L 99.695312 253.078125 L 104.492188 264.628906 Z M 94.933594 264.628906 " fill-opacity="1" fill-rule="nonzero"/><g clip-path="url(#5ae80167a9)"><path fill="#ffffff" d="M 130.914062 265.210938 L 115.367188 247.441406 L 115.058594 247.441406 L 115.058594 271.910156 L 118.054688 271.910156 L 118.054688 254.917969 L 133.632812 272.585938 L 133.910156 272.585938 L 133.910156 248.113281 L 130.914062 248.113281 Z M 130.914062 265.210938 " fill-opacity="1" fill-rule="nonzero"/></g><path fill="#ffffff" d="M 140.929688 248.113281 L 143.925781 248.113281 L 143.925781 271.898438 L 140.929688 271.898438 Z M 140.929688 248.113281 " fill-opacity="1" fill-rule="nonzero"/><g clip-path="url(#5893f57904)"><path fill="#ffffff" d="M 161.988281 269.746094 C 156.988281 269.746094 153.042969 265.730469 153.042969 260.023438 C 153.042969 254.3125 156.988281 250.300781 161.957031 250.300781 C 164.429688 250.300781 166.882812 251.320312 168.855469 253.089844 L 170.351562 251.015625 C 168.070312 248.738281 165.1875 247.613281 162.019531 247.613281 C 155.28125 247.613281 150.050781 252.8125 150.050781 260.011719 L 150.050781 260.03125 C 150.050781 267.242188 155.28125 272.441406 162.019531 272.441406 C 165.761719 272.441406 168.539062 270.839844 170.789062 268.632812 L 169.296875 266.386719 C 167.703125 267.976562 165.351562 269.746094 161.988281 269.746094 Z M 161.988281 269.746094 " fill-opacity="1" fill-rule="nonzero"/></g><g clip-path="url(#8a8f6d9de2)"><path fill="#ffffff" d="M 196.835938 261.777344 L 204.144531 261.777344 L 204.144531 266.640625 C 202.3125 268.449219 200.269531 269.734375 197.449219 269.734375 C 192.550781 269.734375 188.574219 265.722656 188.574219 260.011719 C 188.574219 254.304688 192.519531 250.289062 197.488281 250.289062 C 199.960938 250.289062 202.414062 251.3125 204.386719 253.078125 L 205.878906 251.003906 C 203.601562 248.726562 200.71875 247.605469 197.550781 247.605469 C 190.8125 247.605469 185.578125 252.800781 185.578125 259.972656 C 185.578125 267.140625 190.886719 272.410156 197.417969 272.410156 C 201.464844 272.410156 204.765625 270.441406 207.078125 267.449219 L 207.078125 259.195312 L 196.835938 259.195312 Z M 196.835938 261.777344 " fill-opacity="1" fill-rule="nonzero"/></g><path fill="#ffffff" d="M 221.425781 247.441406 L 210.644531 271.910156 L 213.769531 271.910156 L 215.746094 267.121094 L 227.375 267.121094 L 229.347656 271.910156 L 232.476562 271.910156 L 221.691406 247.441406 Z M 216.796875 264.628906 L 221.558594 253.078125 L 226.355469 264.628906 Z M 216.796875 264.628906 " fill-opacity="1" fill-rule="nonzero"/><path fill="#ffffff" d="M 252.5 255.722656 C 252.5 251.546875 249.269531 248.113281 243.691406 248.113281 L 236.921875 248.113281 L 236.921875 271.890625 L 239.917969 271.890625 L 239.917969 263.320312 L 243.691406 263.320312 C 243.957031 263.320312 244.261719 263.320312 244.539062 263.289062 L 250.179688 271.890625 L 253.585938 271.890625 L 247.460938 262.71875 C 250.703125 261.535156 252.5 258.847656 252.5 255.722656 Z M 243.628906 260.828125 L 239.917969 260.828125 L 239.917969 250.636719 L 243.628906 250.636719 C 247.308594 250.636719 249.515625 252.699219 249.515625 255.765625 C 249.515625 258.828125 247.339844 260.828125 243.628906 260.828125 Z M 243.628906 260.828125 " fill-opacity="1" fill-rule="nonzero"/><path fill="#ffffff" d="M 264.707031 248.113281 L 258.789062 248.113281 L 258.789062 271.910156 L 264.707031 271.910156 C 273.515625 271.910156 277.769531 266.609375 277.769531 260.011719 C 277.769531 253.414062 273.515625 248.113281 264.707031 248.113281 Z M 264.675781 269.253906 L 261.78125 269.253906 L 261.78125 250.769531 L 264.675781 250.769531 C 271.820312 250.769531 274.773438 254.886719 274.773438 260.011719 C 274.773438 265.140625 271.820312 269.253906 264.675781 269.253906 Z M 264.675781 269.253906 " fill-opacity="1" fill-rule="nonzero"/><path fill="#ffffff" d="M 286.40625 261.820312 L 297.121094 261.820312 L 297.121094 259.164062 L 286.40625 259.164062 L 286.40625 250.769531 L 298.480469 250.769531 L 298.480469 248.113281 L 283.410156 248.113281 L 283.421875 248.132812 L 283.421875 271.921875 L 298.828125 271.921875 L 298.828125 269.265625 L 286.40625 269.265625 Z M 286.40625 261.820312 " fill-opacity="1" fill-rule="nonzero"/><g clip-path="url(#c6d8d91562)"><path fill="#ffffff" d="M 320.242188 265.210938 L 304.695312 247.441406 L 304.386719 247.441406 L 304.386719 271.910156 L 307.382812 271.910156 L 307.382812 254.917969 L 322.960938 272.585938 L 323.234375 272.585938 L 323.234375 248.113281 L 320.242188 248.113281 Z M 320.242188 265.210938 " fill-opacity="1" fill-rule="nonzero"/></g><g clip-path="url(#c0cbd371ef)"><path fill="#ffffff" d="M 351.210938 269.746094 C 346.214844 269.746094 342.269531 265.730469 342.269531 260.023438 C 342.269531 254.3125 346.214844 250.300781 351.183594 250.300781 C 353.65625 250.300781 356.109375 251.320312 358.082031 253.089844 L 359.574219 251.015625 C 357.292969 248.738281 354.410156 247.613281 351.242188 247.613281 C 344.507812 247.613281 339.273438 252.8125 339.273438 260.011719 L 339.273438 260.03125 C 339.273438 267.242188 344.507812 272.441406 351.242188 272.441406 C 354.984375 272.441406 357.765625 270.839844 360.011719 268.632812 L 358.519531 266.386719 C 356.925781 267.976562 354.574219 269.746094 351.210938 269.746094 Z M 351.210938 269.746094 " fill-opacity="1" fill-rule="nonzero"/></g><path fill="#ffffff" d="M 374.007812 247.441406 L 363.222656 271.910156 L 366.351562 271.910156 L 368.324219 267.121094 L 379.957031 267.121094 L 381.929688 271.910156 L 385.054688 271.910156 L 374.273438 247.441406 Z M 369.367188 264.628906 L 374.128906 253.078125 L 378.921875 264.628906 Z M 369.367188 264.628906 " fill-opacity="1" fill-rule="nonzero"/><path fill="#ffffff" d="M 389.492188 248.125 L 389.492188 271.910156 L 392.488281 271.910156 L 392.488281 261.820312 L 402.554688 261.820312 L 402.554688 259.164062 L 392.488281 259.164062 L 392.488281 250.769531 L 404.558594 250.769531 L 404.558594 248.113281 L 389.492188 248.113281 Z M 389.492188 248.125 " fill-opacity="1" fill-rule="nonzero"/><g clip-path="url(#a2e8e5cecb)"><path fill="#ffffff" d="M 413.09375 261.820312 L 423.808594 261.820312 L 423.808594 259.164062 L 413.09375 259.164062 L 413.09375 250.769531 L 425.167969 250.769531 L 425.167969 248.113281 L 410.101562 248.113281 L 410.109375 248.132812 L 410.109375 271.921875 L 425.515625 271.921875 L 425.515625 269.265625 L 413.09375 269.265625 Z M 413.09375 261.820312 " fill-opacity="1" fill-rule="nonzero"/></g></svg>