<svg xmlns="http://www.w3.org/2000/svg" xmlns:xlink="http://www.w3.org/1999/xlink" width="321" zoomAndPan="magnify" viewBox="0 0 240.75 74.999997" height="100" preserveAspectRatio="xMidYMid meet" version="1.0"><defs><clipPath id="0b9f43a89d"><path d="M 37 4.21875 L 154 4.21875 L 154 41 L 37 41 Z M 37 4.21875 " clip-rule="nonzero"/></clipPath></defs><path fill="#ffffff" d="M 198.417969 61.164062 C 203.570312 64.53125 208.617188 67.53125 215.679688 68.746094 C 228.066406 70.878906 232.6875 69.203125 232.734375 67.261719 C 232.796875 64.613281 232.6875 65.101562 227.71875 65.023438 L 227.714844 65.023438 C 219.84375 64.871094 214.269531 63.871094 205.957031 59.175781 C 201.210938 56.496094 196.089844 51.375 188.992188 45.769531 C 177.929688 37.144531 167.183594 31.4375 156.855469 27.789062 C 156.855469 27.804688 156.863281 27.816406 156.871094 27.828125 L 156.820312 27.777344 C 156.308594 27.597656 155.800781 27.433594 155.296875 27.257812 C 154.777344 27.085938 154.265625 26.921875 153.75 26.753906 C 145.605469 24.195312 137.734375 22.871094 129.996094 22.421875 C 128.84375 23 127.828125 23.664062 126.902344 24.394531 C 126.132812 24.996094 125.40625 25.640625 124.703125 26.320312 C 124.460938 26.550781 124.222656 26.785156 123.980469 27.023438 C 123.53125 27.464844 123.089844 27.917969 122.636719 28.378906 C 120.816406 30.234375 118.769531 31.855469 116.695312 33.429688 C 115.5 36.722656 115.816406 40.730469 115.1875 44.191406 C 115.058594 44.90625 114.964844 45.886719 114.816406 46.917969 C 122.488281 47.621094 130.960938 48.847656 140.449219 50.621094 C 165.578125 55.683594 178.480469 46.316406 198.417969 61.164062 Z M 128.871094 38.980469 L 128.863281 38.980469 C 128.332031 38.605469 127.9375 38.007812 128.058594 37.394531 C 128.179688 36.773438 128.761719 36.453125 129.3125 36.1875 C 130.398438 35.648438 132.355469 34.746094 133.628906 35.519531 C 134.402344 35.988281 134.382812 36.433594 134.214844 37.074219 C 133.933594 37.847656 133.136719 38.539062 132.628906 38.855469 C 131.609375 39.492188 130.003906 39.769531 128.871094 38.980469 Z M 134.160156 43.1875 C 133.839844 43.519531 133.683594 43.59375 133.371094 43.652344 C 132.96875 43.730469 132.496094 43.621094 132.257812 43.242188 C 132.054688 42.921875 132.105469 42.546875 132.296875 42.265625 C 132.664062 41.734375 133.8125 41.402344 134.363281 42.039062 C 134.585938 42.296875 134.484375 42.878906 134.152344 43.1875 Z M 139.253906 40.484375 C 138.5625 40.714844 137.628906 40.695312 137.003906 40.203125 C 136.308594 39.652344 136.480469 38.839844 137.03125 38.328125 C 137.613281 37.792969 138.527344 37.425781 139.390625 37.582031 C 139.925781 37.675781 140.269531 38.003906 140.539062 38.488281 C 140.621094 38.625 140.679688 38.785156 140.691406 38.976562 C 140.75 39.71875 139.898438 40.273438 139.261719 40.484375 Z M 139.253906 40.484375 " fill-opacity="1" fill-rule="nonzero"/><path fill="#ffffff" d="M 101.535156 46.238281 C 105.257812 46.25 109.195312 46.441406 113.371094 46.792969 C 113.46875 46.089844 113.542969 45.429688 113.628906 44.9375 C 113.882812 43.488281 114.089844 42.019531 114.253906 40.550781 C 114.464844 38.71875 114.40625 36.742188 114.753906 34.898438 L 114.757812 34.898438 C 112.195312 36.832031 109.664062 38.785156 107.203125 40.785156 C 105.128906 42.476562 103.328125 44.34375 101.535156 46.238281 Z M 101.535156 46.238281 " fill-opacity="1" fill-rule="nonzero"/><path fill="#ffffff" d="M 14.894531 68.339844 C 15.890625 68.722656 17.519531 69.125 25.800781 68.570312 C 29.808594 68.300781 33.792969 67.648438 39.183594 66.175781 C 50.929688 62.296875 55.007812 60.96875 69.441406 52.988281 C 77.949219 48.402344 87.609375 46.429688 99.472656 46.261719 C 103.578125 41.507812 108.652344 37.652344 113.808594 33.730469 C 116.582031 31.625 119.304688 29.503906 121.75 27.027344 L 121.75 27.015625 C 121.914062 26.851562 122.082031 26.675781 122.246094 26.503906 C 122.316406 26.433594 122.386719 26.363281 122.457031 26.292969 C 123.140625 25.5625 123.832031 24.878906 124.546875 24.238281 C 125.339844 23.527344 126.179688 22.882812 127.09375 22.300781 C 118.367188 22.042969 109.792969 22.855469 101.027344 24.304688 C 86.683594 26.664062 74.070312 33.433594 64.617188 40.660156 C 63.960938 41.164062 63.320312 41.667969 62.6875 42.175781 C 54.585938 48.71875 48.039062 55.644531 43.664062 58.152344 C 34.003906 63.738281 24.113281 65.445312 19.234375 66.246094 C 19.234375 66.246094 16.523438 66.605469 15.582031 66.890625 C 14.714844 67.160156 13.699219 67.878906 14.894531 68.339844 Z M 14.894531 68.339844 " fill-opacity="1" fill-rule="nonzero"/><path fill="#ffffff" d="M 149.886719 16.898438 C 151.46875 18.609375 153.136719 20.234375 154.804688 21.859375 C 154.101562 19.253906 153.84375 16.574219 152.757812 14.035156 C 151.90625 12.0625 150.609375 10.285156 149.285156 8.519531 L 149.28125 8.519531 C 146.269531 7.847656 143.386719 7.308594 140.597656 6.886719 C 143.902344 10.105469 146.800781 13.574219 149.886719 16.898438 Z M 149.886719 16.898438 " fill-opacity="1" fill-rule="nonzero"/><path fill="#ffffff" d="M 154 13.15625 C 155.5 16.59375 155.808594 20.296875 156.820312 23.824219 C 167.207031 27.476562 178.027344 33.191406 189.160156 41.824219 C 196.308594 47.429688 201.460938 51.882812 205.660156 55.40625 C 205.265625 53.761719 188.140625 19.535156 160.585938 11.46875 L 160.589844 11.46875 C 157.496094 10.554688 154.566406 9.765625 151.75 9.09375 C 152.625 10.429688 153.398438 11.800781 154 13.15625 Z M 164.332031 19.683594 C 165.113281 18.851562 166.671875 19 167.707031 19.492188 C 168.628906 19.925781 169.945312 21.019531 169.304688 22.007812 L 169.3125 22.007812 C 168.96875 22.542969 168.308594 22.785156 167.636719 22.832031 C 166.875 22.875 166.027344 22.671875 165.339844 22.300781 C 164.355469 21.777344 163.519531 20.546875 164.332031 19.683594 Z M 164.332031 19.683594 " fill-opacity="1" fill-rule="nonzero"/><g clip-path="url(#0b9f43a89d)"><path fill="#ffffff" d="M 63.972656 36.710938 C 73.492188 29.480469 86.191406 22.703125 100.628906 20.335938 C 109.453125 18.882812 118.078125 18.078125 126.863281 18.332031 C 127.835938 18.359375 128.8125 18.402344 129.785156 18.457031 C 137.574219 18.898438 145.496094 20.226562 153.691406 22.785156 C 153.097656 22.179688 152.496094 21.578125 151.882812 20.988281 C 147.152344 16.453125 143.035156 11.121094 138.070312 6.535156 C 122.40625 4.601562 112.699219 2.132812 92.136719 7.316406 C 71.78125 12.445312 67.449219 16.777344 51.042969 30.113281 C 47.316406 33.140625 41.089844 36.613281 37.605469 40.390625 C 41.332031 39.398438 45.046875 38.359375 48.914062 37.765625 C 53.863281 37 58.960938 37.050781 63.972656 36.710938 Z M 132.945312 11.207031 C 133.128906 10.484375 134.054688 10.207031 134.824219 10.175781 C 135.578125 10.136719 136.570312 10.335938 136.945312 11 C 137.257812 11.5625 136.90625 12.101562 136.382812 12.304688 C 135.730469 12.59375 134.996094 12.65625 134.273438 12.582031 C 133.480469 12.5 132.753906 11.953125 132.945312 11.207031 Z M 129.65625 9.652344 C 129.984375 9.917969 130.15625 10.347656 129.984375 10.707031 C 129.824219 11.027344 129.707031 11.136719 129.109375 11.261719 C 128.691406 11.308594 128.53125 11.261719 128.257812 11.199219 C 127.789062 11.085938 127.476562 10.714844 127.476562 10.304688 C 127.476562 9.394531 128.910156 9.035156 129.65625 9.652344 Z M 117.363281 11.480469 C 118.492188 10.570312 120.570312 9.8125 122.203125 10.023438 C 123.8125 10.234375 124.253906 11.890625 123.398438 12.871094 C 122.726562 13.636719 121.941406 13.996094 120.289062 14.195312 C 119.847656 14.246094 119.414062 14.230469 119.023438 14.15625 C 117.617188 13.878906 116.027344 12.550781 117.363281 11.480469 Z M 117.363281 11.480469 " fill-opacity="1" fill-rule="nonzero"/></g><path fill="#ffffff" d="M 43.589844 54.003906 C 47.785156 51.191406 53.871094 44.773438 62.027344 38.21875 C 57.828125 38.46875 53.5625 38.476562 49.414062 39.101562 C 44.878906 39.789062 40.566406 41.101562 36.183594 42.230469 L 36.179688 42.230469 C 36.042969 42.449219 35.960938 42.699219 35.800781 42.886719 C 32.113281 47.09375 20.070312 56.449219 15.863281 62.976562 C 16.855469 62.796875 17.800781 62.667969 17.800781 62.667969 C 17.175781 62.734375 34.125 60.390625 43.589844 54.003906 Z M 45.9375 42.558594 C 46.300781 42.757812 46.570312 43.152344 46.515625 43.542969 C 46.464844 43.894531 46.371094 44.191406 45.898438 44.304688 C 45.640625 44.363281 45.390625 44.394531 45.136719 44.382812 C 44.703125 44.363281 44.324219 44.054688 44.210938 43.652344 C 43.953125 42.757812 45.117188 42.105469 45.9375 42.558594 Z M 38.359375 45.925781 C 38.992188 45.714844 39.914062 45.667969 40.441406 46.238281 C 40.890625 46.71875 40.789062 47.144531 40.457031 47.59375 C 40.058594 48.09375 39.28125 48.332031 38.632812 48.425781 C 37.925781 48.527344 37.132812 48.171875 37.0625 47.382812 C 36.992188 46.628906 37.707031 46.140625 38.359375 45.925781 Z M 38.359375 45.925781 " fill-opacity="1" fill-rule="nonzero"/></svg>